<svg width="423" height="245" viewBox="0 0 423 245" fill="none" xmlns="http://www.w3.org/2000/svg">
<rect y="53" width="383" height="191" fill="#041E59"/>
<path d="M59.5 2H422.5L383 54H0L59.5 2Z" fill="#0638AA"/>
<path d="M383 54L422.5 0.5V172.5L383 245V54Z" fill="#020C23"/>
<path d="M30.384 99.752C30.384 98.92 30.556 98.18 30.9 97.532C31.252 96.876 31.748 96.368 32.388 96.008C33.028 95.64 33.764 95.456 34.596 95.456C35.652 95.456 36.54 95.74 37.26 96.308C37.98 96.868 38.444 97.632 38.652 98.6H36.12C35.968 98.28 35.756 98.036 35.484 97.868C35.22 97.7 34.912 97.616 34.56 97.616C34.016 97.616 33.58 97.812 33.252 98.204C32.932 98.588 32.772 99.104 32.772 99.752C32.772 100.408 32.932 100.932 33.252 101.324C33.58 101.708 34.016 101.9 34.56 101.9C34.912 101.9 35.22 101.816 35.484 101.648C35.756 101.48 35.968 101.236 36.12 100.916H38.652C38.444 101.884 37.98 102.652 37.26 103.22C36.54 103.78 35.652 104.06 34.596 104.06C33.764 104.06 33.028 103.88 32.388 103.52C31.748 103.152 31.252 102.644 30.9 101.996C30.556 101.34 30.384 100.592 30.384 99.752ZM44.1938 97.208C44.9618 97.208 45.5698 97.468 46.0178 97.988C46.4738 98.5 46.7018 99.196 46.7018 100.076V104H44.3498V100.388C44.3498 100.004 44.2498 99.704 44.0498 99.488C43.8498 99.264 43.5818 99.152 43.2458 99.152C42.8938 99.152 42.6178 99.264 42.4178 99.488C42.2178 99.704 42.1178 100.004 42.1178 100.388V104H39.7658V95.12H42.1178V98.228C42.3258 97.924 42.6058 97.68 42.9578 97.496C43.3178 97.304 43.7298 97.208 44.1938 97.208ZM47.6083 100.628C47.6083 99.932 47.7323 99.324 47.9803 98.804C48.2363 98.284 48.5803 97.884 49.0123 97.604C49.4523 97.324 49.9403 97.184 50.4763 97.184C50.9403 97.184 51.3403 97.276 51.6763 97.46C52.0123 97.644 52.2723 97.892 52.4563 98.204V97.268H54.8083V104H52.4563V103.064C52.2723 103.376 52.0083 103.624 51.6643 103.808C51.3283 103.992 50.9323 104.084 50.4763 104.084C49.9403 104.084 49.4523 103.944 49.0123 103.664C48.5803 103.384 48.2363 102.984 47.9803 102.464C47.7323 101.936 47.6083 101.324 47.6083 100.628ZM52.4563 100.628C52.4563 100.196 52.3363 99.856 52.0963 99.608C51.8643 99.36 51.5763 99.236 51.2323 99.236C50.8803 99.236 50.5883 99.36 50.3563 99.608C50.1243 99.848 50.0083 100.188 50.0083 100.628C50.0083 101.06 50.1243 101.404 50.3563 101.66C50.5883 101.908 50.8803 102.032 51.2323 102.032C51.5763 102.032 51.8643 101.908 52.0963 101.66C52.3363 101.412 52.4563 101.068 52.4563 100.628ZM52.9243 95.636L49.9243 96.812V95.216L52.9243 93.86V95.636ZM58.0614 100.628C58.0614 99.932 58.1854 99.324 58.4334 98.804C58.6894 98.284 59.0374 97.884 59.4774 97.604C59.9174 97.324 60.4054 97.184 60.9414 97.184C61.3734 97.184 61.7574 97.276 62.0934 97.46C62.4374 97.636 62.7054 97.88 62.8974 98.192V95.12H65.2614V104H62.8974V103.064C62.7134 103.376 62.4534 103.624 62.1174 103.808C61.7814 103.992 61.3854 104.084 60.9294 104.084C60.3934 104.084 59.9054 103.944 59.4654 103.664C59.0334 103.384 58.6894 102.984 58.4334 102.464C58.1854 101.936 58.0614 101.324 58.0614 100.628ZM62.9094 100.628C62.9094 100.196 62.7894 99.856 62.5494 99.608C62.3174 99.36 62.0294 99.236 61.6854 99.236C61.3334 99.236 61.0414 99.36 60.8094 99.608C60.5774 99.848 60.4614 100.188 60.4614 100.628C60.4614 101.06 60.5774 101.404 60.8094 101.66C61.0414 101.908 61.3334 102.032 61.6854 102.032C62.0294 102.032 62.3174 101.908 62.5494 101.66C62.7894 101.412 62.9094 101.068 62.9094 100.628ZM73.0337 100.556C73.0337 100.74 73.0217 100.924 72.9977 101.108H68.5457C68.5697 101.476 68.6697 101.752 68.8457 101.936C69.0297 102.112 69.2617 102.2 69.5417 102.2C69.9337 102.2 70.2137 102.024 70.3817 101.672H72.8897C72.7857 102.136 72.5817 102.552 72.2777 102.92C71.9817 103.28 71.6057 103.564 71.1497 103.772C70.6937 103.98 70.1897 104.084 69.6377 104.084C68.9737 104.084 68.3817 103.944 67.8617 103.664C67.3497 103.384 66.9457 102.984 66.6497 102.464C66.3617 101.944 66.2177 101.332 66.2177 100.628C66.2177 99.924 66.3617 99.316 66.6497 98.804C66.9377 98.284 67.3377 97.884 67.8497 97.604C68.3697 97.324 68.9657 97.184 69.6377 97.184C70.3017 97.184 70.8897 97.32 71.4017 97.592C71.9137 97.864 72.3137 98.256 72.6017 98.768C72.8897 99.272 73.0337 99.868 73.0337 100.556ZM70.6337 99.968C70.6337 99.68 70.5377 99.456 70.3457 99.296C70.1537 99.128 69.9137 99.044 69.6257 99.044C69.3377 99.044 69.1017 99.124 68.9177 99.284C68.7337 99.436 68.6137 99.664 68.5577 99.968H70.6337Z" fill="white"/>
<path d="M31.28 132.84C31.28 130.067 31.8533 127.6 33 125.44C34.1733 123.253 35.8267 121.56 37.96 120.36C40.0933 119.133 42.5467 118.52 45.32 118.52C48.84 118.52 51.8 119.467 54.2 121.36C56.6 123.227 58.1467 125.773 58.84 129H50.4C49.8933 127.933 49.1867 127.12 48.28 126.56C47.4 126 46.3733 125.72 45.2 125.72C43.3867 125.72 41.9333 126.373 40.84 127.68C39.7733 128.96 39.24 130.68 39.24 132.84C39.24 135.027 39.7733 136.773 40.84 138.08C41.9333 139.36 43.3867 140 45.2 140C46.3733 140 47.4 139.72 48.28 139.16C49.1867 138.6 49.8933 137.787 50.4 136.72H58.84C58.1467 139.947 56.6 142.507 54.2 144.4C51.8 146.267 48.84 147.2 45.32 147.2C42.5467 147.2 40.0933 146.6 37.96 145.4C35.8267 144.173 34.1733 142.48 33 140.32C31.8533 138.133 31.28 135.64 31.28 132.84ZM61.2725 135.76C61.2725 133.44 61.6858 131.413 62.5125 129.68C63.3658 127.947 64.5125 126.613 65.9525 125.68C67.4192 124.747 69.0458 124.28 70.8325 124.28C72.3792 124.28 73.7125 124.587 74.8325 125.2C75.9525 125.813 76.8192 126.64 77.4325 127.68V124.56H85.2725V147H77.4325V143.88C76.8192 144.92 75.9392 145.747 74.7925 146.36C73.6725 146.973 72.3525 147.28 70.8325 147.28C69.0458 147.28 67.4192 146.813 65.9525 145.88C64.5125 144.947 63.3658 143.613 62.5125 141.88C61.6858 140.12 61.2725 138.08 61.2725 135.76ZM77.4325 135.76C77.4325 134.32 77.0325 133.187 76.2325 132.36C75.4592 131.533 74.4992 131.12 73.3525 131.12C72.1792 131.12 71.2058 131.533 70.4325 132.36C69.6592 133.16 69.2725 134.293 69.2725 135.76C69.2725 137.2 69.6592 138.347 70.4325 139.2C71.2058 140.027 72.1792 140.44 73.3525 140.44C74.4992 140.44 75.4592 140.027 76.2325 139.2C77.0325 138.373 77.4325 137.227 77.4325 135.76ZM119.06 124.36C121.887 124.36 124.1 125.213 125.7 126.92C127.327 128.627 128.14 130.96 128.14 133.92V147H120.3V134.96C120.3 133.76 119.967 132.827 119.3 132.16C118.633 131.493 117.727 131.16 116.58 131.16C115.433 131.16 114.527 131.493 113.86 132.16C113.193 132.827 112.86 133.76 112.86 134.96V147H105.02V134.96C105.02 133.76 104.687 132.827 104.02 132.16C103.38 131.493 102.487 131.16 101.34 131.16C100.167 131.16 99.2467 131.493 98.58 132.16C97.9133 132.827 97.58 133.76 97.58 134.96V147H89.74V124.56H97.58V127.52C98.2733 126.56 99.1667 125.8 100.26 125.24C101.38 124.653 102.66 124.36 104.1 124.36C105.753 124.36 107.22 124.72 108.5 125.44C109.807 126.16 110.833 127.173 111.58 128.48C112.38 127.253 113.433 126.267 114.74 125.52C116.047 124.747 117.487 124.36 119.06 124.36ZM142.875 147.28C140.635 147.28 138.622 146.813 136.835 145.88C135.075 144.947 133.689 143.613 132.675 141.88C131.662 140.147 131.155 138.107 131.155 135.76C131.155 133.44 131.662 131.413 132.675 129.68C133.715 127.947 135.115 126.613 136.875 125.68C138.662 124.747 140.675 124.28 142.915 124.28C145.155 124.28 147.155 124.747 148.915 125.68C150.702 126.613 152.102 127.947 153.115 129.68C154.155 131.413 154.675 133.44 154.675 135.76C154.675 138.08 154.155 140.12 153.115 141.88C152.102 143.613 150.702 144.947 148.915 145.88C147.129 146.813 145.115 147.28 142.875 147.28ZM142.875 140.48C143.969 140.48 144.875 140.08 145.595 139.28C146.342 138.453 146.715 137.28 146.715 135.76C146.715 134.24 146.342 133.08 145.595 132.28C144.875 131.48 143.982 131.08 142.915 131.08C141.849 131.08 140.955 131.48 140.235 132.28C139.515 133.08 139.155 134.24 139.155 135.76C139.155 137.307 139.502 138.48 140.195 139.28C140.889 140.08 141.782 140.48 142.875 140.48ZM187.185 124.36C190.012 124.36 192.225 125.213 193.825 126.92C195.452 128.627 196.265 130.96 196.265 133.92V147H188.425V134.96C188.425 133.76 188.092 132.827 187.425 132.16C186.758 131.493 185.852 131.16 184.705 131.16C183.558 131.16 182.652 131.493 181.985 132.16C181.318 132.827 180.985 133.76 180.985 134.96V147H173.145V134.96C173.145 133.76 172.812 132.827 172.145 132.16C171.505 131.493 170.612 131.16 169.465 131.16C168.292 131.16 167.372 131.493 166.705 132.16C166.038 132.827 165.705 133.76 165.705 134.96V147H157.865V124.56H165.705V127.52C166.398 126.56 167.292 125.8 168.385 125.24C169.505 124.653 170.785 124.36 172.225 124.36C173.878 124.36 175.345 124.72 176.625 125.44C177.932 126.16 178.958 127.173 179.705 128.48C180.505 127.253 181.558 126.267 182.865 125.52C184.172 124.747 185.612 124.36 187.185 124.36ZM204.52 122.48C203.134 122.48 202.014 122.107 201.16 121.36C200.334 120.587 199.92 119.627 199.92 118.48C199.92 117.307 200.334 116.333 201.16 115.56C202.014 114.787 203.134 114.4 204.52 114.4C205.88 114.4 206.974 114.787 207.8 115.56C208.654 116.333 209.08 117.307 209.08 118.48C209.08 119.627 208.654 120.587 207.8 121.36C206.974 122.107 205.88 122.48 204.52 122.48ZM208.4 124.56V147H200.56V124.56H208.4ZM220.705 117.4V147H212.865V117.4H220.705ZM223.89 135.76C223.89 133.44 224.303 131.413 225.13 129.68C225.983 127.947 227.13 126.613 228.57 125.68C230.036 124.747 231.663 124.28 233.45 124.28C234.996 124.28 236.33 124.587 237.45 125.2C238.57 125.813 239.436 126.64 240.05 127.68V124.56H247.89V147H240.05V143.88C239.436 144.92 238.556 145.747 237.41 146.36C236.29 146.973 234.97 147.28 233.45 147.28C231.663 147.28 230.036 146.813 228.57 145.88C227.13 144.947 225.983 143.613 225.13 141.88C224.303 140.12 223.89 138.08 223.89 135.76ZM240.05 135.76C240.05 134.32 239.65 133.187 238.85 132.36C238.076 131.533 237.116 131.12 235.97 131.12C234.796 131.12 233.823 131.533 233.05 132.36C232.276 133.16 231.89 134.293 231.89 135.76C231.89 137.2 232.276 138.347 233.05 139.2C233.823 140.027 234.796 140.44 235.97 140.44C237.116 140.44 238.076 140.027 238.85 139.2C239.65 138.373 240.05 137.227 240.05 135.76Z" fill="white"/>
</svg>
