<svg width="370" height="440" viewBox="0 0 370 440" fill="none" xmlns="http://www.w3.org/2000/svg">
<path d="M369 398C369 415.397 286 444 188 439.5C77.5 442.5 1.50003 420.5 5.00009 393.5C5.00009 376.103 83.2604 340.5 183.5 340.5C283.74 340.5 369 380.603 369 398Z" fill="#C4C4C4"/>
<path d="M5.5 40L184.5 49.5L322 43.5L348 40H364V397L351.757 407.132C350.262 408.369 348.577 409.356 346.768 410.056L329.586 416.694C328.2 417.229 326.756 417.601 325.283 417.8L290.5 422.5L253.5 427.5L185 431.5H177.082C144.743 431.5 112.452 428.992 80.5 424V424L39.1784 413.786C37.0722 413.265 35.0594 412.421 33.2116 411.284L10 397L5.5 40Z" fill="#C32023"/>
<path d="M39.7598 151.692L34.3747 152.811L34.0707 155.458L29.6334 156.379L32.0151 140.044L36.8832 139.033L45.5517 153.073L41.0928 153.999L39.7598 151.692ZM38.0332 148.68L35.3761 144.109L34.7806 149.356L38.0332 148.68ZM47.8389 135.971L51.1496 151.911L46.9277 152.787L43.617 136.848L47.8389 135.971ZM52.9439 137.764C52.1971 137.919 51.5523 137.843 51.0092 137.537C50.4776 137.213 50.1476 136.742 50.0193 136.125C49.8881 135.493 50.0018 134.922 50.3605 134.413C50.7335 133.901 51.2934 133.568 52.0401 133.413C52.7725 133.261 53.4045 133.347 53.9362 133.671C54.4822 133.992 54.8208 134.468 54.9521 135.1C55.0803 135.717 54.9579 136.282 54.5849 136.794C54.2232 137.289 53.6762 137.612 52.9439 137.764ZM55.2659 138.45L57.7758 150.534L53.5539 151.411L51.044 139.327L55.2659 138.45ZM73.4369 134.564C74.959 134.248 76.2464 134.46 77.2989 135.2C78.3657 135.937 79.0647 137.102 79.3958 138.696L80.8587 145.74L76.6368 146.617L75.2902 140.133C75.156 139.487 74.8721 139.022 74.4385 138.737C74.0049 138.453 73.4794 138.375 72.8619 138.503C72.2444 138.631 71.7935 138.912 71.509 139.346C71.2246 139.779 71.1495 140.319 71.2837 140.965L72.6303 147.449L68.4084 148.326L67.0618 141.842C66.9276 141.196 66.6437 140.731 66.2101 140.446C65.7909 140.159 65.2726 140.079 64.6551 140.208C64.0232 140.339 63.5651 140.621 63.2806 141.055C62.9962 141.488 62.9211 142.028 63.0553 142.674L64.4019 149.158L60.18 150.035L57.6702 137.951L61.8921 137.074L62.2232 138.668C62.4891 138.073 62.8852 137.564 63.4113 137.14C63.9489 136.699 64.6053 136.398 65.3808 136.237C66.2711 136.052 67.1012 136.082 67.871 136.326C68.6552 136.568 69.3214 136.999 69.8696 137.619C70.1632 136.869 70.6201 136.22 71.2402 135.672C71.8574 135.109 72.5896 134.74 73.4369 134.564ZM93.4334 136.679C93.502 137.01 93.549 137.345 93.5746 137.684L85.5831 139.344C85.7634 139.995 86.0458 140.453 86.4303 140.718C86.8262 140.965 87.2755 141.037 87.7781 140.932C88.4817 140.786 88.9187 140.366 89.089 139.671L93.591 138.736C93.5773 139.608 93.3662 140.431 92.9577 141.205C92.5606 141.961 91.9915 142.611 91.2505 143.155C90.5096 143.698 89.6436 144.073 88.6528 144.278C87.4609 144.526 86.346 144.495 85.3082 144.187C84.2848 143.875 83.4105 143.308 82.6853 142.484C81.9744 141.658 81.4878 140.614 81.2253 139.35C80.9629 138.086 80.9947 136.941 81.3207 135.915C81.6438 134.874 82.2127 134.007 83.0274 133.313C83.8564 132.617 84.874 132.143 86.0803 131.893C87.2722 131.645 88.3784 131.67 89.3988 131.967C90.4193 132.265 91.2835 132.819 91.9913 133.631C92.6962 134.428 93.1769 135.444 93.4334 136.679ZM88.9061 136.519C88.7987 136.002 88.5429 135.636 88.1386 135.42C87.7313 135.19 87.2692 135.129 86.7522 135.236C86.2352 135.343 85.8415 135.575 85.5708 135.931C85.2972 136.272 85.1668 136.726 85.1796 137.293L88.9061 136.519ZM101.818 128.669C103.211 128.38 104.414 128.617 105.426 129.38C106.436 130.129 107.104 131.293 107.432 132.873L108.895 139.917L104.674 140.794L103.327 134.31C103.184 133.621 102.892 133.12 102.453 132.806C102.01 132.479 101.488 132.378 100.884 132.503C100.253 132.634 99.7989 132.938 99.5234 133.415C99.2449 133.877 99.1772 134.453 99.3204 135.142L100.667 141.626L96.4451 142.503L93.9353 130.419L98.1572 129.542L98.5151 131.265C98.7751 130.642 99.1868 130.099 99.75 129.638C100.31 129.162 101 128.839 101.818 128.669ZM117.595 134.358L118.342 137.955L116.511 138.335C113.423 138.976 111.562 137.768 110.927 134.709L110.099 130.724L108.613 131.033L107.884 127.522L109.37 127.213L108.761 124.283L113.005 123.402L113.613 126.331L115.81 125.875L116.54 129.386L114.343 129.843L115.184 133.892C115.252 134.222 115.373 134.444 115.547 134.558C115.735 134.669 116.008 134.687 116.367 134.613L117.595 134.358ZM125.932 136.536C124.725 136.786 123.589 136.76 122.522 136.457C121.47 136.152 120.574 135.589 119.835 134.769C119.095 133.948 118.594 132.907 118.332 131.643C118.072 130.394 118.119 129.246 118.47 128.199C118.837 127.149 119.441 126.274 120.285 125.575C121.142 124.873 122.174 124.396 123.381 124.146C124.587 123.895 125.716 123.923 126.768 124.228C127.835 124.531 128.738 125.093 129.477 125.913C130.231 126.73 130.738 127.763 130.998 129.012C131.257 130.262 131.205 131.418 130.842 132.482C130.49 133.529 129.885 134.404 129.028 135.106C128.17 135.809 127.138 136.285 125.932 136.536ZM125.171 132.874C125.76 132.752 126.203 132.435 126.502 131.923C126.811 131.395 126.881 130.721 126.711 129.903C126.541 129.084 126.21 128.501 125.719 128.154C125.241 127.804 124.716 127.688 124.141 127.807C123.567 127.927 123.131 128.242 122.832 128.753C122.534 129.265 122.47 129.93 122.64 130.748C122.813 131.581 123.131 132.174 123.594 132.527C124.057 132.881 124.582 132.996 125.171 132.874Z" fill="white"/>
<path d="M62.6728 211.281L52.8817 213.314L52.3289 218.127L44.2611 219.803L48.5916 190.102L57.4427 188.263L73.2034 213.792L65.0964 215.476L62.6728 211.281ZM59.5336 205.805L54.7024 197.494L53.6198 207.033L59.5336 205.805ZM72.1663 202.527C71.6945 200.256 71.7524 198.174 72.3398 196.281C72.9273 194.389 73.9616 192.813 75.4428 191.552C76.9501 190.285 78.7873 189.427 80.9544 188.977C83.7481 188.397 86.2579 188.679 88.4839 189.823C90.7044 190.942 92.3735 192.815 93.4912 195.443L85.3451 197.135C84.5768 195.796 83.5139 195.268 82.1562 195.55C81.1901 195.751 80.504 196.315 80.0977 197.244C79.7121 198.141 79.6792 199.36 79.9992 200.9C80.3191 202.441 80.8373 203.559 81.5537 204.254C82.2962 204.944 83.1505 205.189 84.1166 204.989C85.5004 204.701 86.2651 203.793 86.4107 202.265L94.5568 200.573C94.5725 203.402 93.7873 205.785 92.2013 207.722C90.6152 209.658 88.4254 210.916 85.6317 211.496C83.4646 211.946 81.4376 211.891 79.5507 211.33C77.6899 210.763 76.1132 209.728 74.8208 208.227C73.5284 206.725 72.6436 204.825 72.1663 202.527ZM109.342 183.163C111.849 182.642 114.009 183.078 115.824 184.472C117.659 185.834 118.875 187.951 119.471 190.823L122.131 203.629L114.455 205.224L112.007 193.435C111.746 192.182 111.217 191.271 110.418 190.701C109.613 190.106 108.662 189.922 107.566 190.15C106.417 190.388 105.592 190.941 105.091 191.808C104.585 192.648 104.462 193.695 104.722 194.948L107.171 206.737L99.4945 208.331L93.4751 179.35L101.151 177.755L103.258 187.899C103.731 186.766 104.479 185.78 105.503 184.94C106.548 184.07 107.828 183.477 109.342 183.163ZM136.622 200.906C134.429 201.361 132.363 201.314 130.424 200.763C128.511 200.207 126.882 199.184 125.537 197.693C124.193 196.202 123.282 194.307 122.804 192.01C122.333 189.738 122.417 187.651 123.056 185.748C123.722 183.839 124.822 182.249 126.355 180.977C127.915 179.7 129.791 178.834 131.984 178.378C134.177 177.923 136.23 177.973 138.143 178.529C140.083 179.079 141.724 180.1 143.069 181.591C144.44 183.077 145.361 184.955 145.833 187.227C146.305 189.498 146.21 191.601 145.55 193.536C144.91 195.439 143.811 197.03 142.251 198.307C140.692 199.584 138.815 200.45 136.622 200.906ZM135.239 194.248C136.31 194.025 137.116 193.449 137.658 192.52C138.221 191.559 138.348 190.334 138.039 188.846C137.73 187.357 137.129 186.297 136.235 185.666C135.367 185.029 134.411 184.819 133.367 185.036C132.323 185.253 131.529 185.826 130.987 186.756C130.445 187.686 130.328 188.895 130.637 190.383C130.952 191.897 131.53 192.976 132.371 193.618C133.213 194.26 134.169 194.47 135.239 194.248ZM147.703 186.838C147.231 184.567 147.289 182.485 147.876 180.593C148.464 178.7 149.498 177.124 150.979 175.863C152.486 174.596 154.324 173.738 156.491 173.288C159.284 172.708 161.794 172.99 164.02 174.135C166.241 175.253 167.91 177.126 169.028 179.754L160.881 181.446C160.113 180.107 159.05 179.579 157.693 179.861C156.726 180.062 156.04 180.626 155.634 181.555C155.248 182.452 155.216 183.671 155.536 185.212C155.855 186.752 156.374 187.87 157.09 188.566C157.833 189.256 158.687 189.5 159.653 189.3C161.037 189.012 161.801 188.104 161.947 186.576L170.093 184.884C170.109 187.714 169.324 190.096 167.738 192.033C166.152 193.969 163.962 195.227 161.168 195.808C159.001 196.258 156.974 196.202 155.087 195.641C153.226 195.074 151.65 194.04 150.357 192.538C149.065 191.036 148.18 189.136 147.703 186.838ZM185.31 190.793C183.116 191.249 181.05 191.201 179.111 190.651C177.198 190.095 175.569 189.072 174.225 187.58C172.88 186.089 171.969 184.195 171.492 181.897C171.02 179.626 171.104 177.539 171.744 175.635C172.409 173.727 173.509 172.137 175.042 170.865C176.602 169.588 178.478 168.721 180.672 168.266C182.865 167.81 184.918 167.861 186.831 168.416C188.77 168.967 190.412 169.988 191.757 171.479C193.127 172.964 194.049 174.843 194.52 177.114C194.992 179.386 194.898 181.489 194.238 183.424C193.598 185.327 192.498 186.917 190.939 188.194C189.379 189.472 187.503 190.338 185.31 190.793ZM183.927 184.135C184.997 183.913 185.804 183.337 186.346 182.407C186.909 181.446 187.036 180.221 186.727 178.733C186.418 177.245 185.816 176.185 184.922 175.554C184.055 174.917 183.099 174.707 182.054 174.924C181.01 175.141 180.217 175.714 179.674 176.644C179.132 177.573 179.016 178.782 179.325 180.271C179.639 181.785 180.217 182.863 181.059 183.506C181.9 184.148 182.856 184.358 183.927 184.135ZM201.586 156.895L207.605 185.877L199.929 187.471L193.91 158.489L201.586 156.895ZM208.438 174.224C207.966 171.952 207.959 169.884 208.415 168.019C208.898 166.148 209.75 164.609 210.97 163.403C212.216 162.191 213.714 161.403 215.463 161.04C216.978 160.725 218.346 160.754 219.567 161.127C220.788 161.5 221.805 162.133 222.617 163.026L221.982 159.972L229.659 158.377L234.222 180.348L226.546 181.943L225.911 178.888C225.522 180.031 224.829 181.019 223.831 181.853C222.859 182.681 221.629 183.25 220.141 183.559C218.391 183.922 216.704 183.796 215.078 183.181C213.478 182.56 212.084 181.487 210.896 179.964C209.729 178.409 208.91 176.495 208.438 174.224ZM224.26 170.938C223.967 169.528 223.345 168.499 222.394 167.853C221.468 167.201 220.444 166.991 219.322 167.224C218.173 167.463 217.304 168.065 216.715 169.032C216.12 169.973 215.972 171.161 216.271 172.597C216.563 174.007 217.175 175.051 218.106 175.729C219.031 176.381 220.068 176.588 221.217 176.349C222.34 176.116 223.196 175.516 223.785 174.55C224.4 173.578 224.558 172.374 224.26 170.938ZM250.201 170.207L251.56 176.747L248.231 177.439C242.617 178.605 239.233 176.407 238.078 170.846L236.573 163.6L233.87 164.162L232.545 157.778L235.247 157.217L234.141 151.89L241.856 150.288L242.962 155.614L246.957 154.784L248.283 161.168L244.288 161.998L245.817 169.361C245.942 169.961 246.162 170.365 246.477 170.572C246.819 170.773 247.316 170.806 247.969 170.671L250.201 170.207ZM251.541 165.271C251.07 163 251.062 160.931 251.519 159.066C252.002 157.196 252.854 155.657 254.074 154.45C255.32 153.238 256.818 152.45 258.567 152.087C260.081 151.773 261.449 151.802 262.67 152.174C263.892 152.547 264.908 153.18 265.72 154.074L265.086 151.019L272.762 149.425L277.326 171.396L269.649 172.99L269.015 169.935C268.626 171.078 267.932 172.067 266.934 172.9C265.963 173.729 264.732 174.297 263.244 174.606C261.495 174.97 259.807 174.844 258.182 174.228C256.582 173.607 255.188 172.535 254 171.011C252.833 169.456 252.013 167.543 251.541 165.271ZM267.364 161.985C267.071 160.575 266.449 159.547 265.497 158.9C264.572 158.248 263.548 158.038 262.425 158.272C261.276 158.51 260.408 159.113 259.818 160.08C259.224 161.02 259.076 162.208 259.374 163.644C259.667 165.054 260.279 166.098 261.209 166.777C262.135 167.429 263.172 167.636 264.321 167.397C265.443 167.164 266.299 166.564 266.888 165.597C267.503 164.625 267.662 163.421 267.364 161.985ZM278.161 159.742C277.689 157.471 277.681 155.403 278.138 153.537C278.621 151.667 279.486 150.125 280.732 148.913C281.978 147.701 283.476 146.913 285.226 146.55C286.635 146.257 287.951 146.297 289.172 146.67C290.414 147.011 291.454 147.626 292.293 148.514L290.21 138.488L297.926 136.885L303.945 165.867L296.23 167.469L295.595 164.415C295.206 165.558 294.526 166.543 293.554 167.372C292.582 168.2 291.352 168.769 289.864 169.078C288.114 169.441 286.427 169.315 284.801 168.699C283.201 168.078 281.807 167.006 280.619 165.482C279.452 163.927 278.632 162.014 278.161 159.742ZM293.983 156.456C293.69 155.046 293.068 154.018 292.117 153.371C291.191 152.719 290.167 152.51 289.045 152.743C287.896 152.981 287.027 153.584 286.438 154.551C285.843 155.491 285.695 156.68 285.994 158.116C286.286 159.525 286.898 160.57 287.829 161.248C288.754 161.9 289.791 162.107 290.94 161.868C292.063 161.635 292.919 161.035 293.508 160.068C294.123 159.096 294.281 157.892 293.983 156.456ZM318.598 163.11C316.405 163.565 314.339 163.518 312.399 162.967C310.486 162.411 308.858 161.388 307.513 159.897C306.168 158.406 305.257 156.511 304.78 154.214C304.308 151.942 304.392 149.855 305.032 147.952C305.698 146.043 306.797 144.453 308.331 143.181C309.89 141.904 311.767 141.038 313.96 140.582C316.153 140.126 318.206 140.177 320.119 140.733C322.058 141.283 323.7 142.304 325.045 143.795C326.416 145.281 327.337 147.159 327.809 149.431C328.28 151.702 328.186 153.805 327.526 155.74C326.886 157.643 325.787 159.233 324.227 160.511C322.667 161.788 320.791 162.654 318.598 163.11ZM317.215 156.452C318.286 156.229 319.092 155.653 319.634 154.724C320.197 153.762 320.324 152.538 320.015 151.049C319.706 149.561 319.104 148.501 318.211 147.87C317.343 147.233 316.387 147.023 315.343 147.24C314.298 147.457 313.505 148.03 312.963 148.96C312.42 149.89 312.304 151.099 312.613 152.587C312.927 154.101 313.505 155.179 314.347 155.822C315.189 156.464 316.145 156.674 317.215 156.452Z" fill="#233380"/>
<path d="M62.6728 211.281L63.9715 210.53L63.4292 209.592L62.3677 209.812L62.6728 211.281ZM52.8817 213.314L52.5767 211.846L51.5152 212.066L51.3915 213.143L52.8817 213.314ZM52.3289 218.127L52.634 219.596L53.6954 219.376L53.8191 218.299L52.3289 218.127ZM44.2611 219.803L42.7768 219.587L42.4676 221.708L44.5661 221.272L44.2611 219.803ZM48.5916 190.102L48.2865 188.633L47.2587 188.847L47.1073 189.885L48.5916 190.102ZM57.4427 188.263L58.719 187.475L58.1668 186.581L57.1376 186.795L57.4427 188.263ZM73.2034 213.792L73.5085 215.26L75.6043 214.825L74.4798 213.004L73.2034 213.792ZM65.0964 215.476L63.7977 216.226L64.34 217.165L65.4015 216.944L65.0964 215.476ZM59.5336 205.805L59.8386 207.273L61.8762 206.85L60.8304 205.051L59.5336 205.805ZM54.7024 197.494L55.9993 196.74L53.7228 192.823L53.212 197.324L54.7024 197.494ZM53.6198 207.033L52.1293 206.864L51.8956 208.923L53.9248 208.502L53.6198 207.033ZM62.3677 209.812L52.5767 211.846L53.1868 214.783L62.9778 212.749L62.3677 209.812ZM51.3915 213.143L50.8387 217.956L53.8191 218.299L54.3719 213.486L51.3915 213.143ZM52.0239 216.659L43.9561 218.334L44.5661 221.272L52.634 219.596L52.0239 216.659ZM45.7454 220.019L50.0759 190.318L47.1073 189.885L42.7768 219.587L45.7454 220.019ZM48.8966 191.57L57.7477 189.732L57.1376 186.795L48.2865 188.633L48.8966 191.57ZM56.1663 189.051L71.9271 214.58L74.4798 213.004L58.719 187.475L56.1663 189.051ZM72.8984 212.323L64.7914 214.007L65.4015 216.944L73.5085 215.26L72.8984 212.323ZM66.3952 214.725L63.9715 210.53L61.374 212.031L63.7977 216.226L66.3952 214.725ZM60.8304 205.051L55.9993 196.74L53.4056 198.247L58.2367 206.559L60.8304 205.051ZM53.212 197.324L52.1293 206.864L55.1102 207.202L56.1929 197.663L53.212 197.324ZM53.9248 208.502L59.8386 207.273L59.2285 204.336L53.3147 205.564L53.9248 208.502ZM72.3398 196.281L73.7724 196.726L73.7724 196.726L72.3398 196.281ZM75.4428 191.552L74.4779 190.403L74.4705 190.409L75.4428 191.552ZM88.4839 189.823L87.7979 191.158L87.8091 191.163L88.4839 189.823ZM93.4912 195.443L93.7963 196.911L95.5877 196.539L94.8715 194.855L93.4912 195.443ZM85.3451 197.135L84.0441 197.881L84.5854 198.824L85.6501 198.603L85.3451 197.135ZM80.0977 197.244L78.7234 196.643L78.7196 196.652L80.0977 197.244ZM81.5537 204.254L80.5089 205.331L80.5206 205.342L80.5326 205.353L81.5537 204.254ZM86.4107 202.265L86.1056 200.796L85.0224 201.021L84.9174 202.123L86.4107 202.265ZM94.5568 200.573L96.0568 200.565L96.0466 198.732L94.2518 199.104L94.5568 200.573ZM92.2013 207.722L93.3617 208.672L93.3617 208.672L92.2013 207.722ZM79.5507 211.33L79.1136 212.764L79.1229 212.767L79.5507 211.33ZM74.8208 208.227L75.9578 207.248L75.9578 207.248L74.8208 208.227ZM73.635 202.222C73.206 200.157 73.2723 198.337 73.7724 196.726L70.9073 195.837C70.2325 198.01 70.1831 200.355 70.6977 202.832L73.635 202.222ZM73.7724 196.726C74.2772 195.1 75.1545 193.767 76.4151 192.694L74.4705 190.409C72.7687 191.858 71.5773 193.678 70.9073 195.837L73.7724 196.726ZM76.4077 192.7C77.7023 191.612 79.3047 190.852 81.2594 190.446L80.6494 187.508C78.2699 188.003 76.1979 188.958 74.4779 190.403L76.4077 192.7ZM81.2594 190.446C83.7667 189.925 85.9194 190.192 87.7979 191.157L89.1698 188.49C86.5965 187.166 83.7295 186.869 80.6494 187.508L81.2594 190.446ZM87.8091 191.163C89.6664 192.099 91.1102 193.677 92.1109 196.03L94.8715 194.855C93.6368 191.953 91.7424 189.785 89.1587 188.484L87.8091 191.163ZM93.1862 193.974L85.04 195.666L85.6501 198.603L93.7963 196.911L93.1862 193.974ZM86.646 196.388C86.1581 195.538 85.5052 194.822 84.6392 194.391C83.7578 193.953 82.8013 193.884 81.8511 194.081L82.4612 197.019C82.8687 196.934 83.1225 196.988 83.3042 197.078C83.5011 197.176 83.7638 197.393 84.0441 197.881L86.646 196.388ZM81.8511 194.081C80.3939 194.384 79.3182 195.283 78.7234 196.643L81.4719 197.845C81.6897 197.347 81.9863 197.117 82.4612 197.019L81.8511 194.081ZM78.7196 196.652C78.1586 197.957 78.183 199.532 78.5305 201.205L81.4678 200.595C81.1754 199.187 81.2655 198.326 81.4758 197.836L78.7196 196.652ZM78.5305 201.205C78.8791 202.884 79.486 204.338 80.5089 205.331L82.5986 203.178C82.1886 202.78 81.7591 201.998 81.4678 200.595L78.5305 201.205ZM80.5326 205.353C81.6195 206.363 82.9644 206.76 84.4216 206.457L83.8115 203.52C83.3366 203.618 82.9729 203.526 82.5749 203.156L80.5326 205.353ZM84.4216 206.457C85.3775 206.259 86.237 205.816 86.8752 205.058C87.5043 204.312 87.8106 203.386 87.9039 202.407L84.9174 202.123C84.8651 202.672 84.7163 202.965 84.5807 203.126C84.4541 203.276 84.2394 203.431 83.8115 203.52L84.4216 206.457ZM86.7157 203.734L94.8619 202.042L94.2518 199.104L86.1056 200.796L86.7157 203.734ZM93.0568 200.581C93.0709 203.11 92.3767 205.14 91.0409 206.771L93.3617 208.672C95.1979 206.43 96.0741 203.695 96.0568 200.565L93.0568 200.581ZM91.0409 206.771C89.7023 208.405 87.8339 209.507 85.3266 210.028L85.9367 212.965C89.0168 212.325 91.5281 210.911 93.3617 208.672L91.0409 206.771ZM85.3266 210.028C83.3719 210.434 81.599 210.374 79.9784 209.892L79.1229 212.767C81.2761 213.408 83.5572 213.459 85.9367 212.965L85.3266 210.028ZM79.9877 209.895C78.404 209.412 77.0685 208.539 75.9578 207.248L73.6838 209.205C75.158 210.918 76.9757 212.113 79.1136 212.764L79.9877 209.895ZM75.9578 207.248C74.8593 205.972 74.0701 204.317 73.635 202.222L70.6977 202.832C71.2171 205.333 72.1974 207.478 73.6838 209.205L75.9578 207.248ZM115.824 184.472L114.91 185.662L114.92 185.669L114.93 185.676L115.824 184.472ZM122.131 203.629L122.436 205.098L123.905 204.793L123.6 203.324L122.131 203.629ZM114.455 205.224L112.987 205.529L113.292 206.997L114.76 206.692L114.455 205.224ZM110.418 190.701L109.525 191.907L109.536 191.915L109.547 191.923L110.418 190.701ZM105.091 191.808L106.376 192.582L106.383 192.57L106.39 192.558L105.091 191.808ZM107.171 206.737L107.476 208.205L108.944 207.9L108.639 206.432L107.171 206.737ZM99.4945 208.331L98.0259 208.636L98.3309 210.105L99.7996 209.8L99.4945 208.331ZM93.4751 179.35L93.1701 177.881L91.7014 178.186L92.0064 179.655L93.4751 179.35ZM101.151 177.755L102.62 177.45L102.315 175.982L100.846 176.287L101.151 177.755ZM103.258 187.899L101.789 188.204L102.775 192.951L104.642 188.476L103.258 187.899ZM105.503 184.94L106.454 186.101L106.464 186.093L105.503 184.94ZM109.647 184.631C111.783 184.188 113.485 184.568 114.91 185.662L116.737 183.282C114.533 181.589 111.914 181.096 109.037 181.694L109.647 184.631ZM114.93 185.676C116.394 186.763 117.459 188.511 118.003 191.128L120.94 190.518C120.291 187.391 118.924 184.905 116.718 183.267L114.93 185.676ZM118.003 191.128L120.663 203.934L123.6 203.324L120.94 190.518L118.003 191.128ZM121.826 202.161L114.15 203.755L114.76 206.692L122.436 205.098L121.826 202.161ZM115.924 204.919L113.475 193.13L110.538 193.74L112.987 205.529L115.924 204.919ZM113.475 193.13C113.162 191.623 112.479 190.329 111.288 189.48L109.547 191.923C109.954 192.213 110.331 192.741 110.538 193.74L113.475 193.13ZM111.31 189.496C110.119 188.614 108.72 188.378 107.261 188.681L107.871 191.618C108.605 191.466 109.107 191.598 109.525 191.907L111.31 189.496ZM107.261 188.681C105.773 188.99 104.545 189.756 103.793 191.057L106.39 192.558C106.64 192.126 107.061 191.787 107.871 191.618L107.261 188.681ZM103.806 191.034C103.052 192.287 102.941 193.746 103.254 195.253L106.191 194.643C105.983 193.644 106.118 193.01 106.376 192.582L103.806 191.034ZM103.254 195.253L105.702 207.042L108.639 206.432L106.191 194.643L103.254 195.253ZM106.866 205.268L99.1895 206.862L99.7996 209.8L107.476 208.205L106.866 205.268ZM100.963 208.026L94.9438 179.045L92.0064 179.655L98.0259 208.636L100.963 208.026ZM93.7801 180.818L101.456 179.224L100.846 176.287L93.1701 177.881L93.7801 180.818ZM99.6826 178.06L101.789 188.204L104.727 187.594L102.62 177.45L99.6826 178.06ZM104.642 188.476C105.013 187.588 105.605 186.797 106.454 186.101L104.553 183.78C103.354 184.763 102.448 185.944 101.874 187.321L104.642 188.476ZM106.464 186.093C107.295 185.4 108.34 184.903 109.647 184.631L109.037 181.694C107.315 182.052 105.802 182.739 104.543 183.788L106.464 186.093ZM130.424 200.763L130.005 202.204L130.014 202.206L130.424 200.763ZM125.537 197.693L126.651 196.688L126.651 196.688L125.537 197.693ZM123.056 185.748L121.64 185.254L121.637 185.262L121.634 185.27L123.056 185.748ZM126.355 180.977L125.405 179.817L125.397 179.823L126.355 180.977ZM138.143 178.529L137.725 179.969L137.734 179.972L138.143 178.529ZM143.069 181.591L141.955 182.596L141.961 182.602L141.967 182.608L143.069 181.591ZM145.55 193.536L144.13 193.052L144.128 193.058L145.55 193.536ZM142.251 198.307L141.301 197.146L142.251 198.307ZM137.658 192.52L136.364 191.762L136.363 191.764L137.658 192.52ZM136.235 185.666L135.347 186.875L135.358 186.883L135.369 186.891L136.235 185.666ZM132.371 193.618L131.461 194.81L131.461 194.81L132.371 193.618ZM136.317 199.437C134.334 199.849 132.515 199.798 130.833 199.32L130.014 202.206C132.211 202.83 134.524 202.874 136.927 202.374L136.317 199.437ZM130.842 199.323C129.199 198.845 127.811 197.974 126.651 196.688L124.423 198.697C125.953 200.394 127.822 201.569 130.005 202.204L130.842 199.323ZM126.651 196.688C125.513 195.426 124.705 193.786 124.273 191.705L121.336 192.315C121.858 194.829 122.872 196.978 124.423 198.697L126.651 196.688ZM124.273 191.705C123.847 189.653 123.936 187.84 124.478 186.226L121.634 185.27C120.897 187.462 120.818 189.824 121.336 192.315L124.273 191.705ZM124.473 186.242C125.05 184.587 125.993 183.227 127.313 182.132L125.397 179.823C123.651 181.271 122.394 183.091 121.64 185.254L124.473 186.242ZM127.305 182.138C128.658 181.03 130.306 180.259 132.289 179.847L131.679 176.91C129.276 177.409 127.171 178.37 125.405 179.817L127.305 182.138ZM132.289 179.847C134.273 179.435 136.075 179.49 137.725 179.969L138.562 177.088C136.386 176.456 134.082 176.41 131.679 176.91L132.289 179.847ZM137.734 179.972C139.403 180.446 140.8 181.315 141.955 182.596L144.183 180.587C142.649 178.885 140.762 177.713 138.553 177.086L137.734 179.972ZM141.967 182.608C143.127 183.866 143.939 185.486 144.364 187.532L147.302 186.922C146.783 184.424 145.753 182.287 144.172 180.574L141.967 182.608ZM144.364 187.532C144.789 189.577 144.693 191.404 144.13 193.052L146.97 194.021C147.728 191.799 147.82 189.42 147.302 186.922L144.364 187.532ZM144.128 193.058C143.579 194.693 142.643 196.047 141.301 197.146L143.202 199.467C144.978 198.012 146.242 196.186 146.972 194.014L144.128 193.058ZM141.301 197.146C139.949 198.254 138.3 199.025 136.317 199.437L136.927 202.374C139.33 201.875 141.435 200.914 143.202 199.467L141.301 197.146ZM135.544 195.716C137.024 195.409 138.194 194.579 138.954 193.275L136.363 191.764C136.039 192.32 135.596 192.642 134.934 192.779L135.544 195.716ZM138.953 193.278C139.763 191.895 139.865 190.259 139.508 188.54L136.571 189.151C136.832 190.409 136.68 191.222 136.364 191.762L138.953 193.278ZM139.508 188.54C139.152 186.826 138.408 185.365 137.101 184.441L135.369 186.891C135.85 187.23 136.308 187.889 136.571 189.151L139.508 188.54ZM137.123 184.457C135.916 183.571 134.527 183.263 133.062 183.567L133.672 186.505C134.296 186.375 134.819 186.487 135.347 186.875L137.123 184.457ZM133.062 183.567C131.597 183.872 130.446 184.707 129.691 186L132.283 187.512C132.613 186.946 133.048 186.634 133.672 186.505L133.062 183.567ZM129.691 186C128.898 187.361 128.815 188.986 129.169 190.688L132.106 190.078C131.841 188.803 131.992 188.011 132.283 187.512L129.691 186ZM129.169 190.688C129.523 192.396 130.226 193.867 131.461 194.81L133.281 192.425C132.834 192.084 132.38 191.398 132.106 190.078L129.169 190.688ZM131.461 194.81C132.661 195.726 134.064 196.024 135.544 195.716L134.934 192.779C134.274 192.916 133.764 192.794 133.281 192.425L131.461 194.81ZM147.876 180.593L149.309 181.037L149.309 181.037L147.876 180.593ZM150.979 175.863L150.014 174.714L150.007 174.721L150.979 175.863ZM164.02 174.135L163.334 175.469L163.345 175.474L164.02 174.135ZM169.028 179.754L169.333 181.222L171.124 180.85L170.408 179.167L169.028 179.754ZM160.881 181.446L159.581 182.192L160.122 183.136L161.186 182.914L160.881 181.446ZM155.634 181.555L154.26 180.954L154.256 180.963L155.634 181.555ZM157.09 188.566L156.045 189.642L156.057 189.653L156.069 189.664L157.09 188.566ZM161.947 186.576L161.642 185.108L160.559 185.333L160.454 186.434L161.947 186.576ZM170.093 184.884L171.593 184.876L171.583 183.043L169.788 183.416L170.093 184.884ZM167.738 192.033L168.898 192.983L168.898 192.983L167.738 192.033ZM155.087 195.641L154.65 197.076L154.659 197.078L155.087 195.641ZM150.357 192.538L151.494 191.559L151.494 191.559L150.357 192.538ZM149.171 186.533C148.742 184.468 148.809 182.648 149.309 181.037L146.444 180.148C145.769 182.322 145.719 184.666 146.234 187.143L149.171 186.533ZM149.309 181.037C149.814 179.411 150.691 178.078 151.951 177.005L150.007 174.721C148.305 176.169 147.114 177.99 146.444 180.148L149.309 181.037ZM151.944 177.011C153.239 175.924 154.841 175.163 156.796 174.757L156.186 171.82C153.806 172.314 151.734 173.269 150.014 174.714L151.944 177.011ZM156.796 174.757C159.303 174.236 161.456 174.503 163.334 175.469L164.706 172.801C162.133 171.477 159.266 171.18 156.186 171.82L156.796 174.757ZM163.345 175.474C165.203 176.41 166.647 177.988 167.647 180.341L170.408 179.167C169.173 176.264 167.279 174.096 164.695 172.795L163.345 175.474ZM168.723 178.285L160.576 179.977L161.186 182.914L169.333 181.222L168.723 178.285ZM162.182 180.699C161.694 179.849 161.042 179.133 160.176 178.702C159.294 178.265 158.338 178.195 157.388 178.392L157.998 181.33C158.405 181.245 158.659 181.299 158.841 181.389C159.037 181.487 159.3 181.704 159.581 182.192L162.182 180.699ZM157.388 178.392C155.93 178.695 154.855 179.594 154.26 180.954L157.008 182.156C157.226 181.658 157.523 181.428 157.998 181.33L157.388 178.392ZM154.256 180.963C153.695 182.268 153.719 183.844 154.067 185.517L157.004 184.907C156.712 183.499 156.802 182.637 157.012 182.147L154.256 180.963ZM154.067 185.517C154.415 187.195 155.022 188.649 156.045 189.642L158.135 187.489C157.725 187.091 157.296 186.309 157.004 184.907L154.067 185.517ZM156.069 189.664C157.156 190.674 158.501 191.071 159.958 190.768L159.348 187.831C158.873 187.93 158.509 187.837 158.111 187.467L156.069 189.664ZM159.958 190.768C160.914 190.57 161.773 190.127 162.412 189.37C163.041 188.623 163.347 187.698 163.44 186.719L160.454 186.434C160.401 186.983 160.253 187.276 160.117 187.437C159.991 187.587 159.776 187.742 159.348 187.831L159.958 190.768ZM162.252 188.045L170.398 186.353L169.788 183.416L161.642 185.108L162.252 188.045ZM168.593 184.893C168.607 187.421 167.913 189.451 166.577 191.082L168.898 192.983C170.734 190.741 171.611 188.006 171.593 184.876L168.593 184.893ZM166.577 191.082C165.239 192.716 163.37 193.818 160.863 194.339L161.473 197.276C164.553 196.636 167.065 195.222 168.898 192.983L166.577 191.082ZM160.863 194.339C158.908 194.745 157.135 194.685 155.515 194.203L154.659 197.078C156.812 197.719 159.094 197.77 161.473 197.276L160.863 194.339ZM155.524 194.206C153.94 193.723 152.605 192.85 151.494 191.559L149.22 193.516C150.694 195.229 152.512 196.424 154.65 197.076L155.524 194.206ZM151.494 191.559C150.396 190.283 149.606 188.628 149.171 186.533L146.234 187.143C146.753 189.644 147.734 191.789 149.22 193.516L151.494 191.559ZM179.111 190.651L178.693 192.091L178.702 192.094L179.111 190.651ZM174.225 187.58L175.339 186.576L175.339 186.576L174.225 187.58ZM171.744 175.635L170.327 175.141L170.325 175.149L170.322 175.158L171.744 175.635ZM175.042 170.865L174.092 169.704L174.085 169.71L175.042 170.865ZM186.831 168.416L186.412 169.857L186.421 169.859L186.831 168.416ZM191.757 171.479L190.643 172.483L190.648 172.49L190.654 172.496L191.757 171.479ZM194.238 183.424L192.818 182.939L192.816 182.946L194.238 183.424ZM190.939 188.194L189.988 187.034L190.939 188.194ZM186.346 182.407L185.052 181.649L185.05 181.652L186.346 182.407ZM184.922 175.554L184.035 176.763L184.046 176.771L184.057 176.779L184.922 175.554ZM181.059 183.506L180.149 184.698L180.149 184.698L181.059 183.506ZM185.005 189.325C183.021 189.737 181.202 189.685 179.521 189.208L178.702 192.094C180.898 192.718 183.211 192.761 185.615 192.262L185.005 189.325ZM179.53 189.211C177.887 188.733 176.498 187.862 175.339 186.576L173.111 188.585C174.641 190.281 176.51 191.457 178.693 192.091L179.53 189.211ZM175.339 186.576C174.2 185.314 173.393 183.674 172.961 181.592L170.023 182.202C170.545 184.716 171.56 186.865 173.111 188.585L175.339 186.576ZM172.961 181.592C172.534 179.54 172.623 177.727 173.166 176.113L170.322 175.158C169.585 177.35 169.506 179.712 170.023 182.202L172.961 181.592ZM173.16 176.129C173.737 174.475 174.68 173.114 176 172.019L174.085 169.71C172.338 171.159 171.082 172.979 170.327 175.141L173.16 176.129ZM175.993 172.025C177.345 170.918 178.993 170.146 180.977 169.734L180.367 166.797C177.963 167.296 175.859 168.258 174.092 169.704L175.993 172.025ZM180.977 169.734C182.96 169.323 184.763 169.377 186.412 169.857L187.249 166.976C185.073 166.344 182.769 166.298 180.367 166.797L180.977 169.734ZM186.421 169.859C188.09 170.333 189.488 171.203 190.643 172.483L192.871 170.474C191.336 168.773 189.45 167.601 187.241 166.973L186.421 169.859ZM190.654 172.496C191.815 173.754 192.627 175.374 193.052 177.419L195.989 176.809C195.47 174.312 194.44 172.175 192.859 170.462L190.654 172.496ZM193.052 177.419C193.476 179.464 193.38 181.291 192.818 182.939L195.657 183.908C196.415 181.687 196.508 179.308 195.989 176.809L193.052 177.419ZM192.816 182.946C192.266 184.581 191.331 185.935 189.988 187.034L191.889 189.355C193.666 187.9 194.93 186.073 195.659 183.902L192.816 182.946ZM189.988 187.034C188.636 188.141 186.988 188.913 185.005 189.325L185.615 192.262C188.018 191.763 190.122 190.802 191.889 189.355L189.988 187.034ZM184.232 185.604C185.711 185.297 186.881 184.467 187.642 183.163L185.05 181.652C184.726 182.207 184.283 182.529 183.622 182.667L184.232 185.604ZM187.64 183.165C188.45 181.783 188.552 180.146 188.195 178.428L185.258 179.038C185.519 180.297 185.368 181.11 185.052 181.649L187.64 183.165ZM188.195 178.428C187.839 176.714 187.095 175.252 185.788 174.329L184.057 176.779C184.537 177.118 184.996 177.776 185.258 179.038L188.195 178.428ZM185.81 174.344C184.603 173.459 183.214 173.151 181.749 173.455L182.359 176.392C182.983 176.263 183.506 176.375 184.035 176.763L185.81 174.344ZM181.749 173.455C180.284 173.759 179.133 174.595 178.379 175.888L180.97 177.399C181.3 176.833 181.736 176.522 182.359 176.392L181.749 173.455ZM178.379 175.888C177.585 177.248 177.503 178.874 177.856 180.576L180.793 179.966C180.529 178.691 180.679 177.898 180.97 177.399L178.379 175.888ZM177.856 180.576C178.211 182.284 178.913 183.755 180.149 184.698L181.969 182.313C181.521 181.972 181.068 181.286 180.793 179.966L177.856 180.576ZM180.149 184.698C181.349 185.614 182.751 185.912 184.232 185.604L183.622 182.667C182.961 182.804 182.452 182.682 181.969 182.313L180.149 184.698ZM201.586 156.895L203.055 156.59L202.75 155.121L201.281 155.426L201.586 156.895ZM207.605 185.877L207.91 187.345L209.379 187.04L209.074 185.572L207.605 185.877ZM199.929 187.471L198.461 187.776L198.766 189.245L200.234 188.94L199.929 187.471ZM193.91 158.489L193.605 157.021L192.136 157.326L192.441 158.794L193.91 158.489ZM200.117 157.2L206.137 186.182L209.074 185.572L203.055 156.59L200.117 157.2ZM207.3 184.408L199.624 186.002L200.234 188.94L207.91 187.345L207.3 184.408ZM201.398 187.166L195.378 158.184L192.441 158.794L198.461 187.776L201.398 187.166ZM194.215 159.958L201.891 158.364L201.281 155.426L193.605 157.021L194.215 159.958ZM208.415 168.019L206.963 167.644L206.961 167.653L206.959 167.662L208.415 168.019ZM210.97 163.403L209.924 162.327L209.915 162.336L210.97 163.403ZM219.567 161.127L219.129 162.562L219.129 162.562L219.567 161.127ZM222.617 163.026L221.507 164.035L225.203 168.103L224.086 162.721L222.617 163.026ZM221.982 159.972L221.677 158.503L220.209 158.808L220.514 160.277L221.982 159.972ZM229.659 158.377L231.127 158.072L230.822 156.604L229.354 156.909L229.659 158.377ZM234.222 180.348L234.527 181.817L235.996 181.512L235.691 180.043L234.222 180.348ZM226.546 181.943L225.077 182.248L225.382 183.716L226.851 183.411L226.546 181.943ZM225.911 178.888L227.38 178.583L226.262 173.201L224.491 178.405L225.911 178.888ZM223.831 181.853L222.869 180.702L222.864 180.707L222.858 180.711L223.831 181.853ZM215.078 183.181L214.535 184.579L214.547 184.583L215.078 183.181ZM210.896 179.964L209.697 180.864L209.705 180.875L209.714 180.886L210.896 179.964ZM222.394 167.853L221.53 169.079L221.54 169.086L221.55 169.093L222.394 167.853ZM216.715 169.032L217.983 169.834L217.989 169.823L217.996 169.813L216.715 169.032ZM218.106 175.729L217.223 176.941L217.232 176.948L217.242 176.955L218.106 175.729ZM223.785 174.55L222.517 173.748L222.51 173.758L222.504 173.769L223.785 174.55ZM209.906 173.919C209.471 171.821 209.479 169.983 209.872 168.376L206.959 167.662C206.439 169.785 206.461 172.083 206.969 174.529L209.906 173.919ZM209.868 168.394C210.292 166.751 211.021 165.462 212.025 164.469L209.915 162.336C208.479 163.756 207.505 165.545 206.963 167.644L209.868 168.394ZM212.016 164.478C213.052 163.471 214.29 162.815 215.768 162.508L215.158 159.571C213.138 159.991 211.381 160.911 209.924 162.327L212.016 164.478ZM215.768 162.508C217.088 162.234 218.195 162.276 219.129 162.562L220.005 159.692C218.497 159.232 216.868 159.216 215.158 159.571L215.768 162.508ZM219.129 162.562C220.108 162.86 220.887 163.353 221.507 164.035L223.727 162.018C222.723 160.913 221.469 160.139 220.005 159.692L219.129 162.562ZM224.086 162.721L223.451 159.667L220.514 160.277L221.148 163.331L224.086 162.721ZM222.288 161.44L229.964 159.846L229.354 156.909L221.677 158.503L222.288 161.44ZM228.19 158.682L232.753 180.653L235.691 180.043L231.127 158.072L228.19 158.682ZM233.917 178.88L226.241 180.474L226.851 183.411L234.527 181.817L233.917 178.88ZM228.015 181.638L227.38 178.583L224.443 179.193L225.077 182.248L228.015 181.638ZM224.491 178.405C224.198 179.267 223.673 180.03 222.869 180.702L224.793 183.004C225.985 182.008 226.847 180.795 227.331 179.371L224.491 178.405ZM222.858 180.711C222.111 181.348 221.124 181.823 219.836 182.09L220.446 185.028C222.134 184.677 223.607 184.015 224.804 182.995L222.858 180.711ZM219.836 182.09C218.357 182.397 216.96 182.289 215.609 181.778L214.547 184.583C216.447 185.303 218.425 185.447 220.446 185.028L219.836 182.09ZM215.621 181.782C214.304 181.271 213.122 180.379 212.079 179.041L209.714 180.886C211.047 182.596 212.652 183.848 214.535 184.579L215.621 181.782ZM212.096 179.063C211.084 177.715 210.342 176.016 209.906 173.919L206.969 174.529C207.477 176.975 208.374 179.102 209.697 180.864L212.096 179.063ZM225.729 170.633C225.378 168.942 224.586 167.529 223.237 166.612L221.55 169.093C222.104 169.469 222.557 170.113 222.791 171.243L225.729 170.633ZM223.258 166.627C221.988 165.732 220.54 165.439 219.017 165.756L219.627 168.693C220.349 168.543 220.949 168.669 221.53 169.079L223.258 166.627ZM219.017 165.756C217.478 166.075 216.248 166.916 215.434 168.252L217.996 169.813C218.36 169.215 218.868 168.851 219.627 168.693L219.017 165.756ZM215.447 168.231C214.585 169.594 214.451 171.21 214.802 172.902L217.739 172.292C217.494 171.112 217.656 170.351 217.983 169.834L215.447 168.231ZM214.802 172.902C215.151 174.581 215.921 175.993 217.223 176.941L218.989 174.517C218.43 174.109 217.976 173.432 217.739 172.292L214.802 172.902ZM217.242 176.955C218.52 177.856 219.984 178.138 221.522 177.818L220.912 174.881C220.153 175.038 219.542 174.906 218.97 174.503L217.242 176.955ZM221.522 177.818C223.045 177.502 224.257 176.657 225.066 175.33L222.504 173.769C222.134 174.376 221.634 174.731 220.912 174.881L221.522 177.818ZM225.052 175.352C225.929 173.967 226.083 172.34 225.729 170.633L222.791 171.243C223.033 172.407 222.871 173.188 222.517 173.748L225.052 175.352ZM250.201 170.207L251.67 169.902L251.365 168.433L249.896 168.738L250.201 170.207ZM251.56 176.747L251.865 178.216L253.333 177.911L253.028 176.442L251.56 176.747ZM236.573 163.6L238.041 163.295L237.736 161.827L236.268 162.132L236.573 163.6ZM233.87 164.162L232.402 164.467L232.707 165.935L234.175 165.63L233.87 164.162ZM232.545 157.778L232.24 156.309L230.771 156.614L231.076 158.083L232.545 157.778ZM235.247 157.217L235.552 158.685L237.021 158.38L236.716 156.912L235.247 157.217ZM234.141 151.89L233.836 150.422L232.367 150.727L232.672 152.195L234.141 151.89ZM241.856 150.288L243.325 149.983L243.02 148.514L241.551 148.819L241.856 150.288ZM242.962 155.614L241.494 155.919L241.799 157.388L243.267 157.083L242.962 155.614ZM246.957 154.784L248.426 154.479L248.121 153.011L246.652 153.316L246.957 154.784ZM248.283 161.168L248.588 162.637L250.057 162.332L249.752 160.863L248.283 161.168ZM244.288 161.998L243.983 160.529L242.514 160.834L242.819 162.303L244.288 161.998ZM246.477 170.572L245.655 171.826L245.685 171.846L245.715 171.864L246.477 170.572ZM248.732 170.512L250.091 177.052L253.028 176.442L251.67 169.902L248.732 170.512ZM251.254 175.279L247.926 175.97L248.536 178.907L251.865 178.216L251.254 175.279ZM247.926 175.97C245.342 176.507 243.541 176.214 242.299 175.407C241.06 174.602 240.076 173.091 239.546 170.541L236.609 171.151C237.234 174.161 238.52 176.53 240.665 177.923C242.807 179.314 245.506 179.537 248.536 178.907L247.926 175.97ZM239.546 170.541L238.041 163.295L235.104 163.905L236.609 171.151L239.546 170.541ZM236.268 162.132L233.565 162.693L234.175 165.63L236.878 165.069L236.268 162.132ZM235.339 163.857L234.013 157.473L231.076 158.083L232.402 164.467L235.339 163.857ZM232.85 159.247L235.552 158.685L234.942 155.748L232.24 156.309L232.85 159.247ZM236.716 156.912L235.609 151.585L232.672 152.195L233.778 157.522L236.716 156.912ZM234.446 153.359L242.161 151.756L241.551 148.819L233.836 150.422L234.446 153.359ZM240.387 150.593L241.494 155.919L244.431 155.309L243.325 149.983L240.387 150.593ZM243.267 157.083L247.262 156.253L246.652 153.316L242.657 154.145L243.267 157.083ZM245.488 155.089L246.814 161.473L249.752 160.863L248.426 154.479L245.488 155.089ZM247.978 159.7L243.983 160.529L244.593 163.467L248.588 162.637L247.978 159.7ZM242.819 162.303L244.349 169.666L247.286 169.056L245.757 161.693L242.819 162.303ZM244.349 169.666C244.506 170.423 244.85 171.298 245.655 171.826L247.3 169.318C247.39 169.376 247.411 169.428 247.393 169.396C247.373 169.359 247.328 169.257 247.286 169.056L244.349 169.666ZM245.715 171.864C246.536 172.348 247.487 172.303 248.274 172.139L247.664 169.202C247.428 169.251 247.282 169.256 247.206 169.251C247.132 169.246 247.163 169.235 247.24 169.28L245.715 171.864ZM248.274 172.139L250.506 171.676L249.896 168.738L247.664 169.202L248.274 172.139ZM251.519 159.066L250.067 158.691L250.064 158.7L250.062 158.709L251.519 159.066ZM254.074 154.45L253.028 153.375L253.019 153.384L254.074 154.45ZM262.67 152.174L262.233 153.609L262.233 153.609L262.67 152.174ZM265.72 154.074L264.61 155.083L268.307 159.15L267.189 153.769L265.72 154.074ZM265.086 151.019L264.781 149.55L263.312 149.855L263.617 151.324L265.086 151.019ZM272.762 149.425L274.231 149.12L273.926 147.651L272.457 147.956L272.762 149.425ZM277.326 171.396L277.631 172.864L279.099 172.559L278.794 171.091L277.326 171.396ZM269.649 172.99L268.181 173.295L268.486 174.764L269.954 174.459L269.649 172.99ZM269.015 169.935L270.484 169.63L269.366 164.249L267.595 169.452L269.015 169.935ZM266.934 172.9L265.973 171.749L265.967 171.754L265.961 171.759L266.934 172.9ZM258.182 174.228L257.639 175.626L257.65 175.631L258.182 174.228ZM254 171.011L252.8 171.912L252.809 171.923L252.817 171.934L254 171.011ZM265.497 158.9L264.633 160.126L264.644 160.133L264.654 160.141L265.497 158.9ZM259.818 160.08L261.086 160.881L261.093 160.871L261.099 160.86L259.818 160.08ZM261.209 166.777L260.326 167.989L260.336 167.996L260.345 168.003L261.209 166.777ZM266.888 165.597L265.621 164.795L265.614 164.806L265.607 164.817L266.888 165.597ZM253.01 164.966C252.574 162.869 252.582 161.031 252.976 159.423L250.062 158.709C249.542 160.832 249.565 163.131 250.073 165.576L253.01 164.966ZM252.971 159.441C253.395 157.799 254.124 156.51 255.128 155.517L253.019 153.384C251.583 154.804 250.609 156.592 250.067 158.691L252.971 159.441ZM255.119 155.525C256.155 154.518 257.394 153.863 258.872 153.556L258.262 150.618C256.241 151.038 254.484 151.958 253.028 153.375L255.119 155.525ZM258.872 153.556C260.192 153.282 261.298 153.324 262.233 153.609L263.108 150.74C261.6 150.279 259.971 150.263 258.262 150.618L258.872 153.556ZM262.233 153.609C263.211 153.908 263.991 154.401 264.61 155.083L266.831 153.065C265.826 151.96 264.573 151.187 263.108 150.74L262.233 153.609ZM267.189 153.769L266.555 150.714L263.617 151.324L264.252 154.379L267.189 153.769ZM265.391 152.488L273.067 150.893L272.457 147.956L264.781 149.55L265.391 152.488ZM271.294 149.73L275.857 171.701L278.794 171.091L274.231 149.12L271.294 149.73ZM277.021 169.927L269.344 171.521L269.954 174.459L277.631 172.864L277.021 169.927ZM271.118 172.685L270.484 169.63L267.546 170.24L268.181 173.295L271.118 172.685ZM267.595 169.452C267.301 170.315 266.776 171.078 265.973 171.749L267.896 174.052C269.088 173.056 269.95 171.842 270.435 170.419L267.595 169.452ZM265.961 171.759C265.215 172.395 264.228 172.87 262.939 173.138L263.549 176.075C265.237 175.725 266.71 175.062 267.907 174.042L265.961 171.759ZM262.939 173.138C261.461 173.445 260.064 173.337 258.713 172.825L257.65 175.631C259.551 176.35 261.529 176.495 263.549 176.075L262.939 173.138ZM258.724 172.83C257.408 172.319 256.226 171.426 255.183 170.089L252.817 171.934C254.15 173.643 255.756 174.896 257.639 175.626L258.724 172.83ZM255.2 170.111C254.188 168.763 253.445 167.063 253.01 164.966L250.073 165.576C250.581 168.023 251.478 170.15 252.8 171.912L255.2 170.111ZM268.832 161.68C268.481 159.99 267.69 158.577 266.341 157.66L264.654 160.141C265.207 160.517 265.66 161.16 265.895 162.29L268.832 161.68ZM266.361 157.674C265.092 156.779 263.643 156.487 262.12 156.803L262.73 159.74C263.453 159.59 264.052 159.717 264.633 160.126L266.361 157.674ZM262.12 156.803C260.582 157.123 259.351 157.963 258.538 159.299L261.099 160.86C261.464 160.262 261.971 159.898 262.73 159.74L262.12 156.803ZM258.551 159.278C257.689 160.642 257.554 162.258 257.905 163.949L260.843 163.339C260.598 162.159 260.759 161.399 261.086 160.881L258.551 159.278ZM257.905 163.949C258.254 165.629 259.024 167.04 260.326 167.989L262.093 165.564C261.533 165.157 261.08 164.48 260.843 163.339L257.905 163.949ZM260.345 168.003C261.624 168.904 263.087 169.185 264.626 168.866L264.016 165.928C263.256 166.086 262.646 165.954 262.074 165.551L260.345 168.003ZM264.626 168.866C266.149 168.549 267.361 167.704 268.169 166.378L265.607 164.817C265.237 165.424 264.738 165.778 264.016 165.928L264.626 168.866ZM268.156 166.399C269.032 165.015 269.187 163.388 268.832 161.68L265.895 162.29C266.137 163.454 265.975 164.236 265.621 164.795L268.156 166.399ZM278.138 153.537L276.686 153.162L276.684 153.171L276.681 153.18L278.138 153.537ZM280.732 148.913L279.686 147.838L279.686 147.838L280.732 148.913ZM289.172 146.67L288.735 148.105L288.755 148.111L288.775 148.116L289.172 146.67ZM292.293 148.514L291.202 149.543L294.839 153.398L293.761 148.209L292.293 148.514ZM290.21 138.488L289.905 137.019L288.436 137.324L288.742 138.793L290.21 138.488ZM297.926 136.885L299.394 136.58L299.089 135.112L297.62 135.417L297.926 136.885ZM303.945 165.867L304.25 167.336L305.719 167.031L305.414 165.562L303.945 165.867ZM296.23 167.469L294.761 167.774L295.066 169.243L296.535 168.938L296.23 167.469ZM295.595 164.415L297.064 164.11L295.946 158.728L294.175 163.931L295.595 164.415ZM293.554 167.372L292.581 166.23L293.554 167.372ZM284.801 168.699L284.258 170.098L284.27 170.102L284.801 168.699ZM280.619 165.482L279.42 166.383L279.428 166.394L279.436 166.405L280.619 165.482ZM292.117 153.371L291.253 154.597L291.263 154.605L291.273 154.612L292.117 153.371ZM286.438 154.551L287.706 155.352L287.712 155.342L287.719 155.331L286.438 154.551ZM287.829 161.248L286.945 162.46L286.955 162.467L286.965 162.474L287.829 161.248ZM293.508 160.068L292.24 159.266L292.233 159.277L292.227 159.288L293.508 160.068ZM279.629 159.437C279.194 157.34 279.201 155.502 279.595 153.894L276.681 153.18C276.161 155.303 276.184 157.602 276.692 160.047L279.629 159.437ZM279.591 153.912C280.013 152.277 280.75 150.988 281.778 149.989L279.686 147.838C278.222 149.263 277.23 151.056 276.686 153.162L279.591 153.912ZM281.778 149.989C282.814 148.981 284.052 148.326 285.531 148.019L284.921 145.081C282.9 145.501 281.143 146.421 279.686 147.838L281.778 149.989ZM285.531 148.019C286.726 147.77 287.783 147.814 288.735 148.105L289.61 145.235C288.119 144.78 286.545 144.744 284.921 145.081L285.531 148.019ZM288.775 148.116C289.767 148.389 290.563 148.866 291.202 149.543L293.384 147.484C292.346 146.385 291.062 145.633 289.57 145.224L288.775 148.116ZM293.761 148.209L291.679 138.183L288.742 138.793L290.824 148.819L293.761 148.209ZM290.515 139.957L298.231 138.354L297.62 135.417L289.905 137.019L290.515 139.957ZM296.457 137.191L302.476 166.172L305.414 165.562L299.394 136.58L296.457 137.191ZM303.64 164.398L295.925 166.001L296.535 168.938L304.25 167.336L303.64 164.398ZM297.698 167.164L297.064 164.11L294.126 164.72L294.761 167.774L297.698 167.164ZM294.175 163.931C293.878 164.804 293.359 165.566 292.581 166.23L294.527 168.513C295.692 167.52 296.534 166.312 297.015 164.898L294.175 163.931ZM292.581 166.23C291.834 166.866 290.847 167.341 289.559 167.609L290.169 170.546C291.857 170.196 293.33 169.533 294.527 168.513L292.581 166.23ZM289.559 167.609C288.08 167.916 286.683 167.808 285.332 167.296L284.27 170.102C286.17 170.822 288.148 170.966 290.169 170.546L289.559 167.609ZM285.344 167.301C284.027 166.79 282.845 165.898 281.802 164.56L279.436 166.405C280.769 168.114 282.375 169.367 284.258 170.098L285.344 167.301ZM281.819 164.582C280.807 163.234 280.065 161.534 279.629 159.437L276.692 160.047C277.2 162.494 278.097 164.621 279.42 166.383L281.819 164.582ZM295.452 156.151C295.101 154.461 294.309 153.048 292.96 152.131L291.273 154.612C291.827 154.988 292.28 155.632 292.514 156.761L295.452 156.151ZM292.981 152.145C291.711 151.25 290.263 150.958 288.74 151.274L289.35 154.211C290.072 154.061 290.672 154.188 291.253 154.597L292.981 152.145ZM288.74 151.274C287.201 151.594 285.971 152.435 285.157 153.77L287.719 155.331C288.083 154.734 288.591 154.369 289.35 154.211L288.74 151.274ZM285.17 153.749C284.308 155.113 284.173 156.729 284.525 158.421L287.462 157.811C287.217 156.63 287.379 155.87 287.706 155.352L285.17 153.749ZM284.525 158.421C284.874 160.1 285.644 161.511 286.945 162.46L288.712 160.036C288.153 159.628 287.699 158.951 287.462 157.811L284.525 158.421ZM286.965 162.474C288.243 163.375 289.706 163.656 291.245 163.337L290.635 160.399C289.876 160.557 289.265 160.425 288.693 160.022L286.965 162.474ZM291.245 163.337C292.768 163.02 293.98 162.175 294.789 160.849L292.227 159.288C291.857 159.895 291.357 160.249 290.635 160.399L291.245 163.337ZM294.775 160.87C295.651 159.486 295.806 157.859 295.452 156.151L292.514 156.761C292.756 157.925 292.594 158.707 292.24 159.266L294.775 160.87ZM312.399 162.967L311.981 164.408L311.99 164.41L312.399 162.967ZM307.513 159.897L308.627 158.892L308.627 158.892L307.513 159.897ZM305.032 147.952L303.616 147.458L303.613 147.466L303.61 147.474L305.032 147.952ZM308.331 143.181L307.38 142.021L307.373 142.026L308.331 143.181ZM320.119 140.733L319.701 142.173L319.709 142.176L320.119 140.733ZM325.045 143.795L323.931 144.799L323.937 144.806L323.942 144.812L325.045 143.795ZM327.526 155.74L326.106 155.255L326.104 155.262L327.526 155.74ZM324.227 160.511L323.277 159.35L324.227 160.511ZM319.634 154.724L318.34 153.966L318.338 153.968L319.634 154.724ZM318.211 147.87L317.323 149.079L317.334 149.087L317.345 149.095L318.211 147.87ZM314.347 155.822L313.437 157.014L313.437 157.014L314.347 155.822ZM318.293 161.641C316.31 162.053 314.491 162.001 312.809 161.524L311.99 164.41C314.187 165.034 316.5 165.077 318.903 164.578L318.293 161.641ZM312.818 161.527C311.175 161.049 309.786 160.178 308.627 158.892L306.399 160.901C307.929 162.598 309.798 163.773 311.981 164.408L312.818 161.527ZM308.627 158.892C307.488 157.63 306.681 155.99 306.249 153.909L303.311 154.519C303.834 157.032 304.848 159.181 306.399 160.901L308.627 158.892ZM306.249 153.909C305.823 151.857 305.911 150.043 306.454 148.429L303.61 147.474C302.873 149.666 302.794 152.028 303.311 154.519L306.249 153.909ZM306.448 148.446C307.025 146.791 307.968 145.43 309.288 144.336L307.373 142.026C305.626 143.475 304.37 145.295 303.616 147.458L306.448 148.446ZM309.281 144.342C310.633 143.234 312.282 142.463 314.265 142.051L313.655 139.113C311.252 139.613 309.147 140.574 307.38 142.021L309.281 144.342ZM314.265 142.051C316.248 141.639 318.051 141.694 319.701 142.173L320.538 139.292C318.361 138.66 316.058 138.614 313.655 139.113L314.265 142.051ZM319.709 142.176C321.378 142.649 322.776 143.519 323.931 144.799L326.159 142.79C324.624 141.089 322.738 139.917 320.529 139.29L319.709 142.176ZM323.942 144.812C325.103 146.07 325.915 147.69 326.34 149.736L329.277 149.126C328.759 146.628 327.728 144.491 326.147 142.778L323.942 144.812ZM326.34 149.736C326.765 151.781 326.669 153.608 326.106 155.255L328.945 156.225C329.704 154.003 329.796 151.624 329.277 149.126L326.34 149.736ZM326.104 155.262C325.555 156.897 324.619 158.251 323.277 159.35L325.177 161.671C326.954 160.216 328.218 158.39 328.948 156.218L326.104 155.262ZM323.277 159.35C321.924 160.458 320.276 161.229 318.293 161.641L318.903 164.578C321.306 164.079 323.411 163.118 325.177 161.671L323.277 159.35ZM317.52 157.92C318.999 157.613 320.17 156.783 320.93 155.479L318.338 153.968C318.014 154.524 317.572 154.846 316.91 154.983L317.52 157.92ZM320.929 155.482C321.738 154.099 321.84 152.462 321.484 150.744L318.546 151.354C318.808 152.613 318.656 153.426 318.34 153.966L320.929 155.482ZM321.484 150.744C321.128 149.03 320.384 147.568 319.076 146.645L317.345 149.095C317.825 149.434 318.284 150.092 318.546 151.354L321.484 150.744ZM319.098 146.661C317.891 145.775 316.503 145.467 315.038 145.771L315.648 148.709C316.271 148.579 316.795 148.691 317.323 149.079L319.098 146.661ZM315.038 145.771C313.573 146.076 312.421 146.911 311.667 148.204L314.258 149.716C314.589 149.149 315.024 148.838 315.648 148.709L315.038 145.771ZM311.667 148.204C310.873 149.565 310.791 151.19 311.144 152.892L314.082 152.282C313.817 151.007 313.967 150.214 314.258 149.716L311.667 148.204ZM311.144 152.892C311.499 154.6 312.201 156.071 313.437 157.014L315.257 154.629C314.81 154.288 314.356 153.602 314.082 152.282L311.144 152.892ZM313.437 157.014C314.637 157.93 316.04 158.228 317.52 157.92L316.91 154.983C316.249 155.12 315.74 154.998 315.257 154.629L313.437 157.014Z" fill="white"/>
<path d="M369 25C369 38.8071 380 50 191 50C78.8861 50 -18.5 50 3.99989 25C3.99989 11.1929 -13.5001 6.5 191 0C382 0 369 11.1929 369 25Z" fill="#F14134"/>
<path d="M283 410.5C292.5 438 133.5 429.5 133.5 429.5C78.5 427 11 414 15 390.5C15 363.162 66.2634 341 129.5 341C192.737 341 283 383.162 283 410.5Z" fill="#954733"/>
</svg>
