<svg width="160" height="547" viewBox="0 0 160 547" fill="none" xmlns="http://www.w3.org/2000/svg">
<path d="M8.87492 362.688L8.87496 214.375L8.87496 131.25C15.7597 97.1325 31.4258 65.4013 54.3256 39.1907L55.6935 37.625L55.6935 21L104.693 21L104.693 37.625L108.266 41.3143C132.138 65.9647 147.846 97.3643 153.256 131.25L153.256 214.375L153.256 362.688L157.453 382.174C158.735 388.124 159.381 394.194 159.381 400.281L159.381 487.806C159.381 491.842 158.476 495.827 156.733 499.468L146.164 521.537C145.106 523.748 143.184 525.425 140.85 526.175C135.729 527.821 132.255 532.586 132.255 537.966L132.255 542.044C132.255 544.229 130.484 546 128.3 546L103.005 546C96.9299 546 92.005 541.035 92.005 534.96C92.005 531.646 89.3187 528.938 86.005 528.938L70.0036 528.938C66.6899 528.938 64.0036 531.646 64.0036 534.96C64.0036 541.035 59.0788 546 53.0036 546L39.5916 546C34.6313 546 30.2847 542.68 28.9793 537.895L28.5648 536.375C27.1435 531.542 24.2206 527.288 20.2196 524.228L16.8553 521.654C13.3452 518.969 10.5649 515.447 8.76925 511.409L1.43139 494.908C1.14698 494.268 1.00003 493.576 1.00003 492.876L1.00003 402.813C1.00003 395.057 2.04925 387.336 4.11917 379.861L8.87492 362.688Z" fill="url(#paint0_linear_31_29)" stroke="black"/>
<rect x="8.875" y="215.25" width="143.5" height="147.875" fill="#186CA8"/>
<path d="M23.925 310.125L21.735 306.15H21.12V310.125H18.555V299.595H22.86C23.69 299.595 24.395 299.74 24.975 300.03C25.565 300.32 26.005 300.72 26.295 301.23C26.585 301.73 26.73 302.29 26.73 302.91C26.73 303.61 26.53 304.235 26.13 304.785C25.74 305.335 25.16 305.725 24.39 305.955L26.82 310.125H23.925ZM21.12 304.335H22.71C23.18 304.335 23.53 304.22 23.76 303.99C24 303.76 24.12 303.435 24.12 303.015C24.12 302.615 24 302.3 23.76 302.07C23.53 301.84 23.18 301.725 22.71 301.725H21.12V304.335ZM36.2302 305.805C36.2302 306.045 36.2152 306.295 36.1852 306.555H30.3802C30.4202 307.075 30.5852 307.475 30.8752 307.755C31.1752 308.025 31.5402 308.16 31.9702 308.16C32.6102 308.16 33.0552 307.89 33.3052 307.35H36.0352C35.8952 307.9 35.6402 308.395 35.2702 308.835C34.9102 309.275 34.4552 309.62 33.9052 309.87C33.3552 310.12 32.7402 310.245 32.0602 310.245C31.2402 310.245 30.5102 310.07 29.8702 309.72C29.2302 309.37 28.7302 308.87 28.3702 308.22C28.0102 307.57 27.8302 306.81 27.8302 305.94C27.8302 305.07 28.0052 304.31 28.3552 303.66C28.7152 303.01 29.2152 302.51 29.8552 302.16C30.4952 301.81 31.2302 301.635 32.0602 301.635C32.8702 301.635 33.5902 301.805 34.2202 302.145C34.8502 302.485 35.3402 302.97 35.6902 303.6C36.0502 304.23 36.2302 304.965 36.2302 305.805ZM33.6052 305.13C33.6052 304.69 33.4552 304.34 33.1552 304.08C32.8552 303.82 32.4802 303.69 32.0302 303.69C31.6002 303.69 31.2352 303.815 30.9352 304.065C30.6452 304.315 30.4652 304.67 30.3952 305.13H33.6052ZM41.7833 303.885H40.4033V310.125H37.8383V303.885H36.9083V301.755H37.8383V301.515C37.8383 300.485 38.1333 299.705 38.7233 299.175C39.3133 298.635 40.1783 298.365 41.3183 298.365C41.5083 298.365 41.6483 298.37 41.7383 298.38V300.555C41.2483 300.525 40.9033 300.595 40.7033 300.765C40.5033 300.935 40.4033 301.24 40.4033 301.68V301.755H41.7833V303.885ZM45.5536 303.15C45.8536 302.69 46.2286 302.33 46.6786 302.07C47.1286 301.8 47.6286 301.665 48.1786 301.665V304.38H47.4736C46.8336 304.38 46.3536 304.52 46.0336 304.8C45.7136 305.07 45.5536 305.55 45.5536 306.24V310.125H42.9886V301.755H45.5536V303.15ZM50.6946 300.885C50.2446 300.885 49.8746 300.755 49.5846 300.495C49.3046 300.225 49.1646 299.895 49.1646 299.505C49.1646 299.105 49.3046 298.775 49.5846 298.515C49.8746 298.245 50.2446 298.11 50.6946 298.11C51.1346 298.11 51.4946 298.245 51.7746 298.515C52.0646 298.775 52.2096 299.105 52.2096 299.505C52.2096 299.895 52.0646 300.225 51.7746 300.495C51.4946 300.755 51.1346 300.885 50.6946 300.885ZM51.9696 301.755V310.125H49.4046V301.755H51.9696ZM57.0084 301.635C57.5984 301.635 58.1134 301.755 58.5534 301.995C59.0034 302.235 59.3484 302.55 59.5884 302.94V301.755H62.1534V310.11C62.1534 310.88 61.9984 311.575 61.6884 312.195C61.3884 312.825 60.9234 313.325 60.2934 313.695C59.6734 314.065 58.8984 314.25 57.9684 314.25C56.7284 314.25 55.7234 313.955 54.9534 313.365C54.1834 312.785 53.7434 311.995 53.6334 310.995H56.1684C56.2484 311.315 56.4384 311.565 56.7384 311.745C57.0384 311.935 57.4084 312.03 57.8484 312.03C58.3784 312.03 58.7984 311.875 59.1084 311.565C59.4284 311.265 59.5884 310.78 59.5884 310.11V308.925C59.3384 309.315 58.9934 309.635 58.5534 309.885C58.1134 310.125 57.5984 310.245 57.0084 310.245C56.3184 310.245 55.6934 310.07 55.1334 309.72C54.5734 309.36 54.1284 308.855 53.7984 308.205C53.4784 307.545 53.3184 306.785 53.3184 305.925C53.3184 305.065 53.4784 304.31 53.7984 303.66C54.1284 303.01 54.5734 302.51 55.1334 302.16C55.6934 301.81 56.3184 301.635 57.0084 301.635ZM59.5884 305.94C59.5884 305.3 59.4084 304.795 59.0484 304.425C58.6984 304.055 58.2684 303.87 57.7584 303.87C57.2484 303.87 56.8134 304.055 56.4534 304.425C56.1034 304.785 55.9284 305.285 55.9284 305.925C55.9284 306.565 56.1034 307.075 56.4534 307.455C56.8134 307.825 57.2484 308.01 57.7584 308.01C58.2684 308.01 58.6984 307.825 59.0484 307.455C59.4084 307.085 59.5884 306.58 59.5884 305.94ZM71.8991 305.805C71.8991 306.045 71.8841 306.295 71.8541 306.555H66.0491C66.0891 307.075 66.2541 307.475 66.5441 307.755C66.8441 308.025 67.2091 308.16 67.6391 308.16C68.2791 308.16 68.7241 307.89 68.9741 307.35H71.7041C71.5641 307.9 71.3091 308.395 70.9391 308.835C70.5791 309.275 70.1241 309.62 69.5741 309.87C69.0241 310.12 68.4091 310.245 67.7291 310.245C66.9091 310.245 66.1791 310.07 65.5391 309.72C64.8991 309.37 64.3991 308.87 64.0391 308.22C63.6791 307.57 63.4991 306.81 63.4991 305.94C63.4991 305.07 63.6741 304.31 64.0241 303.66C64.3841 303.01 64.8841 302.51 65.5241 302.16C66.1641 301.81 66.8991 301.635 67.7291 301.635C68.5391 301.635 69.2591 301.805 69.8891 302.145C70.5191 302.485 71.0091 302.97 71.3591 303.6C71.7191 304.23 71.8991 304.965 71.8991 305.805ZM69.2741 305.13C69.2741 304.69 69.1241 304.34 68.8241 304.08C68.5241 303.82 68.1491 303.69 67.6991 303.69C67.2691 303.69 66.9041 303.815 66.6041 304.065C66.3141 304.315 66.1341 304.67 66.0641 305.13H69.2741ZM75.8173 303.15C76.1173 302.69 76.4923 302.33 76.9423 302.07C77.3923 301.8 77.8923 301.665 78.4423 301.665V304.38H77.7373C77.0973 304.38 76.6173 304.52 76.2973 304.8C75.9773 305.07 75.8173 305.55 75.8173 306.24V310.125H73.2523V301.755H75.8173V303.15ZM79.1583 305.925C79.1583 305.065 79.3183 304.31 79.6383 303.66C79.9683 303.01 80.4133 302.51 80.9733 302.16C81.5333 301.81 82.1583 301.635 82.8483 301.635C83.4383 301.635 83.9533 301.755 84.3933 301.995C84.8433 302.235 85.1883 302.55 85.4283 302.94V301.755H87.9933V310.125H85.4283V308.94C85.1783 309.33 84.8283 309.645 84.3783 309.885C83.9383 310.125 83.4233 310.245 82.8333 310.245C82.1533 310.245 81.5333 310.07 80.9733 309.72C80.4133 309.36 79.9683 308.855 79.6383 308.205C79.3183 307.545 79.1583 306.785 79.1583 305.925ZM85.4283 305.94C85.4283 305.3 85.2483 304.795 84.8883 304.425C84.5383 304.055 84.1083 303.87 83.5983 303.87C83.0883 303.87 82.6533 304.055 82.2933 304.425C81.9433 304.785 81.7683 305.285 81.7683 305.925C81.7683 306.565 81.9433 307.075 82.2933 307.455C82.6533 307.825 83.0883 308.01 83.5983 308.01C84.1083 308.01 84.5383 307.825 84.8883 307.455C85.2483 307.085 85.4283 306.58 85.4283 305.94ZM94.9489 301.665C95.9289 301.665 96.7089 301.985 97.2889 302.625C97.8789 303.255 98.1739 304.125 98.1739 305.235V310.125H95.6239V305.58C95.6239 305.02 95.4789 304.585 95.1889 304.275C94.8989 303.965 94.5089 303.81 94.0189 303.81C93.5289 303.81 93.1389 303.965 92.8489 304.275C92.5589 304.585 92.4139 305.02 92.4139 305.58V310.125H89.8489V301.755H92.4139V302.865C92.6739 302.495 93.0239 302.205 93.4639 301.995C93.9039 301.775 94.3989 301.665 94.9489 301.665ZM104.621 307.95V310.125H103.316C102.386 310.125 101.661 309.9 101.141 309.45C100.621 308.99 100.361 308.245 100.361 307.215V303.885H99.3414V301.755H100.361V299.715H102.926V301.755H104.606V303.885H102.926V307.245C102.926 307.495 102.986 307.675 103.106 307.785C103.226 307.895 103.426 307.95 103.706 307.95H104.621ZM113.94 305.805C113.94 306.045 113.925 306.295 113.895 306.555H108.09C108.13 307.075 108.295 307.475 108.585 307.755C108.885 308.025 109.25 308.16 109.68 308.16C110.32 308.16 110.765 307.89 111.015 307.35H113.745C113.605 307.9 113.35 308.395 112.98 308.835C112.62 309.275 112.165 309.62 111.615 309.87C111.065 310.12 110.45 310.245 109.77 310.245C108.95 310.245 108.22 310.07 107.58 309.72C106.94 309.37 106.44 308.87 106.08 308.22C105.72 307.57 105.54 306.81 105.54 305.94C105.54 305.07 105.715 304.31 106.065 303.66C106.425 303.01 106.925 302.51 107.565 302.16C108.205 301.81 108.94 301.635 109.77 301.635C110.58 301.635 111.3 301.805 111.93 302.145C112.56 302.485 113.05 302.97 113.4 303.6C113.76 304.23 113.94 304.965 113.94 305.805ZM111.315 305.13C111.315 304.69 111.165 304.34 110.865 304.08C110.565 303.82 110.19 303.69 109.74 303.69C109.31 303.69 108.945 303.815 108.645 304.065C108.355 304.315 108.175 304.67 108.105 305.13H111.315ZM18.069 324.789C18.069 324.125 18.205 323.537 18.477 323.025C18.757 322.513 19.133 322.117 19.605 321.837C20.085 321.549 20.617 321.405 21.201 321.405C21.633 321.405 22.057 321.501 22.473 321.693C22.897 321.877 23.233 322.125 23.481 322.437V319.245H24.861V328.125H23.481V327.129C23.257 327.449 22.945 327.713 22.545 327.921C22.153 328.129 21.701 328.233 21.189 328.233C20.613 328.233 20.085 328.089 19.605 327.801C19.133 327.505 18.757 327.097 18.477 326.577C18.205 326.049 18.069 325.453 18.069 324.789ZM23.481 324.813C23.481 324.357 23.385 323.961 23.193 323.625C23.009 323.289 22.765 323.033 22.461 322.857C22.157 322.681 21.829 322.593 21.477 322.593C21.125 322.593 20.797 322.681 20.493 322.857C20.189 323.025 19.941 323.277 19.749 323.613C19.565 323.941 19.473 324.333 19.473 324.789C19.473 325.245 19.565 325.645 19.749 325.989C19.941 326.333 20.189 326.597 20.493 326.781C20.805 326.957 21.133 327.045 21.477 327.045C21.829 327.045 22.157 326.957 22.461 326.781C22.765 326.605 23.009 326.349 23.193 326.013C23.385 325.669 23.481 325.269 23.481 324.813ZM32.7178 324.657C32.7178 324.905 32.7018 325.129 32.6698 325.329H27.6178C27.6578 325.857 27.8538 326.281 28.2058 326.601C28.5578 326.921 28.9898 327.081 29.5018 327.081C30.2378 327.081 30.7578 326.773 31.0618 326.157H32.5378C32.3378 326.765 31.9738 327.265 31.4458 327.657C30.9258 328.041 30.2778 328.233 29.5018 328.233C28.8698 328.233 28.3018 328.093 27.7978 327.813C27.3018 327.525 26.9098 327.125 26.6218 326.613C26.3418 326.093 26.2018 325.493 26.2018 324.813C26.2018 324.133 26.3378 323.537 26.6098 323.025C26.8898 322.505 27.2778 322.105 27.7738 321.825C28.2778 321.545 28.8538 321.405 29.5018 321.405C30.1258 321.405 30.6818 321.541 31.1698 321.813C31.6578 322.085 32.0378 322.469 32.3098 322.965C32.5818 323.453 32.7178 324.017 32.7178 324.657ZM31.2898 324.225C31.2818 323.721 31.1018 323.317 30.7498 323.013C30.3978 322.709 29.9618 322.557 29.4418 322.557C28.9698 322.557 28.5658 322.709 28.2298 323.013C27.8938 323.309 27.6938 323.713 27.6298 324.225H31.2898ZM36.7253 324.813C36.7253 324.133 36.8613 323.537 37.1333 323.025C37.4133 322.505 37.7973 322.105 38.2853 321.825C38.7733 321.545 39.3333 321.405 39.9653 321.405C40.7653 321.405 41.4253 321.597 41.9453 321.981C42.4733 322.357 42.8293 322.897 43.0133 323.601H41.5373C41.4173 323.273 41.2253 323.017 40.9613 322.833C40.6973 322.649 40.3653 322.557 39.9653 322.557C39.4053 322.557 38.9573 322.757 38.6213 323.157C38.2933 323.549 38.1293 324.101 38.1293 324.813C38.1293 325.525 38.2933 326.081 38.6213 326.481C38.9573 326.881 39.4053 327.081 39.9653 327.081C40.7573 327.081 41.2813 326.733 41.5373 326.037H43.0133C42.8213 326.709 42.4613 327.245 41.9333 327.645C41.4053 328.037 40.7493 328.233 39.9653 328.233C39.3333 328.233 38.7733 328.093 38.2853 327.813C37.7973 327.525 37.4133 327.125 37.1333 326.613C36.8613 326.093 36.7253 325.493 36.7253 324.813ZM47.2446 328.233C46.6206 328.233 46.0566 328.093 45.5526 327.813C45.0486 327.525 44.6526 327.125 44.3646 326.613C44.0766 326.093 43.9326 325.493 43.9326 324.813C43.9326 324.141 44.0806 323.545 44.3766 323.025C44.6726 322.505 45.0766 322.105 45.5886 321.825C46.1006 321.545 46.6726 321.405 47.3046 321.405C47.9366 321.405 48.5086 321.545 49.0206 321.825C49.5326 322.105 49.9366 322.505 50.2326 323.025C50.5286 323.545 50.6766 324.141 50.6766 324.813C50.6766 325.485 50.5246 326.081 50.2206 326.601C49.9166 327.121 49.5006 327.525 48.9726 327.813C48.4526 328.093 47.8766 328.233 47.2446 328.233ZM47.2446 327.045C47.5966 327.045 47.9246 326.961 48.2286 326.793C48.5406 326.625 48.7926 326.373 48.9846 326.037C49.1766 325.701 49.2726 325.293 49.2726 324.813C49.2726 324.333 49.1806 323.929 48.9966 323.601C48.8126 323.265 48.5686 323.013 48.2646 322.845C47.9606 322.677 47.6326 322.593 47.2806 322.593C46.9286 322.593 46.6006 322.677 46.2966 322.845C46.0006 323.013 45.7646 323.265 45.5886 323.601C45.4126 323.929 45.3246 324.333 45.3246 324.813C45.3246 325.525 45.5046 326.077 45.8646 326.469C46.2326 326.853 46.6926 327.045 47.2446 327.045ZM53.3969 319.245V328.125H52.0289V319.245H53.3969ZM54.737 324.789C54.737 324.125 54.873 323.537 55.145 323.025C55.425 322.513 55.801 322.117 56.273 321.837C56.753 321.549 57.281 321.405 57.857 321.405C58.377 321.405 58.829 321.509 59.213 321.717C59.605 321.917 59.917 322.169 60.149 322.473V321.513H61.529V328.125H60.149V327.141C59.917 327.453 59.601 327.713 59.201 327.921C58.801 328.129 58.345 328.233 57.833 328.233C57.265 328.233 56.745 328.089 56.273 327.801C55.801 327.505 55.425 327.097 55.145 326.577C54.873 326.049 54.737 325.453 54.737 324.789ZM60.149 324.813C60.149 324.357 60.053 323.961 59.861 323.625C59.677 323.289 59.433 323.033 59.129 322.857C58.825 322.681 58.497 322.593 58.145 322.593C57.793 322.593 57.465 322.681 57.161 322.857C56.857 323.025 56.609 323.277 56.417 323.613C56.233 323.941 56.141 324.333 56.141 324.789C56.141 325.245 56.233 325.645 56.417 325.989C56.609 326.333 56.857 326.597 57.161 326.781C57.473 326.957 57.801 327.045 58.145 327.045C58.497 327.045 58.825 326.957 59.129 326.781C59.433 326.605 59.677 326.349 59.861 326.013C60.053 325.669 60.149 325.269 60.149 324.813Z" fill="white"/>
<rect x="46.5" width="67.375" height="21" rx="5" fill="#041E59"/>
<defs>
<linearGradient id="paint0_linear_31_29" x1="94.1875" y1="458.5" x2="94.5277" y2="79.625" gradientUnits="userSpaceOnUse">
<stop stop-color="#2F190B"/>
<stop offset="0.260417" stop-color="#62403F"/>
<stop offset="0.541667" stop-color="#924F4C"/>
<stop offset="0.791667" stop-color="#5E2923"/>
<stop offset="0.827334" stop-color="white"/>
</linearGradient>
</defs>
</svg>
