<svg width="258" height="388" viewBox="0 0 258 388" fill="none" xmlns="http://www.w3.org/2000/svg">
<path d="M228.181 0L257.624 8.58747V342.272L228.181 387.663V0Z" fill="#041E59"/>
<path d="M0 5C0 2.23857 2.23858 0 5 0H228.181V387.663H5C2.23858 387.663 0 385.424 0 382.663V5Z" fill="#F4F2F2"/>
<path d="M243.975 56.302L228.62 1.46931e-05L257.624 8.53054L243.975 56.302Z" fill="#0085FF"/>
<path d="M14.9617 249.202H20.8367V251.502H12.1117V234.127H14.9617V249.202ZM35.8451 244.277C35.8451 244.793 35.8118 245.26 35.7451 245.677H25.2201C25.3035 246.777 25.7118 247.66 26.4451 248.327C27.1785 248.993 28.0785 249.327 29.1451 249.327C30.6785 249.327 31.7618 248.685 32.3951 247.402H35.4701C35.0535 248.668 34.2951 249.71 33.1951 250.527C32.1118 251.327 30.7618 251.727 29.1451 251.727C27.8285 251.727 26.6451 251.435 25.5951 250.852C24.5618 250.252 23.7451 249.418 23.1451 248.352C22.5618 247.268 22.2701 246.018 22.2701 244.602C22.2701 243.185 22.5535 241.943 23.1201 240.877C23.7035 239.793 24.5118 238.96 25.5451 238.377C26.5951 237.793 27.7951 237.502 29.1451 237.502C30.4451 237.502 31.6035 237.785 32.6201 238.352C33.6368 238.918 34.4285 239.718 34.9951 240.752C35.5618 241.768 35.8451 242.943 35.8451 244.277ZM32.8701 243.377C32.8535 242.327 32.4785 241.485 31.7451 240.852C31.0118 240.218 30.1035 239.902 29.0201 239.902C28.0368 239.902 27.1951 240.218 26.4951 240.852C25.7951 241.468 25.3785 242.31 25.2451 243.377H32.8701ZM40.0998 235.902C39.5831 235.902 39.1498 235.727 38.7998 235.377C38.4498 235.027 38.2748 234.593 38.2748 234.077C38.2748 233.56 38.4498 233.127 38.7998 232.777C39.1498 232.427 39.5831 232.252 40.0998 232.252C40.5998 232.252 41.0248 232.427 41.3748 232.777C41.7248 233.127 41.8998 233.56 41.8998 234.077C41.8998 234.593 41.7248 235.027 41.3748 235.377C41.0248 235.727 40.5998 235.902 40.0998 235.902ZM41.4998 237.727V251.502H38.6498V237.727H41.4998ZM48.5666 240.052V247.677C48.5666 248.193 48.6833 248.568 48.9166 248.802C49.1666 249.018 49.5833 249.127 50.1666 249.127H51.9166V251.502H49.6666C48.3833 251.502 47.3999 251.202 46.7166 250.602C46.0333 250.002 45.6916 249.027 45.6916 247.677V240.052H44.0666V237.727H45.6916V234.302H48.5666V237.727H51.9166V240.052H48.5666ZM67.1684 244.277C67.1684 244.793 67.135 245.26 67.0684 245.677H56.5434C56.6267 246.777 57.035 247.66 57.7684 248.327C58.5017 248.993 59.4017 249.327 60.4684 249.327C62.0017 249.327 63.085 248.685 63.7184 247.402H66.7934C66.3767 248.668 65.6184 249.71 64.5184 250.527C63.435 251.327 62.085 251.727 60.4684 251.727C59.1517 251.727 57.9684 251.435 56.9184 250.852C55.885 250.252 55.0684 249.418 54.4684 248.352C53.885 247.268 53.5934 246.018 53.5934 244.602C53.5934 243.185 53.8767 241.943 54.4434 240.877C55.0267 239.793 55.835 238.96 56.8684 238.377C57.9184 237.793 59.1184 237.502 60.4684 237.502C61.7684 237.502 62.9267 237.785 63.9434 238.352C64.96 238.918 65.7517 239.718 66.3184 240.752C66.885 241.768 67.1684 242.943 67.1684 244.277ZM64.1934 243.377C64.1767 242.327 63.8017 241.485 63.0684 240.852C62.335 240.218 61.4267 239.902 60.3434 239.902C59.36 239.902 58.5184 240.218 57.8184 240.852C57.1184 241.468 56.7017 242.31 56.5684 243.377H64.1934Z" fill="black"/>
<path d="M11.2167 278.824C11.2167 276.902 11.6461 275.184 12.5047 273.672C13.3821 272.142 14.5674 270.956 16.0607 270.116C17.5727 269.258 19.2621 268.828 21.1287 268.828C23.3127 268.828 25.2261 269.388 26.8687 270.508C28.5114 271.628 29.6594 273.178 30.3127 275.156H25.8047C25.3567 274.223 24.7221 273.523 23.9007 273.056C23.0981 272.59 22.1647 272.356 21.1007 272.356C19.9621 272.356 18.9447 272.627 18.0487 273.168C17.1714 273.691 16.4807 274.438 15.9767 275.408C15.4914 276.379 15.2487 277.518 15.2487 278.824C15.2487 280.112 15.4914 281.251 15.9767 282.24C16.4807 283.211 17.1714 283.967 18.0487 284.508C18.9447 285.031 19.9621 285.292 21.1007 285.292C22.1647 285.292 23.0981 285.059 23.9007 284.592C24.7221 284.107 25.3567 283.398 25.8047 282.464H30.3127C29.6594 284.462 28.5114 286.02 26.8687 287.14C25.2447 288.242 23.3314 288.792 21.1287 288.792C19.2621 288.792 17.5727 288.372 16.0607 287.532C14.5674 286.674 13.3821 285.488 12.5047 283.976C11.6461 282.464 11.2167 280.747 11.2167 278.824ZM40.5489 288.876C39.0556 288.876 37.7116 288.55 36.5169 287.896C35.3222 287.224 34.3796 286.282 33.6889 285.068C33.0169 283.855 32.6809 282.455 32.6809 280.868C32.6809 279.282 33.0262 277.882 33.7169 276.668C34.4262 275.455 35.3876 274.522 36.6009 273.868C37.8142 273.196 39.1676 272.86 40.6609 272.86C42.1542 272.86 43.5076 273.196 44.7209 273.868C45.9342 274.522 46.8862 275.455 47.5769 276.668C48.2862 277.882 48.6409 279.282 48.6409 280.868C48.6409 282.455 48.2769 283.855 47.5489 285.068C46.8396 286.282 45.8689 287.224 44.6369 287.896C43.4236 288.55 42.0609 288.876 40.5489 288.876ZM40.5489 285.46C41.2582 285.46 41.9209 285.292 42.5369 284.956C43.1716 284.602 43.6756 284.079 44.0489 283.388C44.4222 282.698 44.6089 281.858 44.6089 280.868C44.6089 279.394 44.2169 278.264 43.4329 277.48C42.6676 276.678 41.7249 276.276 40.6049 276.276C39.4849 276.276 38.5422 276.678 37.7769 277.48C37.0302 278.264 36.6569 279.394 36.6569 280.868C36.6569 282.343 37.0209 283.482 37.7489 284.284C38.4956 285.068 39.4289 285.46 40.5489 285.46ZM60.1124 272.888C61.9604 272.888 63.4537 273.476 64.5924 274.652C65.731 275.81 66.3004 277.434 66.3004 279.524V288.624H62.3804V280.056C62.3804 278.824 62.0724 277.882 61.4564 277.228C60.8404 276.556 60.0004 276.22 58.9364 276.22C57.8537 276.22 56.995 276.556 56.3604 277.228C55.7444 277.882 55.4364 278.824 55.4364 280.056V288.624H51.5164V273.112H55.4364V275.044C55.959 274.372 56.6217 273.85 57.4244 273.476C58.2457 273.084 59.1417 272.888 60.1124 272.888ZM69.0201 280.812C69.0201 279.244 69.3281 277.854 69.9441 276.64C70.5788 275.427 71.4374 274.494 72.5201 273.84C73.6028 273.187 74.8068 272.86 76.1321 272.86C77.1401 272.86 78.1014 273.084 79.0161 273.532C79.9308 273.962 80.6588 274.54 81.2001 275.268V267.904H85.1761V288.624H81.2001V286.328C80.7148 287.094 80.0334 287.71 79.1561 288.176C78.2788 288.643 77.2614 288.876 76.1041 288.876C74.7974 288.876 73.6028 288.54 72.5201 287.868C71.4374 287.196 70.5788 286.254 69.9441 285.04C69.3281 283.808 69.0201 282.399 69.0201 280.812ZM81.2281 280.868C81.2281 279.916 81.0414 279.104 80.6681 278.432C80.2948 277.742 79.7908 277.219 79.1561 276.864C78.5214 276.491 77.8401 276.304 77.1121 276.304C76.3841 276.304 75.7121 276.482 75.0961 276.836C74.4801 277.191 73.9761 277.714 73.5841 278.404C73.2108 279.076 73.0241 279.879 73.0241 280.812C73.0241 281.746 73.2108 282.567 73.5841 283.276C73.9761 283.967 74.4801 284.499 75.0961 284.872C75.7308 285.246 76.4028 285.432 77.1121 285.432C77.8401 285.432 78.5214 285.255 79.1561 284.9C79.7908 284.527 80.2948 284.004 80.6681 283.332C81.0414 282.642 81.2281 281.82 81.2281 280.868ZM103.425 280.532C103.425 281.092 103.387 281.596 103.313 282.044H91.9727C92.066 283.164 92.458 284.042 93.1487 284.676C93.8393 285.311 94.6887 285.628 95.6967 285.628C97.1527 285.628 98.1887 285.003 98.8047 283.752H103.033C102.585 285.246 101.726 286.478 100.457 287.448C99.1873 288.4 97.6287 288.876 95.7807 288.876C94.2873 288.876 92.9433 288.55 91.7487 287.896C90.5727 287.224 89.6487 286.282 88.9767 285.068C88.3233 283.855 87.9967 282.455 87.9967 280.868C87.9967 279.263 88.3233 277.854 88.9767 276.64C89.63 275.427 90.5447 274.494 91.7207 273.84C92.8967 273.187 94.25 272.86 95.7807 272.86C97.2553 272.86 98.5713 273.178 99.7287 273.812C100.905 274.447 101.81 275.352 102.445 276.528C103.098 277.686 103.425 279.02 103.425 280.532ZM99.3647 279.412C99.346 278.404 98.982 277.602 98.2727 277.004C97.5633 276.388 96.6953 276.08 95.6687 276.08C94.698 276.08 93.8767 276.379 93.2047 276.976C92.5513 277.555 92.15 278.367 92.0007 279.412H99.3647ZM114.882 272.888C116.73 272.888 118.223 273.476 119.362 274.652C120.501 275.81 121.07 277.434 121.07 279.524V288.624H117.15V280.056C117.15 278.824 116.842 277.882 116.226 277.228C115.61 276.556 114.77 276.22 113.706 276.22C112.623 276.22 111.765 276.556 111.13 277.228C110.514 277.882 110.206 278.824 110.206 280.056V288.624H106.286V273.112H110.206V275.044C110.729 274.372 111.391 273.85 112.194 273.476C113.015 273.084 113.911 272.888 114.882 272.888ZM130.734 288.876C129.464 288.876 128.326 288.652 127.318 288.204C126.31 287.738 125.507 287.112 124.91 286.328C124.331 285.544 124.014 284.676 123.958 283.724H127.906C127.98 284.322 128.27 284.816 128.774 285.208C129.296 285.6 129.94 285.796 130.706 285.796C131.452 285.796 132.031 285.647 132.442 285.348C132.871 285.05 133.086 284.667 133.086 284.2C133.086 283.696 132.824 283.323 132.302 283.08C131.798 282.819 130.986 282.539 129.866 282.24C128.708 281.96 127.756 281.671 127.01 281.372C126.282 281.074 125.647 280.616 125.106 280C124.583 279.384 124.322 278.554 124.322 277.508C124.322 276.65 124.564 275.866 125.05 275.156C125.554 274.447 126.263 273.887 127.178 273.476C128.111 273.066 129.203 272.86 130.454 272.86C132.302 272.86 133.776 273.327 134.878 274.26C135.979 275.175 136.586 276.416 136.698 277.984H132.946C132.89 277.368 132.628 276.883 132.162 276.528C131.714 276.155 131.107 275.968 130.342 275.968C129.632 275.968 129.082 276.099 128.69 276.36C128.316 276.622 128.13 276.986 128.13 277.452C128.13 277.975 128.391 278.376 128.914 278.656C129.436 278.918 130.248 279.188 131.35 279.468C132.47 279.748 133.394 280.038 134.122 280.336C134.85 280.635 135.475 281.102 135.998 281.736C136.539 282.352 136.819 283.174 136.838 284.2C136.838 285.096 136.586 285.899 136.082 286.608C135.596 287.318 134.887 287.878 133.954 288.288C133.039 288.68 131.966 288.876 130.734 288.876ZM139.047 280.812C139.047 279.244 139.355 277.854 139.971 276.64C140.606 275.427 141.455 274.494 142.519 273.84C143.602 273.187 144.806 272.86 146.131 272.86C147.289 272.86 148.297 273.094 149.155 273.56C150.033 274.027 150.733 274.615 151.255 275.324V273.112H155.203V288.624H151.255V286.356C150.751 287.084 150.051 287.691 149.155 288.176C148.278 288.643 147.261 288.876 146.103 288.876C144.797 288.876 143.602 288.54 142.519 287.868C141.455 287.196 140.606 286.254 139.971 285.04C139.355 283.808 139.047 282.399 139.047 280.812ZM151.255 280.868C151.255 279.916 151.069 279.104 150.695 278.432C150.322 277.742 149.818 277.219 149.183 276.864C148.549 276.491 147.867 276.304 147.139 276.304C146.411 276.304 145.739 276.482 145.123 276.836C144.507 277.191 144.003 277.714 143.611 278.404C143.238 279.076 143.051 279.879 143.051 280.812C143.051 281.746 143.238 282.567 143.611 283.276C144.003 283.967 144.507 284.499 145.123 284.872C145.758 285.246 146.43 285.432 147.139 285.432C147.867 285.432 148.549 285.255 149.183 284.9C149.818 284.527 150.322 284.004 150.695 283.332C151.069 282.642 151.255 281.82 151.255 280.868ZM158.024 280.812C158.024 279.244 158.332 277.854 158.948 276.64C159.583 275.427 160.441 274.494 161.524 273.84C162.607 273.187 163.811 272.86 165.136 272.86C166.144 272.86 167.105 273.084 168.02 273.532C168.935 273.962 169.663 274.54 170.204 275.268V267.904H174.18V288.624H170.204V286.328C169.719 287.094 169.037 287.71 168.16 288.176C167.283 288.643 166.265 288.876 165.108 288.876C163.801 288.876 162.607 288.54 161.524 287.868C160.441 287.196 159.583 286.254 158.948 285.04C158.332 283.808 158.024 282.399 158.024 280.812ZM170.232 280.868C170.232 279.916 170.045 279.104 169.672 278.432C169.299 277.742 168.795 277.219 168.16 276.864C167.525 276.491 166.844 276.304 166.116 276.304C165.388 276.304 164.716 276.482 164.1 276.836C163.484 277.191 162.98 277.714 162.588 278.404C162.215 279.076 162.028 279.879 162.028 280.812C162.028 281.746 162.215 282.567 162.588 283.276C162.98 283.967 163.484 284.499 164.1 284.872C164.735 285.246 165.407 285.432 166.116 285.432C166.844 285.432 167.525 285.255 168.16 284.9C168.795 284.527 169.299 284.004 169.672 283.332C170.045 282.642 170.232 281.82 170.232 280.868ZM184.897 288.876C183.403 288.876 182.059 288.55 180.865 287.896C179.67 287.224 178.727 286.282 178.037 285.068C177.365 283.855 177.029 282.455 177.029 280.868C177.029 279.282 177.374 277.882 178.065 276.668C178.774 275.455 179.735 274.522 180.949 273.868C182.162 273.196 183.515 272.86 185.009 272.86C186.502 272.86 187.855 273.196 189.069 273.868C190.282 274.522 191.234 275.455 191.925 276.668C192.634 277.882 192.989 279.282 192.989 280.868C192.989 282.455 192.625 283.855 191.897 285.068C191.187 286.282 190.217 287.224 188.985 287.896C187.771 288.55 186.409 288.876 184.897 288.876ZM184.897 285.46C185.606 285.46 186.269 285.292 186.885 284.956C187.519 284.602 188.023 284.079 188.397 283.388C188.77 282.698 188.957 281.858 188.957 280.868C188.957 279.394 188.565 278.264 187.781 277.48C187.015 276.678 186.073 276.276 184.953 276.276C183.833 276.276 182.89 276.678 182.125 277.48C181.378 278.264 181.005 279.394 181.005 280.868C181.005 282.343 181.369 283.482 182.097 284.284C182.843 285.068 183.777 285.46 184.897 285.46Z" fill="#024887"/>
</svg>
