<svg width="373" height="107" viewBox="0 0 373 107" fill="none" xmlns="http://www.w3.org/2000/svg">
<path d="M1.30015 34.7452L0.802124 34.7471V35.2452V104.698V105.198H1.30212H342.438H342.938V104.698V33.9017V33.3997L342.436 33.4017L1.30015 34.7452Z" fill="url(#paint0_linear_23_18)" stroke="black"/>
<path d="M2.39985 33.9972L61.4563 0.5H371.888L342.613 33.5003L2.39985 33.9972Z" fill="url(#paint1_linear_23_18)" stroke="black"/>
<path d="M343.489 105.354L343.001 33.6919L372.01 1.78179L372.499 61.4697L343.489 105.354Z" fill="url(#paint2_linear_23_18)" stroke="black"/>
<path d="M16.4838 76.8545C15.1398 76.8545 14.4678 76.1825 14.4678 74.8385V53.4905C14.4678 52.1465 15.1398 51.4745 16.4838 51.4745H25.0518C27.6918 51.4745 29.7318 52.0625 31.1718 53.2385C32.6358 54.3905 33.3678 56.0105 33.3678 58.0985C33.3678 59.4665 33.0078 60.6425 32.2878 61.6265C31.5678 62.6105 30.5838 63.3305 29.3358 63.7865C30.7998 64.1705 31.9398 64.8785 32.7558 65.9105C33.5718 66.9425 33.9798 68.2505 33.9798 69.8345C33.9798 72.0905 33.2238 73.8305 31.7118 75.0545C30.2238 76.2545 28.1478 76.8545 25.4838 76.8545H16.4838ZM18.0678 62.5625H24.4758C27.9798 62.5625 29.7318 61.1945 29.7318 58.4585C29.7318 55.7225 27.9798 54.3545 24.4758 54.3545H18.0678V62.5625ZM18.0678 73.9745H25.0518C28.5798 73.9745 30.3438 72.5465 30.3438 69.6905C30.3438 66.8585 28.5798 65.4425 25.0518 65.4425H18.0678V73.9745ZM40.4108 55.3625C39.6908 55.3625 39.1268 55.1825 38.7188 54.8225C38.3348 54.4625 38.1428 53.9585 38.1428 53.3105C38.1428 51.9425 38.8988 51.2585 40.4108 51.2585C41.9228 51.2585 42.6788 51.9425 42.6788 53.3105C42.6788 54.6785 41.9228 55.3625 40.4108 55.3625ZM40.4108 77.0705C39.2108 77.0705 38.6108 76.4105 38.6108 75.0905V61.0505C38.6108 59.7545 39.2108 59.1065 40.4108 59.1065C41.6348 59.1065 42.2468 59.7545 42.2468 61.0505V75.0905C42.2468 76.4105 41.6348 77.0705 40.4108 77.0705ZM53.5207 77.1785C52.4647 77.1785 51.3727 77.0585 50.2447 76.8185C49.1167 76.5785 48.0967 76.1705 47.1847 75.5945C46.7767 75.3545 46.5247 75.0545 46.4287 74.6945C46.3327 74.3345 46.3567 73.9985 46.5007 73.6865C46.6447 73.3745 46.8727 73.1585 47.1847 73.0385C47.5207 72.8945 47.8927 72.9305 48.3007 73.1465C49.2367 73.6505 50.1367 74.0105 51.0007 74.2265C51.8647 74.4425 52.7167 74.5505 53.5567 74.5505C54.8287 74.5505 55.7887 74.3225 56.4367 73.8665C57.0847 73.4105 57.4087 72.7985 57.4087 72.0305C57.4087 71.4065 57.1927 70.9265 56.7607 70.5905C56.3287 70.2305 55.6807 69.9545 54.8167 69.7625L51.3967 69.0785C48.3727 68.4545 46.8607 66.8945 46.8607 64.3985C46.8607 62.7425 47.5207 61.4225 48.8407 60.4385C50.1607 59.4545 51.8887 58.9625 54.0247 58.9625C56.1847 58.9625 58.0447 59.4905 59.6047 60.5465C59.9887 60.7865 60.2167 61.0865 60.2887 61.4465C60.3607 61.7825 60.3127 62.1065 60.1447 62.4185C59.9767 62.7065 59.7247 62.9105 59.3887 63.0305C59.0767 63.1505 58.7047 63.1025 58.2727 62.8865C57.5527 62.4545 56.8327 62.1425 56.1127 61.9505C55.3927 61.7345 54.6967 61.6265 54.0247 61.6265C52.7767 61.6265 51.8287 61.8665 51.1807 62.3465C50.5327 62.8025 50.2087 63.4265 50.2087 64.2185C50.2087 65.4185 51.0007 66.1865 52.5847 66.5225L56.0047 67.2065C57.5647 67.5185 58.7407 68.0465 59.5327 68.7905C60.3487 69.5345 60.7567 70.5425 60.7567 71.8145C60.7567 73.4945 60.0967 74.8145 58.7767 75.7745C57.4567 76.7105 55.7047 77.1785 53.5207 77.1785ZM72.5422 77.1785C70.7422 77.1785 69.1822 76.8065 67.8622 76.0625C66.5662 75.2945 65.5582 74.2265 64.8382 72.8585C64.1182 71.4665 63.7582 69.8345 63.7582 67.9625C63.7582 65.1785 64.5502 62.9825 66.1342 61.3745C67.7182 59.7665 69.8542 58.9625 72.5422 58.9625C73.3822 58.9625 74.2582 59.0945 75.1702 59.3585C76.1062 59.5985 76.9702 60.0065 77.7622 60.5825C78.1462 60.8225 78.3622 61.1345 78.4102 61.5185C78.4822 61.8785 78.4222 62.2265 78.2302 62.5625C78.0622 62.8745 77.8102 63.0905 77.4742 63.2105C77.1382 63.3065 76.7542 63.2345 76.3222 62.9945C75.7462 62.5865 75.1582 62.2985 74.5582 62.1305C73.9582 61.9385 73.3822 61.8425 72.8302 61.8425C71.1262 61.8425 69.8062 62.3825 68.8702 63.4625C67.9582 64.5185 67.5022 66.0305 67.5022 67.9985C67.5022 69.9665 67.9582 71.5145 68.8702 72.6425C69.8062 73.7465 71.1262 74.2985 72.8302 74.2985C73.3822 74.2985 73.9462 74.2145 74.5222 74.0465C75.1222 73.8785 75.7222 73.5905 76.3222 73.1825C76.7542 72.9425 77.1262 72.8825 77.4382 73.0025C77.7742 73.1225 78.0142 73.3505 78.1582 73.6865C78.3262 73.9985 78.3742 74.3465 78.3022 74.7305C78.2542 75.0905 78.0382 75.3905 77.6542 75.6305C76.8862 76.1825 76.0462 76.5785 75.1342 76.8185C74.2462 77.0585 73.3822 77.1785 72.5422 77.1785ZM88.8874 77.1785C87.1114 77.1785 85.5754 76.8065 84.2794 76.0625C82.9834 75.3185 81.9754 74.2745 81.2554 72.9305C80.5594 71.5625 80.2114 69.9425 80.2114 68.0705C80.2114 66.1985 80.5594 64.5905 81.2554 63.2465C81.9754 61.8785 82.9834 60.8225 84.2794 60.0785C85.5754 59.3345 87.1114 58.9625 88.8874 58.9625C90.6154 58.9625 92.1274 59.3345 93.4234 60.0785C94.7194 60.8225 95.7274 61.8785 96.4474 63.2465C97.1674 64.5905 97.5274 66.1985 97.5274 68.0705C97.5274 69.9425 97.1674 71.5625 96.4474 72.9305C95.7274 74.2745 94.7194 75.3185 93.4234 76.0625C92.1274 76.8065 90.6154 77.1785 88.8874 77.1785ZM88.8874 74.3705C90.3754 74.3705 91.5754 73.8305 92.4874 72.7505C93.3994 71.6705 93.8554 70.1105 93.8554 68.0705C93.8554 66.0305 93.3994 64.4825 92.4874 63.4265C91.5754 62.3465 90.3754 61.8065 88.8874 61.8065C87.3754 61.8065 86.1634 62.3465 85.2514 63.4265C84.3394 64.4825 83.8834 66.0305 83.8834 68.0705C83.8834 70.1105 84.3394 71.6705 85.2514 72.7505C86.1634 73.8305 87.3754 74.3705 88.8874 74.3705ZM103.411 55.3625C102.691 55.3625 102.127 55.1825 101.719 54.8225C101.335 54.4625 101.143 53.9585 101.143 53.3105C101.143 51.9425 101.899 51.2585 103.411 51.2585C104.923 51.2585 105.679 51.9425 105.679 53.3105C105.679 54.6785 104.923 55.3625 103.411 55.3625ZM103.411 77.0705C102.211 77.0705 101.611 76.4105 101.611 75.0905V61.0505C101.611 59.7545 102.211 59.1065 103.411 59.1065C104.635 59.1065 105.247 59.7545 105.247 61.0505V75.0905C105.247 76.4105 104.635 77.0705 103.411 77.0705ZM117.853 77.1785C115.645 77.1785 114.001 76.6145 112.921 75.4865C111.841 74.3585 111.301 72.7265 111.301 70.5905V62.0945H109.141C108.133 62.0945 107.629 61.6265 107.629 60.6905C107.629 59.7545 108.133 59.2865 109.141 59.2865H111.301V55.5785C111.301 54.3545 111.913 53.7425 113.137 53.7425C114.337 53.7425 114.937 54.3545 114.937 55.5785V59.2865H119.149C120.157 59.2865 120.661 59.7545 120.661 60.6905C120.661 61.6265 120.157 62.0945 119.149 62.0945H114.937V70.3025C114.937 71.5745 115.201 72.5345 115.729 73.1825C116.281 73.8305 117.169 74.1545 118.393 74.1545C118.825 74.1545 119.197 74.1185 119.509 74.0465C119.821 73.9505 120.097 73.8905 120.337 73.8665C120.601 73.8665 120.817 73.9625 120.985 74.1545C121.153 74.3225 121.237 74.6585 121.237 75.1625C121.237 75.5465 121.165 75.8945 121.021 76.2065C120.901 76.4945 120.673 76.6865 120.337 76.7825C120.049 76.9025 119.653 76.9985 119.149 77.0705C118.669 77.1425 118.237 77.1785 117.853 77.1785ZM130.969 77.1785C129.193 77.1785 127.657 76.8065 126.361 76.0625C125.065 75.3185 124.057 74.2745 123.337 72.9305C122.641 71.5625 122.293 69.9425 122.293 68.0705C122.293 66.1985 122.641 64.5905 123.337 63.2465C124.057 61.8785 125.065 60.8225 126.361 60.0785C127.657 59.3345 129.193 58.9625 130.969 58.9625C132.697 58.9625 134.209 59.3345 135.505 60.0785C136.801 60.8225 137.809 61.8785 138.529 63.2465C139.249 64.5905 139.609 66.1985 139.609 68.0705C139.609 69.9425 139.249 71.5625 138.529 72.9305C137.809 74.2745 136.801 75.3185 135.505 76.0625C134.209 76.8065 132.697 77.1785 130.969 77.1785ZM130.969 74.3705C132.457 74.3705 133.657 73.8305 134.569 72.7505C135.481 71.6705 135.937 70.1105 135.937 68.0705C135.937 66.0305 135.481 64.4825 134.569 63.4265C133.657 62.3465 132.457 61.8065 130.969 61.8065C129.457 61.8065 128.245 62.3465 127.333 63.4265C126.421 64.4825 125.965 66.0305 125.965 68.0705C125.965 70.1105 126.421 71.6705 127.333 72.7505C128.245 73.8305 129.457 74.3705 130.969 74.3705Z" fill="black"/>
<path d="M303.626 49.0255H336.309L317.925 81.7091H281.156L303.626 49.0255Z" fill="#FFD28E"/>
<path d="M305.971 53.1109H330.181L316.563 77.6236H289.327L305.971 53.1109Z" fill="#821313"/>
<path d="M258.686 53.1109H291.369L272.985 85.7945H236.216L258.686 53.1109Z" fill="#FFD28E"/>
<path d="M261.031 57.1964H285.241L271.623 81.7091H244.387L261.031 57.1964Z" fill="#821313"/>
<path d="M275.028 65.3673H307.711L289.327 98.0509H252.558L275.028 65.3673Z" fill="#FFD28E"/>
<path d="M277.373 69.4527H301.583L287.965 93.9655H260.728L277.373 69.4527Z" fill="#821313"/>
<defs>
<linearGradient id="paint0_linear_23_18" x1="84.281" y1="26.1784" x2="137.204" y2="123.541" gradientUnits="userSpaceOnUse">
<stop offset="0.0104167" stop-color="#FFCB00"/>
<stop offset="0.9999" stop-color="white"/>
<stop offset="1" stop-color="#EFC82E"/>
</linearGradient>
<linearGradient id="paint1_linear_23_18" x1="91.4865" y1="-3.70909" x2="105.201" y2="53.5819" gradientUnits="userSpaceOnUse">
<stop offset="0.0104167" stop-color="#FFCB00"/>
<stop offset="0.9999" stop-color="white"/>
<stop offset="1" stop-color="#EFC82E"/>
</linearGradient>
<linearGradient id="paint2_linear_23_18" x1="350.297" y1="-8.34545" x2="370.459" y2="-6.12502" gradientUnits="userSpaceOnUse">
<stop offset="0.0104167" stop-color="#FFCB00"/>
<stop offset="0.9999" stop-color="white"/>
<stop offset="1" stop-color="#EFC82E"/>
</linearGradient>
</defs>
</svg>
