<svg width="606" height="245" viewBox="0 0 606 245" fill="none" xmlns="http://www.w3.org/2000/svg">
<rect y="53" width="570.511" height="191" fill="#EFC82E"/>
<path d="M88.0859 1H605.551L569.912 54H0L88.0859 1Z" fill="#CCB869"/>
<path d="M570.511 53.5L606 0V172L570.511 244.5V53.5Z" fill="#655207"/>
<path d="M33.12 146.76C33.9467 146.947 34.6 147.36 35.08 148C35.5733 148.627 35.82 149.347 35.82 150.16C35.82 151.36 35.4067 152.3 34.58 152.98C33.7533 153.66 32.5933 154 31.1 154H24.12V139.9H30.88C32.32 139.9 33.4467 140.22 34.26 140.86C35.0867 141.5 35.5 142.4 35.5 143.56C35.5 144.387 35.28 145.08 34.84 145.64C34.4133 146.187 33.84 146.56 33.12 146.76ZM28.04 145.5H30.02C31.0067 145.5 31.5 145.093 31.5 144.28C31.5 143.44 31.0067 143.02 30.02 143.02H28.04V145.5ZM30.32 150.84C31.3067 150.84 31.8 150.427 31.8 149.6C31.8 149.173 31.6667 148.847 31.4 148.62C31.1467 148.393 30.78 148.28 30.3 148.28H28.04V150.84H30.32ZM39.518 141.74C38.8246 141.74 38.2646 141.553 37.838 141.18C37.4246 140.793 37.218 140.313 37.218 139.74C37.218 139.153 37.4246 138.667 37.838 138.28C38.2646 137.893 38.8246 137.7 39.518 137.7C40.198 137.7 40.7446 137.893 41.158 138.28C41.5846 138.667 41.798 139.153 41.798 139.74C41.798 140.313 41.5846 140.793 41.158 141.18C40.7446 141.553 40.198 141.74 39.518 141.74ZM41.458 142.78V154H37.538V142.78H41.458ZM48.4703 154.14C47.457 154.14 46.5503 153.973 45.7503 153.64C44.9636 153.293 44.337 152.827 43.8703 152.24C43.417 151.64 43.1636 150.967 43.1103 150.22H46.9103C46.9636 150.58 47.1303 150.86 47.4103 151.06C47.6903 151.26 48.037 151.36 48.4503 151.36C48.7703 151.36 49.0236 151.293 49.2103 151.16C49.397 151.027 49.4903 150.853 49.4903 150.64C49.4903 150.36 49.337 150.153 49.0303 150.02C48.7236 149.887 48.217 149.74 47.5103 149.58C46.7103 149.42 46.0436 149.24 45.5103 149.04C44.977 148.84 44.5103 148.513 44.1103 148.06C43.7236 147.607 43.5303 146.993 43.5303 146.22C43.5303 145.553 43.7103 144.953 44.0703 144.42C44.4303 143.873 44.957 143.44 45.6503 143.12C46.357 142.8 47.2036 142.64 48.1903 142.64C49.657 142.64 50.8103 143 51.6503 143.72C52.4903 144.44 52.977 145.387 53.1103 146.56H49.5703C49.5036 146.2 49.3436 145.927 49.0903 145.74C48.8503 145.54 48.5236 145.44 48.1103 145.44C47.7903 145.44 47.5436 145.5 47.3703 145.62C47.2103 145.74 47.1303 145.907 47.1303 146.12C47.1303 146.387 47.2836 146.593 47.5903 146.74C47.897 146.873 48.3903 147.013 49.0703 147.16C49.8836 147.333 50.557 147.527 51.0903 147.74C51.637 147.953 52.1103 148.3 52.5103 148.78C52.9236 149.247 53.1303 149.887 53.1303 150.7C53.1303 151.353 52.937 151.94 52.5503 152.46C52.177 152.98 51.637 153.393 50.9303 153.7C50.237 153.993 49.417 154.14 48.4703 154.14ZM54.4175 148.38C54.4175 147.22 54.6575 146.207 55.1375 145.34C55.6175 144.473 56.2842 143.807 57.1375 143.34C58.0042 142.873 58.9908 142.64 60.0975 142.64C61.5242 142.64 62.7242 143.033 63.6975 143.82C64.6708 144.593 65.2975 145.68 65.5775 147.08H61.4175C61.1775 146.347 60.7108 145.98 60.0175 145.98C59.5242 145.98 59.1308 146.187 58.8375 146.6C58.5575 147 58.4175 147.593 58.4175 148.38C58.4175 149.167 58.5575 149.767 58.8375 150.18C59.1308 150.593 59.5242 150.8 60.0175 150.8C60.7242 150.8 61.1908 150.433 61.4175 149.7H65.5775C65.2975 151.087 64.6708 152.173 63.6975 152.96C62.7242 153.747 61.5242 154.14 60.0975 154.14C58.9908 154.14 58.0042 153.907 57.1375 153.44C56.2842 152.973 55.6175 152.307 55.1375 151.44C54.6575 150.573 54.4175 149.553 54.4175 148.38ZM72.4259 154.14C71.3059 154.14 70.2993 153.907 69.4059 153.44C68.5259 152.973 67.8326 152.307 67.3259 151.44C66.8193 150.573 66.5659 149.553 66.5659 148.38C66.5659 147.22 66.8193 146.207 67.3259 145.34C67.8459 144.473 68.5459 143.807 69.4259 143.34C70.3193 142.873 71.3259 142.64 72.4459 142.64C73.5659 142.64 74.5659 142.873 75.4459 143.34C76.3393 143.807 77.0393 144.473 77.5459 145.34C78.0659 146.207 78.3259 147.22 78.3259 148.38C78.3259 149.54 78.0659 150.56 77.5459 151.44C77.0393 152.307 76.3393 152.973 75.4459 153.44C74.5526 153.907 73.5459 154.14 72.4259 154.14ZM72.4259 150.74C72.9726 150.74 73.4259 150.54 73.7859 150.14C74.1593 149.727 74.3459 149.14 74.3459 148.38C74.3459 147.62 74.1593 147.04 73.7859 146.64C73.4259 146.24 72.9793 146.04 72.4459 146.04C71.9126 146.04 71.4659 146.24 71.1059 146.64C70.7459 147.04 70.5659 147.62 70.5659 148.38C70.5659 149.153 70.7393 149.74 71.0859 150.14C71.4326 150.54 71.8793 150.74 72.4259 150.74ZM81.9008 141.74C81.2074 141.74 80.6474 141.553 80.2208 141.18C79.8074 140.793 79.6008 140.313 79.6008 139.74C79.6008 139.153 79.8074 138.667 80.2208 138.28C80.6474 137.893 81.2074 137.7 81.9008 137.7C82.5808 137.7 83.1274 137.893 83.5408 138.28C83.9674 138.667 84.1808 139.153 84.1808 139.74C84.1808 140.313 83.9674 140.793 83.5408 141.18C83.1274 141.553 82.5808 141.74 81.9008 141.74ZM83.8408 142.78V154H79.9208V142.78H83.8408ZM92.6931 150.66V154H90.9931C88.1265 154 86.6931 152.58 86.6931 149.74V146.04H85.3131V142.78H86.6931V140.06H90.6331V142.78H92.6731V146.04H90.6331V149.8C90.6331 150.107 90.6998 150.327 90.8331 150.46C90.9798 150.593 91.2198 150.66 91.5531 150.66H92.6931ZM99.7111 154.14C98.5911 154.14 97.5844 153.907 96.6911 153.44C95.8111 152.973 95.1178 152.307 94.6111 151.44C94.1044 150.573 93.8511 149.553 93.8511 148.38C93.8511 147.22 94.1044 146.207 94.6111 145.34C95.1311 144.473 95.8311 143.807 96.7111 143.34C97.6044 142.873 98.6111 142.64 99.7311 142.64C100.851 142.64 101.851 142.873 102.731 143.34C103.624 143.807 104.324 144.473 104.831 145.34C105.351 146.207 105.611 147.22 105.611 148.38C105.611 149.54 105.351 150.56 104.831 151.44C104.324 152.307 103.624 152.973 102.731 153.44C101.838 153.907 100.831 154.14 99.7111 154.14ZM99.7111 150.74C100.258 150.74 100.711 150.54 101.071 150.14C101.444 149.727 101.631 149.14 101.631 148.38C101.631 147.62 101.444 147.04 101.071 146.64C100.711 146.24 100.264 146.04 99.7311 146.04C99.1978 146.04 98.7511 146.24 98.3911 146.64C98.0311 147.04 97.8511 147.62 97.8511 148.38C97.8511 149.153 98.0244 149.74 98.3711 150.14C98.7178 150.54 99.1644 150.74 99.7111 150.74ZM116.354 154.14C114.714 154.14 113.367 153.753 112.314 152.98C111.261 152.193 110.694 151.073 110.614 149.62H114.794C114.834 150.113 114.981 150.473 115.234 150.7C115.487 150.927 115.814 151.04 116.214 151.04C116.574 151.04 116.867 150.953 117.094 150.78C117.334 150.593 117.454 150.34 117.454 150.02C117.454 149.607 117.261 149.287 116.874 149.06C116.487 148.833 115.861 148.58 114.994 148.3C114.074 147.993 113.327 147.7 112.754 147.42C112.194 147.127 111.701 146.707 111.274 146.16C110.861 145.6 110.654 144.873 110.654 143.98C110.654 143.073 110.881 142.3 111.334 141.66C111.787 141.007 112.414 140.513 113.214 140.18C114.014 139.847 114.921 139.68 115.934 139.68C117.574 139.68 118.881 140.067 119.854 140.84C120.841 141.6 121.367 142.673 121.434 144.06H117.174C117.161 143.633 117.027 143.313 116.774 143.1C116.534 142.887 116.221 142.78 115.834 142.78C115.541 142.78 115.301 142.867 115.114 143.04C114.927 143.213 114.834 143.46 114.834 143.78C114.834 144.047 114.934 144.28 115.134 144.48C115.347 144.667 115.607 144.833 115.914 144.98C116.221 145.113 116.674 145.287 117.274 145.5C118.167 145.807 118.901 146.113 119.474 146.42C120.061 146.713 120.561 147.133 120.974 147.68C121.401 148.213 121.614 148.893 121.614 149.72C121.614 150.56 121.401 151.313 120.974 151.98C120.561 152.647 119.954 153.173 119.154 153.56C118.367 153.947 117.434 154.14 116.354 154.14ZM122.796 148.38C122.796 147.22 123.003 146.207 123.416 145.34C123.843 144.473 124.416 143.807 125.136 143.34C125.87 142.873 126.683 142.64 127.576 142.64C128.35 142.64 129.016 142.793 129.576 143.1C130.136 143.407 130.57 143.82 130.876 144.34V142.78H134.796V154H130.876V152.44C130.57 152.96 130.13 153.373 129.556 153.68C128.996 153.987 128.336 154.14 127.576 154.14C126.683 154.14 125.87 153.907 125.136 153.44C124.416 152.973 123.843 152.307 123.416 151.44C123.003 150.56 122.796 149.54 122.796 148.38ZM130.876 148.38C130.876 147.66 130.676 147.093 130.276 146.68C129.89 146.267 129.41 146.06 128.836 146.06C128.25 146.06 127.763 146.267 127.376 146.68C126.99 147.08 126.796 147.647 126.796 148.38C126.796 149.1 126.99 149.673 127.376 150.1C127.763 150.513 128.25 150.72 128.836 150.72C129.41 150.72 129.89 150.513 130.276 150.1C130.676 149.687 130.876 149.113 130.876 148.38ZM140.95 139.2V154H137.03V139.2H140.95ZM147.323 142.64C148.083 142.64 148.743 142.793 149.303 143.1C149.876 143.407 150.316 143.82 150.623 144.34V142.78H154.543V153.88C154.543 154.933 154.343 155.88 153.943 156.72C153.543 157.573 152.916 158.253 152.062 158.76C151.223 159.267 150.156 159.52 148.863 159.52C147.129 159.52 145.743 159.113 144.702 158.3C143.663 157.487 143.069 156.38 142.923 154.98H146.783C146.863 155.34 147.063 155.62 147.383 155.82C147.703 156.02 148.116 156.12 148.623 156.12C149.956 156.12 150.623 155.373 150.623 153.88V152.44C150.316 152.96 149.876 153.373 149.303 153.68C148.743 153.987 148.083 154.14 147.323 154.14C146.429 154.14 145.616 153.907 144.883 153.44C144.163 152.973 143.589 152.307 143.163 151.44C142.749 150.56 142.543 149.54 142.543 148.38C142.543 147.22 142.749 146.207 143.163 145.34C143.589 144.473 144.163 143.807 144.883 143.34C145.616 142.873 146.429 142.64 147.323 142.64ZM150.623 148.38C150.623 147.66 150.423 147.093 150.023 146.68C149.636 146.267 149.156 146.06 148.583 146.06C147.996 146.06 147.509 146.267 147.123 146.68C146.736 147.08 146.543 147.647 146.543 148.38C146.543 149.1 146.736 149.673 147.123 150.1C147.509 150.513 147.996 150.72 148.583 150.72C149.156 150.72 149.636 150.513 150.023 150.1C150.423 149.687 150.623 149.113 150.623 148.38ZM156.136 148.38C156.136 147.22 156.343 146.207 156.756 145.34C157.183 144.473 157.756 143.807 158.476 143.34C159.21 142.873 160.023 142.64 160.916 142.64C161.69 142.64 162.356 142.793 162.916 143.1C163.476 143.407 163.91 143.82 164.216 144.34V142.78H168.136V154H164.216V152.44C163.91 152.96 163.47 153.373 162.896 153.68C162.336 153.987 161.676 154.14 160.916 154.14C160.023 154.14 159.21 153.907 158.476 153.44C157.756 152.973 157.183 152.307 156.756 151.44C156.343 150.56 156.136 149.54 156.136 148.38ZM164.216 148.38C164.216 147.66 164.016 147.093 163.616 146.68C163.23 146.267 162.75 146.06 162.176 146.06C161.59 146.06 161.103 146.267 160.716 146.68C160.33 147.08 160.136 147.647 160.136 148.38C160.136 149.1 160.33 149.673 160.716 150.1C161.103 150.513 161.59 150.72 162.176 150.72C162.75 150.72 163.23 150.513 163.616 150.1C164.016 149.687 164.216 149.113 164.216 148.38ZM169.73 148.38C169.73 147.22 169.937 146.207 170.35 145.34C170.777 144.473 171.357 143.807 172.09 143.34C172.823 142.873 173.637 142.64 174.53 142.64C175.25 142.64 175.89 142.793 176.45 143.1C177.023 143.393 177.47 143.8 177.79 144.32V139.2H181.73V154H177.79V152.44C177.483 152.96 177.05 153.373 176.49 153.68C175.93 153.987 175.27 154.14 174.51 154.14C173.617 154.14 172.803 153.907 172.07 153.44C171.35 152.973 170.777 152.307 170.35 151.44C169.937 150.56 169.73 149.54 169.73 148.38ZM177.81 148.38C177.81 147.66 177.61 147.093 177.21 146.68C176.823 146.267 176.343 146.06 175.77 146.06C175.183 146.06 174.697 146.267 174.31 146.68C173.923 147.08 173.73 147.647 173.73 148.38C173.73 149.1 173.923 149.673 174.31 150.1C174.697 150.513 175.183 150.72 175.77 150.72C176.343 150.72 176.823 150.513 177.21 150.1C177.61 149.687 177.81 149.113 177.81 148.38ZM189.184 154.14C188.064 154.14 187.057 153.907 186.164 153.44C185.284 152.973 184.59 152.307 184.084 151.44C183.577 150.573 183.324 149.553 183.324 148.38C183.324 147.22 183.577 146.207 184.084 145.34C184.604 144.473 185.304 143.807 186.184 143.34C187.077 142.873 188.084 142.64 189.204 142.64C190.324 142.64 191.324 142.873 192.204 143.34C193.097 143.807 193.797 144.473 194.304 145.34C194.824 146.207 195.084 147.22 195.084 148.38C195.084 149.54 194.824 150.56 194.304 151.44C193.797 152.307 193.097 152.973 192.204 153.44C191.31 153.907 190.304 154.14 189.184 154.14ZM189.184 150.74C189.73 150.74 190.184 150.54 190.544 150.14C190.917 149.727 191.104 149.14 191.104 148.38C191.104 147.62 190.917 147.04 190.544 146.64C190.184 146.24 189.737 146.04 189.204 146.04C188.67 146.04 188.224 146.24 187.864 146.64C187.504 147.04 187.324 147.62 187.324 148.38C187.324 149.153 187.497 149.74 187.844 150.14C188.19 150.54 188.637 150.74 189.184 150.74Z" fill="#655207"/>
<path d="M43.08 203.4H33.08L31.56 208H23.32L33.6 179.8H42.64L52.88 208H44.6L43.08 203.4ZM41.12 197.4L38.08 188.28L35.08 197.4H41.12ZM43 174.24L33 178.16V172.84L43 168.32V174.24ZM63.7153 185.28C65.2353 185.28 66.5553 185.587 67.6753 186.2C68.822 186.813 69.702 187.64 70.3153 188.68V185.56H78.1553V207.76C78.1553 209.867 77.7553 211.76 76.9553 213.44C76.1553 215.147 74.902 216.507 73.1953 217.52C71.5153 218.533 69.382 219.04 66.7953 219.04C63.3286 219.04 60.5553 218.227 58.4753 216.6C56.3953 214.973 55.2086 212.76 54.9153 209.96H62.6353C62.7953 210.68 63.1953 211.24 63.8353 211.64C64.4753 212.04 65.302 212.24 66.3153 212.24C68.982 212.24 70.3153 210.747 70.3153 207.76V204.88C69.702 205.92 68.822 206.747 67.6753 207.36C66.5553 207.973 65.2353 208.28 63.7153 208.28C61.9286 208.28 60.302 207.813 58.8353 206.88C57.3953 205.947 56.2486 204.613 55.3953 202.88C54.5686 201.12 54.1553 199.08 54.1553 196.76C54.1553 194.44 54.5686 192.413 55.3953 190.68C56.2486 188.947 57.3953 187.613 58.8353 186.68C60.302 185.747 61.9286 185.28 63.7153 185.28ZM70.3153 196.76C70.3153 195.32 69.9153 194.187 69.1153 193.36C68.342 192.533 67.382 192.12 66.2353 192.12C65.062 192.12 64.0886 192.533 63.3153 193.36C62.542 194.16 62.1553 195.293 62.1553 196.76C62.1553 198.2 62.542 199.347 63.3153 200.2C64.0886 201.027 65.062 201.44 66.2353 201.44C67.382 201.44 68.342 201.027 69.1153 200.2C69.9153 199.373 70.3153 198.227 70.3153 196.76ZM105.583 185.56V208H97.7028V204.8C97.0361 205.813 96.1161 206.64 94.9428 207.28C93.7695 207.893 92.4228 208.2 90.9028 208.2C88.2895 208.2 86.2228 207.347 84.7028 205.64C83.2095 203.907 82.4628 201.56 82.4628 198.6V185.56H90.2628V197.6C90.2628 198.88 90.5961 199.893 91.2628 200.64C91.9561 201.36 92.8628 201.72 93.9828 201.72C95.1295 201.72 96.0361 201.36 96.7028 200.64C97.3695 199.893 97.7028 198.88 97.7028 197.6V185.56H105.583ZM108.765 196.76C108.765 194.44 109.178 192.413 110.005 190.68C110.858 188.947 112.005 187.613 113.445 186.68C114.911 185.747 116.538 185.28 118.325 185.28C119.871 185.28 121.205 185.587 122.325 186.2C123.445 186.813 124.311 187.64 124.925 188.68V185.56H132.765V208H124.925V204.88C124.311 205.92 123.431 206.747 122.285 207.36C121.165 207.973 119.845 208.28 118.325 208.28C116.538 208.28 114.911 207.813 113.445 206.88C112.005 205.947 110.858 204.613 110.005 202.88C109.178 201.12 108.765 199.08 108.765 196.76ZM124.925 196.76C124.925 195.32 124.525 194.187 123.725 193.36C122.951 192.533 121.991 192.12 120.845 192.12C119.671 192.12 118.698 192.533 117.925 193.36C117.151 194.16 116.765 195.293 116.765 196.76C116.765 198.2 117.151 199.347 117.925 200.2C118.698 201.027 119.671 201.44 120.845 201.44C121.991 201.44 122.951 201.027 123.725 200.2C124.525 199.373 124.925 198.227 124.925 196.76ZM166.328 196.52C166.328 197.133 166.288 197.747 166.208 198.36H151.368C151.448 199.587 151.782 200.507 152.368 201.12C152.982 201.707 153.755 202 154.688 202C155.995 202 156.928 201.413 157.488 200.24H165.848C165.502 201.787 164.822 203.173 163.808 204.4C162.822 205.6 161.568 206.547 160.048 207.24C158.528 207.933 156.848 208.28 155.008 208.28C152.795 208.28 150.822 207.813 149.088 206.88C147.382 205.947 146.035 204.613 145.048 202.88C144.088 201.147 143.608 199.107 143.608 196.76C143.608 194.413 144.088 192.387 145.048 190.68C146.008 188.947 147.342 187.613 149.048 186.68C150.782 185.747 152.768 185.28 155.008 185.28C157.222 185.28 159.182 185.733 160.888 186.64C162.595 187.547 163.928 188.853 164.888 190.56C165.848 192.24 166.328 194.227 166.328 196.52ZM158.328 194.56C158.328 193.6 158.008 192.853 157.368 192.32C156.728 191.76 155.928 191.48 154.968 191.48C154.008 191.48 153.222 191.747 152.608 192.28C151.995 192.787 151.595 193.547 151.408 194.56H158.328ZM187.833 208.28C184.553 208.28 181.86 207.507 179.753 205.96C177.646 204.387 176.513 202.147 176.353 199.24H184.713C184.793 200.227 185.086 200.947 185.593 201.4C186.1 201.853 186.753 202.08 187.553 202.08C188.273 202.08 188.86 201.907 189.313 201.56C189.793 201.187 190.033 200.68 190.033 200.04C190.033 199.213 189.646 198.573 188.873 198.12C188.1 197.667 186.846 197.16 185.113 196.6C183.273 195.987 181.78 195.4 180.633 194.84C179.513 194.253 178.526 193.413 177.673 192.32C176.846 191.2 176.433 189.747 176.433 187.96C176.433 186.147 176.886 184.6 177.793 183.32C178.7 182.013 179.953 181.027 181.553 180.36C183.153 179.693 184.966 179.36 186.993 179.36C190.273 179.36 192.886 180.133 194.833 181.68C196.806 183.2 197.86 185.347 197.993 188.12H189.473C189.446 187.267 189.18 186.627 188.673 186.2C188.193 185.773 187.566 185.56 186.793 185.56C186.206 185.56 185.726 185.733 185.353 186.08C184.98 186.427 184.793 186.92 184.793 187.56C184.793 188.093 184.993 188.56 185.393 188.96C185.82 189.333 186.34 189.667 186.953 189.96C187.566 190.227 188.473 190.573 189.673 191C191.46 191.613 192.926 192.227 194.073 192.84C195.246 193.427 196.246 194.267 197.073 195.36C197.926 196.427 198.353 197.787 198.353 199.44C198.353 201.12 197.926 202.627 197.073 203.96C196.246 205.293 195.033 206.347 193.433 207.12C191.86 207.893 189.993 208.28 187.833 208.28ZM200.718 196.76C200.718 194.44 201.131 192.413 201.958 190.68C202.811 188.947 203.958 187.613 205.398 186.68C206.864 185.747 208.491 185.28 210.278 185.28C211.824 185.28 213.158 185.587 214.278 186.2C215.398 186.813 216.264 187.64 216.878 188.68V185.56H224.718V208H216.878V204.88C216.264 205.92 215.384 206.747 214.238 207.36C213.118 207.973 211.798 208.28 210.278 208.28C208.491 208.28 206.864 207.813 205.398 206.88C203.958 205.947 202.811 204.613 201.958 202.88C201.131 201.12 200.718 199.08 200.718 196.76ZM216.878 196.76C216.878 195.32 216.478 194.187 215.678 193.36C214.904 192.533 213.944 192.12 212.798 192.12C211.624 192.12 210.651 192.533 209.878 193.36C209.104 194.16 208.718 195.293 208.718 196.76C208.718 198.2 209.104 199.347 209.878 200.2C210.651 201.027 211.624 201.44 212.798 201.44C213.944 201.44 214.904 201.027 215.678 200.2C216.478 199.373 216.878 198.227 216.878 196.76ZM237.025 178.4V208H229.185V178.4H237.025Z" fill="white"/>
<path d="M416.824 85.8858L463.393 85.8858C465.878 85.8858 467.893 87.9006 467.893 90.3858L467.893 136.954C467.893 139.44 465.878 141.454 463.393 141.454L416.824 141.454C414.339 141.454 412.324 139.44 412.324 136.954L412.324 90.3858C412.324 87.9005 414.339 85.8858 416.824 85.8858Z" fill="white"/>
<path d="M416.824 85.8858L463.393 85.8858C465.878 85.8858 467.893 87.9006 467.893 90.3858L467.893 136.954C467.893 139.44 465.878 141.454 463.393 141.454L416.824 141.454C414.339 141.454 412.324 139.44 412.324 136.954L412.324 90.3858C412.324 87.9005 414.339 85.8858 416.824 85.8858Z" fill="#E0CBCB" fill-opacity="0.2"/>
<path d="M416.824 85.8858L463.393 85.8858C465.878 85.8858 467.893 87.9006 467.893 90.3858L467.893 136.954C467.893 139.44 465.878 141.454 463.393 141.454L416.824 141.454C414.339 141.454 412.324 139.44 412.324 136.954L412.324 90.3858C412.324 87.9005 414.339 85.8858 416.824 85.8858Z" stroke="#FFCB00"/>
<circle cx="420" cy="94.0001" r="2" fill="#C4C4C4"/>
<circle cx="430" cy="94.0001" r="2" fill="#C4C4C4"/>
<circle cx="440" cy="94.0001" r="2" fill="#C4C4C4"/>
<circle cx="450" cy="94.0001" r="2" fill="#C4C4C4"/>
<circle cx="460" cy="94.0001" r="2" fill="#C4C4C4"/>
<circle cx="420" cy="104" r="2" fill="#C4C4C4"/>
<circle cx="430" cy="104" r="2" fill="#C4C4C4"/>
<circle cx="440" cy="104" r="2" fill="#C4C4C4"/>
<circle cx="450" cy="104" r="2" fill="#C4C4C4"/>
<circle cx="460" cy="104" r="2" fill="#C4C4C4"/>
<circle cx="420" cy="114" r="2" fill="#C4C4C4"/>
<circle cx="430" cy="114" r="2" fill="#C4C4C4"/>
<circle cx="440" cy="114" r="2" fill="#C4C4C4"/>
<circle cx="450" cy="114" r="2" fill="#C4C4C4"/>
<circle cx="460" cy="114" r="2" fill="#C4C4C4"/>
<circle cx="420" cy="124" r="2" fill="#C4C4C4"/>
<circle cx="430" cy="124" r="2" fill="#C4C4C4"/>
<circle cx="440" cy="124" r="2" fill="#C4C4C4"/>
<circle cx="450" cy="124" r="2" fill="#C4C4C4"/>
<circle cx="460" cy="124" r="2" fill="#C4C4C4"/>
<circle cx="420" cy="134" r="2" fill="#C4C4C4"/>
<circle cx="430" cy="134" r="2" fill="#C4C4C4"/>
<circle cx="440" cy="134" r="2" fill="#C4C4C4"/>
<circle cx="450" cy="134" r="2" fill="#C4C4C4"/>
<circle cx="460" cy="134" r="2" fill="#C4C4C4"/>
<path d="M450.284 115.216L496.853 115.216C499.338 115.216 501.353 117.231 501.353 119.716L501.353 166.284C501.353 168.77 499.338 170.784 496.853 170.784L450.284 170.784C447.799 170.784 445.784 168.77 445.784 166.284L445.784 119.716C445.784 117.231 447.799 115.216 450.284 115.216Z" fill="white"/>
<path d="M450.284 115.216L496.853 115.216C499.338 115.216 501.353 117.231 501.353 119.716L501.353 166.284C501.353 168.77 499.338 170.784 496.853 170.784L450.284 170.784C447.799 170.784 445.784 168.77 445.784 166.284L445.784 119.716C445.784 117.231 447.799 115.216 450.284 115.216Z" fill="#E0CBCB" fill-opacity="0.2"/>
<path d="M450.284 115.216L496.853 115.216C499.338 115.216 501.353 117.231 501.353 119.716L501.353 166.284C501.353 168.77 499.338 170.784 496.853 170.784L450.284 170.784C447.799 170.784 445.784 168.77 445.784 166.284L445.784 119.716C445.784 117.231 447.799 115.216 450.284 115.216Z" stroke="#FFCB00"/>
<circle cx="454" cy="122" r="2" fill="#C4C4C4"/>
<circle cx="464" cy="122" r="2" fill="#C4C4C4"/>
<circle cx="474" cy="122" r="2" fill="#C4C4C4"/>
<circle cx="484" cy="122" r="2" fill="#C4C4C4"/>
<circle cx="494" cy="122" r="2" fill="#C4C4C4"/>
<circle cx="454" cy="132" r="2" fill="#C4C4C4"/>
<circle cx="464" cy="132" r="2" fill="#C4C4C4"/>
<circle cx="474" cy="132" r="2" fill="#C4C4C4"/>
<circle cx="484" cy="132" r="2" fill="#C4C4C4"/>
<circle cx="494" cy="132" r="2" fill="#C4C4C4"/>
<circle cx="454" cy="142" r="2" fill="#C4C4C4"/>
<circle cx="464" cy="142" r="2" fill="#C4C4C4"/>
<circle cx="474" cy="142" r="2" fill="#C4C4C4"/>
<circle cx="484" cy="142" r="2" fill="#C4C4C4"/>
<circle cx="494" cy="142" r="2" fill="#C4C4C4"/>
<circle cx="454" cy="152" r="2" fill="#C4C4C4"/>
<circle cx="464" cy="152" r="2" fill="#C4C4C4"/>
<circle cx="474" cy="152" r="2" fill="#C4C4C4"/>
<circle cx="484" cy="152" r="2" fill="#C4C4C4"/>
<circle cx="494" cy="152" r="2" fill="#C4C4C4"/>
<circle cx="454" cy="162" r="2" fill="#C4C4C4"/>
<circle cx="464" cy="162" r="2" fill="#C4C4C4"/>
<circle cx="474" cy="162" r="2" fill="#C4C4C4"/>
<circle cx="484" cy="162" r="2" fill="#C4C4C4"/>
<circle cx="494" cy="162" r="2" fill="#C4C4C4"/>
<path d="M480.607 140.546L527.176 140.546C529.661 140.546 531.676 142.56 531.676 145.046L531.676 191.614C531.676 194.1 529.661 196.114 527.176 196.114L480.607 196.114C478.122 196.114 476.107 194.1 476.107 191.614L476.107 145.046C476.107 142.56 478.122 140.546 480.607 140.546Z" fill="white"/>
<path d="M480.607 140.546L527.176 140.546C529.661 140.546 531.676 142.56 531.676 145.046L531.676 191.614C531.676 194.1 529.661 196.114 527.176 196.114L480.607 196.114C478.122 196.114 476.107 194.1 476.107 191.614L476.107 145.046C476.107 142.56 478.122 140.546 480.607 140.546Z" fill="#E0CBCB" fill-opacity="0.2"/>
<path d="M480.607 140.546L527.176 140.546C529.661 140.546 531.676 142.56 531.676 145.046L531.676 191.614C531.676 194.1 529.661 196.114 527.176 196.114L480.607 196.114C478.122 196.114 476.107 194.1 476.107 191.614L476.107 145.046C476.107 142.56 478.122 140.546 480.607 140.546Z" stroke="#FFCB00"/>
<circle cx="484" cy="148" r="2" fill="#C4C4C4"/>
<circle cx="494" cy="148" r="2" fill="#C4C4C4"/>
<circle cx="504" cy="148" r="2" fill="#C4C4C4"/>
<circle cx="514" cy="148" r="2" fill="#C4C4C4"/>
<circle cx="524" cy="148" r="2" fill="#C4C4C4"/>
<circle cx="484" cy="158" r="2" fill="#C4C4C4"/>
<circle cx="494" cy="158" r="2" fill="#C4C4C4"/>
<circle cx="504" cy="158" r="2" fill="#C4C4C4"/>
<circle cx="514" cy="158" r="2" fill="#C4C4C4"/>
<circle cx="524" cy="158" r="2" fill="#C4C4C4"/>
<circle cx="484" cy="168" r="2" fill="#C4C4C4"/>
<circle cx="494" cy="168" r="2" fill="#C4C4C4"/>
<circle cx="504" cy="168" r="2" fill="#C4C4C4"/>
<circle cx="514" cy="168" r="2" fill="#C4C4C4"/>
<circle cx="524" cy="168" r="2" fill="#C4C4C4"/>
<circle cx="484" cy="178" r="2" fill="#C4C4C4"/>
<circle cx="494" cy="178" r="2" fill="#C4C4C4"/>
<circle cx="504" cy="178" r="2" fill="#C4C4C4"/>
<circle cx="514" cy="178" r="2" fill="#C4C4C4"/>
<circle cx="524" cy="178" r="2" fill="#C4C4C4"/>
<circle cx="484" cy="188" r="2" fill="#C4C4C4"/>
<circle cx="494" cy="188" r="2" fill="#C4C4C4"/>
<circle cx="504" cy="188" r="2" fill="#C4C4C4"/>
<circle cx="514" cy="188" r="2" fill="#C4C4C4"/>
<circle cx="524" cy="188" r="2" fill="#C4C4C4"/>
</svg>
