<svg viewBox="0 0 118 118" fill="none" xmlns="http://www.w3.org/2000/svg">
    <g filter="url(#filter0_i_1_7)">
        <rect x="63.3146" width="83.6537" height="83.6537" rx="25" transform="rotate(49.1887 63.3146 0)" fill="url(#paint0_linear_1_7)"/>
    </g>
    <path d="M67.1803 60.8C68.5298 60.8 69.7173 60.062 70.3291 58.946L76.7707 47.264C77.4365 46.076 76.5728 44.6 75.2053 44.6H48.5752L46.8838 41H41V44.6H44.5987L51.0763 58.262L48.6472 62.654C47.3336 65.066 49.061 68 51.796 68H73.388V64.4H51.796L53.7753 60.8H67.1803ZM50.2846 48.2H72.1464L67.1803 57.2H54.549L50.2846 48.2ZM51.796 69.8C49.8167 69.8 48.2153 71.42 48.2153 73.4C48.2153 75.38 49.8167 77 51.796 77C53.7753 77 55.3947 75.38 55.3947 73.4C55.3947 71.42 53.7753 69.8 51.796 69.8ZM69.7893 69.8C67.81 69.8 66.2086 71.42 66.2086 73.4C66.2086 75.38 67.81 77 69.7893 77C71.7686 77 73.388 75.38 73.388 73.4C73.388 71.42 71.7686 69.8 69.7893 69.8Z" fill="white"/>
    <path d="M165.372 58.308C161.508 58.308 159.576 56.432 159.576 52.68V47.416H158.4C157.299 47.416 156.748 46.8933 156.748 45.848C156.748 44.784 157.299 44.252 158.4 44.252H159.576V42.124C159.576 40.6867 160.285 39.968 161.704 39.968C163.104 39.968 163.804 40.6867 163.804 42.124V44.252H166.464C167.547 44.252 168.088 44.784 168.088 45.848C168.088 46.8933 167.547 47.416 166.464 47.416H163.804V52.512C163.804 53.296 163.981 53.884 164.336 54.276C164.709 54.668 165.297 54.864 166.1 54.864C166.38 54.864 166.641 54.836 166.884 54.78C167.127 54.724 167.351 54.6867 167.556 54.668C167.817 54.6493 168.032 54.7333 168.2 54.92C168.368 55.1067 168.452 55.4893 168.452 56.068C168.452 56.5347 168.377 56.936 168.228 57.272C168.079 57.5893 167.817 57.8227 167.444 57.972C167.201 58.0653 166.865 58.14 166.436 58.196C166.025 58.2707 165.671 58.308 165.372 58.308ZM176.416 58.308C174.941 58.308 173.653 58.0187 172.552 57.44C171.469 56.8427 170.629 56.012 170.032 54.948C169.434 53.8653 169.136 52.5867 169.136 51.112C169.136 49.656 169.434 48.396 170.032 47.332C170.629 46.2493 171.469 45.4187 172.552 44.84C173.653 44.2613 174.941 43.972 176.416 43.972C177.89 43.972 179.169 44.2613 180.252 44.84C181.353 45.4187 182.202 46.2493 182.8 47.332C183.416 48.396 183.724 49.656 183.724 51.112C183.724 52.5867 183.416 53.8653 182.8 54.948C182.202 56.012 181.353 56.8427 180.252 57.44C179.169 58.0187 177.89 58.308 176.416 58.308ZM176.416 55.144C177.312 55.144 178.04 54.8173 178.6 54.164C179.178 53.5107 179.468 52.4933 179.468 51.112C179.468 49.7493 179.178 48.7507 178.6 48.116C178.04 47.4627 177.312 47.136 176.416 47.136C175.52 47.136 174.792 47.4627 174.232 48.116C173.672 48.7507 173.392 49.7493 173.392 51.112C173.392 52.4933 173.672 53.5107 174.232 54.164C174.792 54.8173 175.52 55.144 176.416 55.144ZM188.48 58.252C187.024 58.252 186.296 57.5333 186.296 56.096V46.156C186.296 44.7373 186.987 44.028 188.368 44.028C189.749 44.028 190.44 44.7373 190.44 46.156V46.66C191.112 44.9987 192.503 44.1027 194.612 43.972C195.079 43.9347 195.433 44.056 195.676 44.336C195.937 44.5973 196.077 45.036 196.096 45.652C196.133 46.2307 196.012 46.688 195.732 47.024C195.471 47.36 195.023 47.5653 194.388 47.64L193.744 47.696C191.653 47.9013 190.608 48.9653 190.608 50.888V56.096C190.608 57.5333 189.899 58.252 188.48 58.252ZM204.729 58.308C203.105 58.308 201.705 58.0187 200.529 57.44C199.372 56.8427 198.476 56.012 197.841 54.948C197.225 53.8653 196.917 52.596 196.917 51.14C196.917 49.7213 197.216 48.48 197.813 47.416C198.429 46.3333 199.26 45.4933 200.305 44.896C201.369 44.28 202.592 43.972 203.973 43.972C205.97 43.972 207.557 44.6067 208.733 45.876C209.909 47.1267 210.497 48.8253 210.497 50.972C210.497 51.6813 210.058 52.036 209.181 52.036H200.949C201.098 53.1187 201.49 53.912 202.125 54.416C202.778 54.9013 203.674 55.144 204.813 55.144C205.261 55.144 205.765 55.0973 206.325 55.004C206.904 54.892 207.454 54.7053 207.977 54.444C208.518 54.1827 208.976 54.136 209.349 54.304C209.722 54.4533 209.974 54.7147 210.105 55.088C210.254 55.4613 210.254 55.8533 210.105 56.264C209.974 56.656 209.666 56.9827 209.181 57.244C208.528 57.5987 207.8 57.86 206.997 58.028C206.213 58.2147 205.457 58.308 204.729 58.308ZM204.141 46.772C203.245 46.772 202.517 47.0427 201.957 47.584C201.416 48.1253 201.08 48.8813 200.949 49.852H206.997C206.885 47.7987 205.933 46.772 204.141 46.772ZM165.372 83.308C161.508 83.308 159.576 81.432 159.576 77.68V72.416H158.4C157.299 72.416 156.748 71.8933 156.748 70.848C156.748 69.784 157.299 69.252 158.4 69.252H159.576V67.124C159.576 65.6867 160.285 64.968 161.704 64.968C163.104 64.968 163.804 65.6867 163.804 67.124V69.252H166.464C167.547 69.252 168.088 69.784 168.088 70.848C168.088 71.8933 167.547 72.416 166.464 72.416H163.804V77.512C163.804 78.296 163.981 78.884 164.336 79.276C164.709 79.668 165.297 79.864 166.1 79.864C166.38 79.864 166.641 79.836 166.884 79.78C167.127 79.724 167.351 79.6867 167.556 79.668C167.817 79.6493 168.032 79.7333 168.2 79.92C168.368 80.1067 168.452 80.4893 168.452 81.068C168.452 81.5347 168.377 81.936 168.228 82.272C168.079 82.5893 167.817 82.8227 167.444 82.972C167.201 83.0653 166.865 83.14 166.436 83.196C166.025 83.2707 165.671 83.308 165.372 83.308ZM176.416 83.308C174.941 83.308 173.653 83.0187 172.552 82.44C171.469 81.8427 170.629 81.012 170.032 79.948C169.434 78.8653 169.136 77.5867 169.136 76.112C169.136 74.656 169.434 73.396 170.032 72.332C170.629 71.2493 171.469 70.4187 172.552 69.84C173.653 69.2613 174.941 68.972 176.416 68.972C177.89 68.972 179.169 69.2613 180.252 69.84C181.353 70.4187 182.202 71.2493 182.8 72.332C183.416 73.396 183.724 74.656 183.724 76.112C183.724 77.5867 183.416 78.8653 182.8 79.948C182.202 81.012 181.353 81.8427 180.252 82.44C179.169 83.0187 177.89 83.308 176.416 83.308ZM176.416 80.144C177.312 80.144 178.04 79.8173 178.6 79.164C179.178 78.5107 179.468 77.4933 179.468 76.112C179.468 74.7493 179.178 73.7507 178.6 73.116C178.04 72.4627 177.312 72.136 176.416 72.136C175.52 72.136 174.792 72.4627 174.232 73.116C173.672 73.7507 173.392 74.7493 173.392 76.112C173.392 77.4933 173.672 78.5107 174.232 79.164C174.792 79.8173 175.52 80.144 176.416 80.144ZM192.988 83.308C191.495 83.308 190.188 83.0187 189.068 82.44C187.967 81.8427 187.117 81.0027 186.52 79.92C185.923 78.8373 185.624 77.5587 185.624 76.084C185.624 74.6093 185.923 73.34 186.52 72.276C187.117 71.212 187.967 70.4 189.068 69.84C190.188 69.2613 191.495 68.972 192.988 68.972C193.567 68.972 194.183 69.0467 194.836 69.196C195.508 69.3267 196.152 69.56 196.768 69.896C197.235 70.12 197.524 70.4373 197.636 70.848C197.748 71.24 197.72 71.632 197.552 72.024C197.403 72.416 197.151 72.7053 196.796 72.892C196.46 73.06 196.059 73.0227 195.592 72.78C194.845 72.388 194.117 72.192 193.408 72.192C192.307 72.192 191.448 72.5373 190.832 73.228C190.235 73.9 189.936 74.8613 189.936 76.112C189.936 77.344 190.235 78.3147 190.832 79.024C191.448 79.7147 192.307 80.06 193.408 80.06C193.744 80.06 194.099 80.0227 194.472 79.948C194.845 79.8547 195.219 79.7053 195.592 79.5C196.059 79.2573 196.46 79.2293 196.796 79.416C197.151 79.6027 197.393 79.892 197.524 80.284C197.655 80.6573 197.664 81.0493 197.552 81.46C197.44 81.8707 197.16 82.188 196.712 82.412C196.077 82.7293 195.443 82.9533 194.808 83.084C194.173 83.2333 193.567 83.308 192.988 83.308ZM201.795 83.252C200.376 83.252 199.667 82.5333 199.667 81.096V65.164C199.667 63.7267 200.376 63.008 201.795 63.008C203.195 63.008 203.895 63.7267 203.895 65.164V74.936H203.951L208.011 70.428C208.422 69.9613 208.795 69.616 209.131 69.392C209.467 69.1493 209.934 69.028 210.531 69.028C211.11 69.028 211.558 69.1773 211.875 69.476C212.192 69.756 212.351 70.12 212.351 70.568C212.351 70.9973 212.164 71.4173 211.791 71.828L208.207 75.832L212.267 80.508C212.622 80.956 212.771 81.3947 212.715 81.824C212.678 82.2347 212.491 82.58 212.155 82.86C211.819 83.1213 211.39 83.252 210.867 83.252C210.214 83.252 209.7 83.1307 209.327 82.888C208.972 82.6453 208.59 82.272 208.179 81.768L203.951 77.064H203.895V81.096C203.895 82.5333 203.195 83.252 201.795 83.252Z" fill="white"/>
    
    <defs>
        <filter id="filter0_i_1_7" x="10.2605" y="10.2605" width="97.4672" height="101.467" filterUnits="userSpaceOnUse" color-interpolation-filters="sRGB">
            <feFlood flood-opacity="0" result="BackgroundImageFix"/>
            <feBlend mode="normal" in="SourceGraphic" in2="BackgroundImageFix" result="shape"/>
            <feColorMatrix in="SourceAlpha" type="matrix" values="0 0 0 0 0 0 0 0 0 0 0 0 0 0 0 0 0 0 127 0" result="hardAlpha"/>
            <feOffset dy="10"/>
            <feGaussianBlur stdDeviation="2"/>
            <feComposite in2="hardAlpha" operator="arithmetic" k2="-1" k3="1"/>
            <feColorMatrix type="matrix" values="0 0 0 0 0 0 0 0 0 0 0 0 0 0 0 0 0 0 0.25 0"/>
            <feBlend mode="normal" in2="shape" result="effect1_innerShadow_1_7"/>
        </filter>
        <linearGradient id="paint0_linear_1_7" x1="64.4615" y1="163.918" x2="147.031" y2="8.62645" gradientUnits="userSpaceOnUse">
            <stop stop-color="#020C23"/>
            <stop offset="0.579443" stop-color="#0085FF"/>
            <stop offset="1" stop-color="#091126"/>
        </linearGradient>
    </defs>
</svg>