<svg width="235" height="262" viewBox="0 0 235 262" fill="none" xmlns="http://www.w3.org/2000/svg">
<path d="M235 234.672C235 245.8 181.909 264.096 119.223 261.217C48.5412 263.136 -0.0724226 249.064 2.1664 231.793C2.1664 220.665 52.2258 197.892 116.344 197.892C180.463 197.892 235 223.544 235 234.672Z" fill="#C4C4C4"/>
<path d="M29.8704 83.8858L24.4853 85.0042L24.1813 87.6514L19.744 88.573L22.1257 72.2373L26.9938 71.2262L35.6623 85.2668L31.2034 86.1929L29.8704 83.8858ZM28.1438 80.8739L25.4867 76.3028L24.8912 81.5495L28.1438 80.8739ZM37.9495 68.1643L41.2602 84.1041L37.0383 84.981L33.7276 69.0412L37.9495 68.1643ZM43.0545 69.9576C42.3077 70.1127 41.6628 70.0369 41.1198 69.7303C40.5881 69.4063 40.2582 68.9356 40.1299 68.3181C39.9987 67.6862 40.1124 67.1159 40.4711 66.607C40.8441 66.0951 41.404 65.7616 42.1507 65.6065C42.8831 65.4544 43.5151 65.5403 44.0468 65.8643C44.5928 66.1853 44.9314 66.6617 45.0627 67.2936C45.1909 67.9111 45.0685 68.4757 44.6955 68.9876C44.3338 69.4822 43.7868 69.8055 43.0545 69.9576ZM45.3765 70.6438L47.8864 82.7279L43.6645 83.6047L41.1546 71.5206L45.3765 70.6438ZM63.5474 66.7573C65.0696 66.4412 66.357 66.6531 67.4095 67.3932C68.4763 68.1303 69.1753 69.2959 69.5064 70.8899L70.9693 77.9336L66.7474 78.8104L65.4008 72.3268C65.2666 71.6806 64.9827 71.2153 64.5491 70.9308C64.1155 70.6464 63.59 70.5683 62.9725 70.6966C62.355 70.8248 61.9041 71.1057 61.6196 71.5393C61.3352 71.9729 61.2601 72.5127 61.3943 73.159L62.7409 79.6426L58.519 80.5195L57.1724 74.0358C57.0382 73.3896 56.7543 72.9243 56.3207 72.6399C55.9015 72.3524 55.3831 72.2729 54.7657 72.4011C54.1338 72.5323 53.6757 72.8147 53.3912 73.2483C53.1068 73.6819 53.0317 74.2218 53.1659 74.868L54.5125 81.3516L50.2906 82.2285L47.7808 70.1444L52.0027 69.2675L52.3337 70.8615C52.5997 70.267 52.9958 69.7578 53.5219 69.3339C54.0594 68.8927 54.7159 68.5916 55.4914 68.4306C56.3817 68.2456 57.2118 68.2755 57.9816 68.52C58.7658 68.7616 59.432 69.1925 59.9802 69.8126C60.2738 69.0625 60.7307 68.4134 61.3508 67.8652C61.968 67.3026 62.7002 66.9333 63.5474 66.7573ZM83.544 68.8731C83.6126 69.2033 83.6596 69.5381 83.6851 69.8773L75.6937 71.5372C75.874 72.1888 76.1564 72.6469 76.5409 72.9116C76.9368 73.1589 77.3861 73.2304 77.8887 73.126C78.5923 72.9798 79.0293 72.5595 79.1996 71.865L83.7016 70.93C83.6879 71.8017 83.4768 72.6244 83.0683 73.3984C82.6712 74.1549 82.1021 74.8049 81.3611 75.3483C80.6202 75.8916 79.7542 76.2662 78.7634 76.472C77.5715 76.7196 76.4566 76.689 75.4188 76.3802C74.3954 76.0685 73.5211 75.5011 72.7959 74.6781C72.085 73.852 71.5984 72.8072 71.3359 71.5435C71.0735 70.2798 71.1053 69.1347 71.4313 68.1083C71.7544 67.0675 72.3233 66.2004 73.138 65.5069C73.967 64.8104 74.9846 64.3369 76.1909 64.0864C77.3828 63.8388 78.489 63.8637 79.5094 64.1611C80.5299 64.4584 81.3941 65.0129 82.1019 65.8246C82.8068 66.6219 83.2875 67.6381 83.544 68.8731ZM79.0167 68.7124C78.9093 68.1954 78.6535 67.8291 78.2492 67.6135C77.8419 67.3835 77.3798 67.3222 76.8628 67.4296C76.3458 67.5369 75.952 67.7685 75.6814 68.1243C75.4078 68.4658 75.2774 68.9198 75.2902 69.4863L79.0167 68.7124ZM32.8618 106.835C34.2548 106.546 35.4574 106.783 36.4698 107.546C37.4792 108.295 38.148 109.459 38.4761 111.039L39.939 118.083L35.7171 118.96L34.3705 112.476C34.2273 111.787 33.936 111.286 33.4965 110.972C33.0539 110.645 32.5311 110.544 31.928 110.669C31.2961 110.8 30.8425 111.104 30.567 111.581C30.2885 112.043 30.2208 112.619 30.364 113.308L31.7107 119.792L27.4888 120.669L24.9789 108.585L29.2008 107.708L29.5587 109.431C29.8187 108.808 30.2304 108.265 30.7936 107.804C31.3539 107.328 32.0433 107.005 32.8618 106.835ZM48.6383 112.524L49.3855 116.121L47.5545 116.501C44.4671 117.142 42.6057 115.934 41.9704 112.875L41.1428 108.89L39.6565 109.199L38.9272 105.688L40.4135 105.379L39.8051 102.449L44.0485 101.568L44.657 104.497L46.8541 104.041L47.5833 107.552L45.3862 108.009L46.2273 112.058C46.2959 112.388 46.4169 112.61 46.5903 112.724C46.7781 112.835 47.0515 112.853 47.4105 112.779L48.6383 112.524ZM56.9752 114.702C55.769 114.952 54.6326 114.926 53.5661 114.623C52.5139 114.318 51.6181 113.755 50.8785 112.935C50.1389 112.115 49.6379 111.073 49.3755 109.809C49.116 108.56 49.1621 107.412 49.514 106.365C49.8801 105.315 50.4849 104.44 51.3283 103.741C52.186 103.039 53.218 102.562 54.4243 102.312C55.6306 102.061 56.7598 102.089 57.8119 102.394C58.8785 102.697 59.7815 103.259 60.521 104.079C61.275 104.896 61.7817 105.929 62.0412 107.178C62.3006 108.428 62.2488 109.584 61.8856 110.648C61.5338 111.695 60.929 112.57 60.0712 113.272C59.2135 113.975 58.1815 114.451 56.9752 114.702ZM56.2147 111.04C56.8035 110.918 57.247 110.601 57.5452 110.089C57.8548 109.561 57.9246 108.887 57.7546 108.069C57.5846 107.25 57.2538 106.667 56.7623 106.32C56.2851 105.97 55.7593 105.854 55.1849 105.973C54.6105 106.093 54.1741 106.408 53.8759 106.919C53.5776 107.431 53.5135 108.096 53.6835 108.914C53.8565 109.747 54.1744 110.34 54.6373 110.693C55.1001 111.047 55.6259 111.162 56.2147 111.04Z" fill="white"/>
<path d="M49.0287 127.666L39.2377 129.699L38.6849 134.512L30.6171 136.188L34.9475 106.487L43.7986 104.648L59.5594 130.177L51.4524 131.86L49.0287 127.666ZM45.8895 122.19L41.0584 113.878L39.9757 123.418L45.8895 122.19ZM58.5223 118.912C58.0505 116.641 58.1083 114.559 58.6958 112.666C59.2832 110.774 60.3176 109.197 61.7988 107.936C63.3061 106.67 65.1433 105.812 67.3104 105.362C70.1041 104.782 72.6139 105.064 74.8398 106.208C77.0604 107.327 78.7295 109.2 79.8472 111.827L71.701 113.519C70.9328 112.181 69.8698 111.653 68.5121 111.935C67.5461 112.135 66.8599 112.7 66.4536 113.629C66.068 114.526 66.0352 115.745 66.3551 117.285C66.6751 118.826 67.1933 119.944 67.9097 120.639C68.6522 121.329 69.5065 121.574 70.4725 121.373C71.8563 121.086 72.621 120.178 72.7666 118.65L80.9128 116.958C80.9285 119.787 80.1433 122.17 78.5572 124.106C76.9712 126.043 74.7813 127.301 71.9876 127.881C69.8205 128.331 67.7935 128.276 65.9066 127.714C64.0458 127.148 62.4692 126.113 61.1768 124.611C59.8843 123.11 58.9995 121.21 58.5223 118.912ZM95.698 99.5475C98.2045 99.0269 100.365 99.4633 102.18 100.857C104.015 102.219 105.231 104.336 105.827 107.208L108.487 120.014L100.811 121.609L98.3627 109.82C98.1025 108.567 97.5727 107.656 96.7736 107.086C95.969 106.491 95.0184 106.307 93.9218 106.535C92.773 106.773 91.9481 107.326 91.4472 108.193C90.9409 109.033 90.8179 110.08 91.0782 111.333L93.5267 123.122L85.8505 124.716L79.8311 95.7345L87.5072 94.1402L89.614 104.284C90.0868 103.151 90.8352 102.164 91.8593 101.325C92.9041 100.455 94.1837 99.862 95.698 99.5475ZM122.978 117.291C120.785 117.746 118.719 117.699 116.78 117.148C114.867 116.592 113.238 115.569 111.893 114.078C110.548 112.587 109.638 110.692 109.16 108.395C108.689 106.123 108.772 104.036 109.412 102.133C110.078 100.224 111.178 98.6338 112.711 97.3621C114.27 96.0849 116.147 95.2186 118.34 94.763C120.533 94.3075 122.586 94.3577 124.499 94.9136C126.439 95.4641 128.08 96.4849 129.425 97.9759C130.796 99.4616 131.717 101.34 132.189 103.612C132.661 105.883 132.566 107.986 131.906 109.921C131.266 111.824 130.167 113.414 128.607 114.692C127.048 115.969 125.171 116.835 122.978 117.291ZM121.595 110.633C122.666 110.41 123.472 109.834 124.014 108.905C124.577 107.943 124.704 106.719 124.395 105.23C124.086 103.742 123.485 102.682 122.591 102.051C121.723 101.414 120.767 101.204 119.723 101.421C118.679 101.638 117.885 102.211 117.343 103.141C116.801 104.071 116.684 105.28 116.993 106.768C117.308 108.282 117.886 109.36 118.727 110.003C119.569 110.645 120.525 110.855 121.595 110.633ZM134.059 103.223C133.587 100.952 133.645 98.8698 134.232 96.9775C134.82 95.0852 135.854 93.5086 137.335 92.2477C138.842 90.9813 140.68 90.1231 142.847 89.673C145.64 89.0928 148.15 89.3749 150.376 90.5195C152.597 91.638 154.266 93.511 155.384 96.1387L147.237 97.8306C146.469 96.4922 145.406 95.964 144.049 96.246C143.082 96.4466 142.396 97.0113 141.99 97.94C141.604 98.8372 141.572 100.056 141.891 101.596C142.211 103.137 142.73 104.255 143.446 104.95C144.189 105.64 145.043 105.885 146.009 105.685C147.393 105.397 148.157 104.489 148.303 102.961L156.449 101.269C156.465 104.098 155.68 106.481 154.094 108.418C152.508 110.354 150.318 111.612 147.524 112.192C145.357 112.643 143.33 112.587 141.443 112.026C139.582 111.459 138.006 110.424 136.713 108.923C135.421 107.421 134.536 105.521 134.059 103.223ZM171.666 107.178C169.472 107.634 167.406 107.586 165.467 107.036C163.554 106.48 161.925 105.456 160.581 103.965C159.236 102.474 158.325 100.58 157.848 98.2823C157.376 96.0108 157.46 93.9234 158.1 92.0203C158.765 90.1116 159.865 88.5215 161.398 87.2497C162.958 85.9726 164.834 85.1062 167.028 84.6507C169.221 84.1952 171.274 84.2454 173.187 84.8013C175.126 85.3518 176.768 86.3726 178.113 87.8636C179.483 89.3492 180.405 91.2278 180.876 93.4993C181.348 95.7708 181.254 97.874 180.594 99.8087C179.954 101.712 178.854 103.302 177.295 104.579C175.735 105.856 173.859 106.723 171.666 107.178ZM170.283 100.52C171.353 100.298 172.16 99.722 172.702 98.7923C173.265 97.831 173.392 96.6063 173.083 95.1181C172.774 93.6298 172.172 92.57 171.278 91.9385C170.411 91.3017 169.455 91.0917 168.41 91.3086C167.366 91.5255 166.573 92.0988 166.03 93.0285C165.488 93.9582 165.372 95.1672 165.681 96.6554C165.995 98.1698 166.573 99.2481 167.415 99.8904C168.256 100.533 169.212 100.743 170.283 100.52ZM187.942 73.28L193.961 102.261L186.285 103.856L180.266 74.8743L187.942 73.28ZM41.1595 183.799C40.6877 181.527 40.6802 179.459 41.1371 177.594C41.6201 175.723 42.4717 174.184 43.6918 172.978C44.938 171.766 46.4358 170.978 48.1851 170.615C49.6995 170.3 51.0673 170.329 52.2887 170.702C53.51 171.075 54.5266 171.708 55.3387 172.601L54.7042 169.547L62.3804 167.952L66.9437 189.923L59.2675 191.518L58.6331 188.463C58.244 189.606 57.5505 190.594 56.5526 191.428C55.5807 192.256 54.3506 192.825 52.8624 193.134C51.1131 193.497 49.4255 193.371 47.7997 192.756C46.2 192.135 44.8061 191.062 43.6181 189.539C42.4508 187.984 41.6313 186.07 41.1595 183.799ZM56.9818 180.513C56.689 179.103 56.0668 178.074 55.1154 177.428C54.1902 176.776 53.1662 176.566 52.0435 176.799C50.8946 177.038 50.0257 177.64 49.4366 178.607C48.8422 179.548 48.694 180.736 48.9923 182.172C49.2851 183.582 49.8969 184.626 50.8276 185.304C51.7529 185.956 52.79 186.163 53.9388 185.924C55.0615 185.691 55.9174 185.091 56.5064 184.125C57.1216 183.153 57.2801 181.949 56.9818 180.513ZM82.9228 179.782L84.2812 186.322L80.9523 187.014C75.3387 188.18 71.9544 185.982 70.7993 180.421L69.2945 173.175L66.5922 173.737L65.2663 167.353L67.9686 166.792L66.8623 161.465L74.5777 159.863L75.6839 165.189L79.6787 164.359L81.0046 170.743L77.0098 171.573L78.5391 178.936C78.6638 179.536 78.8838 179.94 79.1992 180.147C79.5406 180.348 80.0377 180.381 80.6904 180.246L82.9228 179.782ZM84.263 174.846C83.7912 172.575 83.7838 170.506 84.2407 168.641C84.7237 166.771 85.5752 165.232 86.7954 164.025C88.0416 162.813 89.5393 162.025 91.2887 161.662C92.803 161.348 94.1709 161.377 95.3922 161.749C96.6135 162.122 97.6302 162.755 98.4422 163.649L97.8077 160.594L105.484 159L110.047 180.971L102.371 182.565L101.737 179.51C101.348 180.653 100.654 181.642 99.6561 182.475C98.6842 183.304 97.4542 183.872 95.9659 184.181C94.2166 184.545 92.529 184.419 90.9032 183.803C89.3035 183.182 87.9096 182.11 86.7217 180.586C85.5543 179.031 84.7348 177.118 84.263 174.846ZM100.085 171.56C99.7925 170.15 99.1704 169.122 98.219 168.475C97.2937 167.823 96.2697 167.614 95.147 167.847C93.9982 168.085 93.1292 168.688 92.5402 169.655C91.9457 170.595 91.7976 171.783 92.0958 173.219C92.3887 174.629 93.0004 175.673 93.9312 176.352C94.8564 177.004 95.8935 177.211 97.0423 176.972C98.165 176.739 99.0209 176.139 99.61 175.172C100.225 174.2 100.384 172.996 100.085 171.56ZM110.882 169.317C110.411 167.046 110.403 164.978 110.86 163.112C111.343 161.242 112.208 159.7 113.454 158.488C114.7 157.276 116.198 156.488 117.947 156.125C119.357 155.832 120.673 155.872 121.894 156.245C123.136 156.586 124.176 157.201 125.014 158.089L122.932 148.063L130.647 146.461L136.667 175.442L128.951 177.044L128.317 173.99C127.928 175.133 127.247 176.118 126.275 176.947C125.304 177.775 124.074 178.344 122.585 178.653C120.836 179.016 119.148 178.89 117.523 178.274C115.923 177.653 114.529 176.581 113.341 175.057C112.174 173.502 111.354 171.589 110.882 169.317ZM126.705 166.031C126.412 164.621 125.79 163.593 124.838 162.946C123.913 162.294 122.889 162.085 121.766 162.318C120.618 162.556 119.749 163.159 119.16 164.126C118.565 165.066 118.417 166.255 118.715 167.691C119.008 169.101 119.62 170.145 120.551 170.823C121.476 171.475 122.513 171.682 123.662 171.443C124.784 171.21 125.64 170.61 126.229 169.643C126.845 168.671 127.003 167.467 126.705 166.031ZM151.32 172.685C149.126 173.14 147.06 173.093 145.121 172.542C143.208 171.986 141.579 170.963 140.235 169.472C138.89 167.981 137.979 166.086 137.502 163.789C137.03 161.517 137.114 159.43 137.754 157.527C138.419 155.618 139.519 154.028 141.052 152.756C142.612 151.479 144.488 150.613 146.682 150.157C148.875 149.702 150.928 149.752 152.841 150.308C154.78 150.858 156.422 151.879 157.767 153.37C159.137 154.856 160.059 156.734 160.53 159.006C161.002 161.277 160.908 163.38 160.247 165.315C159.608 167.218 158.508 168.808 156.949 170.086C155.389 171.363 153.513 172.229 151.32 172.685ZM149.937 166.027C151.007 165.804 151.814 165.228 152.356 164.299C152.919 163.337 153.046 162.113 152.737 160.624C152.428 159.136 151.826 158.076 150.932 157.445C150.065 156.808 149.109 156.598 148.064 156.815C147.02 157.032 146.227 157.605 145.684 158.535C145.142 159.465 145.026 160.674 145.335 162.162C145.649 163.676 146.227 164.754 147.069 165.397C147.91 166.039 148.866 166.249 149.937 166.027Z" fill="#233380"/>
<path d="M49.0287 127.666L50.3275 126.915L49.7851 125.977L48.7237 126.197L49.0287 127.666ZM39.2377 129.699L38.9326 128.231L37.8712 128.451L37.7475 129.528L39.2377 129.699ZM38.6849 134.512L38.9899 135.981L40.0514 135.76L40.1751 134.683L38.6849 134.512ZM30.6171 136.188L29.1328 135.971L28.8235 138.092L30.9221 137.657L30.6171 136.188ZM34.9475 106.487L34.6425 105.018L33.6147 105.231L33.4632 106.27L34.9475 106.487ZM43.7986 104.648L45.075 103.86L44.5228 102.966L43.4936 103.18L43.7986 104.648ZM59.5594 130.177L59.8644 131.645L61.9602 131.21L60.8357 129.389L59.5594 130.177ZM51.4524 131.86L50.1536 132.611L50.696 133.55L51.7574 133.329L51.4524 131.86ZM45.8895 122.19L46.1946 123.658L48.2322 123.235L47.1863 121.436L45.8895 122.19ZM41.0584 113.878L42.3552 113.125L40.0788 109.208L39.568 113.709L41.0584 113.878ZM39.9757 123.418L38.4853 123.249L38.2516 125.308L40.2808 124.887L39.9757 123.418ZM48.7237 126.197L38.9326 128.231L39.5427 131.168L49.3338 129.134L48.7237 126.197ZM37.7475 129.528L37.1947 134.341L40.1751 134.683L40.7279 129.87L37.7475 129.528ZM38.3798 133.044L30.312 134.719L30.9221 137.657L38.9899 135.981L38.3798 133.044ZM32.1014 136.404L36.4318 106.703L33.4632 106.27L29.1328 135.971L32.1014 136.404ZM35.2526 107.955L44.1037 106.117L43.4936 103.18L34.6425 105.018L35.2526 107.955ZM42.5223 105.436L58.283 130.965L60.8357 129.389L45.075 103.86L42.5223 105.436ZM59.2543 128.708L51.1474 130.392L51.7574 133.329L59.8644 131.645L59.2543 128.708ZM52.7512 131.11L50.3275 126.915L47.7299 128.416L50.1536 132.611L52.7512 131.11ZM47.1863 121.436L42.3552 113.125L39.7616 114.632L44.5927 122.943L47.1863 121.436ZM39.568 113.709L38.4853 123.249L41.4662 123.587L42.5488 114.048L39.568 113.709ZM40.2808 124.887L46.1946 123.658L45.5845 120.721L39.6707 121.949L40.2808 124.887ZM58.6958 112.666L60.1283 113.111L60.1283 113.111L58.6958 112.666ZM61.7988 107.936L60.8339 106.788L60.8265 106.794L61.7988 107.936ZM74.8398 106.208L74.1539 107.542L74.1651 107.548L74.8398 106.208ZM79.8472 111.827L80.1522 113.296L81.9437 112.924L81.2275 111.24L79.8472 111.827ZM71.701 113.519L70.4001 114.266L70.9414 115.209L72.0061 114.988L71.701 113.519ZM66.4536 113.629L65.0794 113.028L65.0755 113.036L66.4536 113.629ZM67.9097 120.639L66.8648 121.715L66.8765 121.727L66.8885 121.738L67.9097 120.639ZM72.7666 118.65L72.4616 117.181L71.3783 117.406L71.2734 118.508L72.7666 118.65ZM80.9128 116.958L82.4127 116.95L82.4026 115.117L80.6077 115.489L80.9128 116.958ZM78.5572 124.106L79.7177 125.057L79.7177 125.057L78.5572 124.106ZM65.9066 127.714L65.4696 129.149L65.4789 129.152L65.9066 127.714ZM61.1768 124.611L62.3137 123.633L62.3137 123.633L61.1768 124.611ZM59.991 118.607C59.562 116.542 59.6282 114.722 60.1283 113.111L57.2632 112.222C56.5884 114.395 56.539 116.739 57.0536 119.217L59.991 118.607ZM60.1283 113.111C60.6332 111.485 61.5105 110.152 62.7711 109.079L60.8265 106.794C59.1246 108.243 57.9333 110.063 57.2632 112.222L60.1283 113.111ZM62.7636 109.085C64.0583 107.997 65.6607 107.236 67.6154 106.831L67.0053 103.893C64.6258 104.387 62.5539 105.343 60.8339 106.788L62.7636 109.085ZM67.6154 106.831C70.1227 106.31 72.2753 106.576 74.1539 107.542L75.5258 104.874C72.9524 103.551 70.0854 103.253 67.0053 103.893L67.6154 106.831ZM74.1651 107.548C76.0224 108.484 77.4662 110.062 78.4669 112.415L81.2275 111.24C79.9928 108.338 78.0983 106.17 75.5146 104.869L74.1651 107.548ZM79.5421 110.359L71.396 112.051L72.0061 114.988L80.1522 113.296L79.5421 110.359ZM73.0019 112.773C72.5141 111.923 71.8612 111.207 70.9951 110.776C70.1138 110.338 69.1573 110.269 68.2071 110.466L68.8172 113.403C69.2247 113.319 69.4785 113.373 69.6601 113.463C69.857 113.561 70.1197 113.778 70.4001 114.266L73.0019 112.773ZM68.2071 110.466C66.7499 110.769 65.6742 111.668 65.0794 113.028L67.8279 114.23C68.0457 113.732 68.3423 113.502 68.8172 113.403L68.2071 110.466ZM65.0755 113.036C64.5146 114.342 64.539 115.917 64.8865 117.59L67.8238 116.98C67.5314 115.572 67.6214 114.71 67.8317 114.221L65.0755 113.036ZM64.8865 117.59C65.2351 119.269 65.842 120.722 66.8648 121.715L68.9545 119.563C68.5445 119.165 68.1151 118.383 67.8238 116.98L64.8865 117.59ZM66.8885 121.738C67.9755 122.748 69.3203 123.145 70.7776 122.842L70.1675 119.905C69.6926 120.003 69.3289 119.91 68.9308 119.54L66.8885 121.738ZM70.7776 122.842C71.7335 122.643 72.593 122.201 73.2311 121.443C73.8603 120.696 74.1666 119.771 74.2599 118.792L71.2734 118.508C71.2211 119.057 71.0722 119.35 70.9367 119.511C70.8101 119.661 70.5954 119.816 70.1675 119.905L70.7776 122.842ZM73.0717 120.119L81.2178 118.427L80.6077 115.489L72.4616 117.181L73.0717 120.119ZM79.4128 116.966C79.4268 119.494 78.7327 121.525 77.3968 123.156L79.7177 125.057C81.5539 122.815 82.4301 120.08 82.4127 116.95L79.4128 116.966ZM77.3968 123.156C76.0583 124.79 74.1899 125.892 71.6826 126.413L72.2927 129.35C75.3728 128.71 77.8841 127.295 79.7177 125.057L77.3968 123.156ZM71.6826 126.413C69.7279 126.819 67.955 126.759 66.3343 126.277L65.4789 129.152C67.6321 129.793 69.9132 129.844 72.2927 129.35L71.6826 126.413ZM66.3437 126.279C64.76 125.797 63.4245 124.924 62.3137 123.633L60.0398 125.59C61.5139 127.303 63.3316 128.498 65.4696 129.149L66.3437 126.279ZM62.3137 123.633C61.2153 122.357 60.426 120.702 59.991 118.607L57.0536 119.217C57.573 121.718 58.5534 123.863 60.0398 125.59L62.3137 123.633ZM102.18 100.857L101.266 102.046L101.276 102.054L101.286 102.061L102.18 100.857ZM108.487 120.014L108.792 121.483L110.261 121.178L109.956 119.709L108.487 120.014ZM100.811 121.609L99.3425 121.914L99.6476 123.382L101.116 123.077L100.811 121.609ZM96.7736 107.086L95.8812 108.292L95.8921 108.3L95.9032 108.308L96.7736 107.086ZM91.4472 108.193L92.7321 108.967L92.7391 108.955L92.7459 108.943L91.4472 108.193ZM93.5267 123.122L93.8317 124.59L95.3003 124.285L94.9953 122.817L93.5267 123.122ZM85.8505 124.716L84.3818 125.021L84.6869 126.49L86.1555 126.185L85.8505 124.716ZM79.8311 95.7345L79.526 94.2658L78.0574 94.5709L78.3624 96.0395L79.8311 95.7345ZM87.5072 94.1402L88.9759 93.8351L88.6708 92.3665L87.2022 92.6715L87.5072 94.1402ZM89.614 104.284L88.1454 104.589L89.1314 109.336L90.9984 104.861L89.614 104.284ZM91.8593 101.325L92.8101 102.486L92.8196 102.478L91.8593 101.325ZM96.003 101.016C98.1391 100.572 99.8414 100.952 101.266 102.046L103.093 99.667C100.889 97.9742 98.27 97.4813 95.393 98.0788L96.003 101.016ZM101.286 102.061C102.75 103.147 103.815 104.896 104.359 107.513L107.296 106.903C106.647 103.775 105.28 101.29 103.074 99.6521L101.286 102.061ZM104.359 107.513L107.019 120.319L109.956 119.709L107.296 106.903L104.359 107.513ZM108.182 118.546L100.506 120.14L101.116 123.077L108.792 121.483L108.182 118.546ZM102.28 121.304L99.8314 109.515L96.8941 110.125L99.3425 121.914L102.28 121.304ZM99.8314 109.515C99.5183 108.008 98.8354 106.713 97.644 105.865L95.9032 108.308C96.3101 108.598 96.6866 109.126 96.8941 110.125L99.8314 109.515ZM97.6659 105.881C96.4749 104.999 95.0763 104.763 93.6168 105.066L94.2268 108.003C94.9605 107.851 95.4631 107.983 95.8812 108.292L97.6659 105.881ZM93.6168 105.066C92.1287 105.375 90.9006 106.141 90.1486 107.442L92.7459 108.943C92.9956 108.511 93.4173 108.171 94.2268 108.003L93.6168 105.066ZM90.1624 107.419C89.4075 108.672 89.2965 110.131 89.6096 111.638L92.5469 111.028C92.3393 110.029 92.4743 109.395 92.7321 108.967L90.1624 107.419ZM89.6096 111.638L92.058 123.427L94.9953 122.817L92.5469 111.028L89.6096 111.638ZM93.2216 121.653L85.5454 123.247L86.1555 126.185L93.8317 124.59L93.2216 121.653ZM87.3191 124.411L81.2997 95.4294L78.3624 96.0395L84.3818 125.021L87.3191 124.411ZM80.1361 97.2031L87.8123 95.6088L87.2022 92.6715L79.526 94.2658L80.1361 97.2031ZM86.0386 94.4452L88.1454 104.589L91.0827 103.979L88.9759 93.8351L86.0386 94.4452ZM90.9984 104.861C91.3692 103.972 91.9608 103.181 92.81 102.485L90.9086 100.165C89.7097 101.147 88.8044 102.329 88.2297 103.706L90.9984 104.861ZM92.8196 102.478C93.6506 101.785 94.6963 101.288 96.003 101.016L95.393 98.0788C93.671 98.4365 92.1576 99.1241 90.899 100.173L92.8196 102.478ZM116.78 117.148L116.361 118.589L116.37 118.591L116.78 117.148ZM111.893 114.078L113.007 113.073L113.007 113.073L111.893 114.078ZM109.412 102.133L107.996 101.639L107.993 101.647L107.99 101.655L109.412 102.133ZM112.711 97.3621L111.761 96.2015L111.753 96.2075L112.711 97.3621ZM124.499 94.9136L124.081 96.3541L124.09 96.3566L124.499 94.9136ZM129.425 97.9759L128.311 98.9805L128.317 98.9868L128.323 98.9931L129.425 97.9759ZM131.906 109.921L130.486 109.436L130.484 109.443L131.906 109.921ZM128.607 114.692L127.657 113.531L128.607 114.692ZM124.014 108.905L122.72 108.147L122.719 108.149L124.014 108.905ZM122.591 102.051L121.703 103.26L121.714 103.268L121.725 103.276L122.591 102.051ZM118.727 110.003L117.817 111.195L117.817 111.195L118.727 110.003ZM122.673 115.822C120.69 116.234 118.871 116.182 117.189 115.705L116.37 118.591C118.567 119.215 120.88 119.258 123.283 118.759L122.673 115.822ZM117.198 115.708C115.555 115.23 114.167 114.359 113.007 113.073L110.779 115.082C112.309 116.779 114.178 117.954 116.361 118.589L117.198 115.708ZM113.007 113.073C111.869 111.811 111.061 110.171 110.629 108.09L107.692 108.7C108.214 111.213 109.228 113.362 110.779 115.082L113.007 113.073ZM110.629 108.09C110.203 106.038 110.292 104.224 110.834 102.61L107.99 101.655C107.253 103.847 107.174 106.209 107.692 108.7L110.629 108.09ZM110.828 102.627C111.406 100.972 112.349 99.6114 113.669 98.5167L111.753 96.2075C110.007 97.6562 108.75 99.4761 107.996 101.639L110.828 102.627ZM113.661 98.5226C115.014 97.4151 116.662 96.6436 118.645 96.2317L118.035 93.2944C115.632 93.7935 113.527 94.7547 111.761 96.2016L113.661 98.5226ZM118.645 96.2317C120.629 95.8197 122.431 95.8746 124.081 96.354L124.918 93.4732C122.742 92.8408 120.438 92.7953 118.035 93.2944L118.645 96.2317ZM124.09 96.3566C125.759 96.8304 127.156 97.6998 128.311 98.9805L130.539 96.9714C129.005 95.27 127.118 94.0978 124.909 93.4706L124.09 96.3566ZM128.323 98.9931C129.483 100.251 130.295 101.871 130.72 103.917L133.658 103.307C133.139 100.809 132.108 98.6722 130.527 96.9588L128.323 98.9931ZM130.72 103.917C131.145 105.962 131.049 107.789 130.486 109.436L133.326 110.406C134.084 108.184 134.176 105.805 133.658 103.307L130.72 103.917ZM130.484 109.443C129.935 111.078 128.999 112.432 127.657 113.531L129.558 115.852C131.334 114.397 132.598 112.571 133.328 110.399L130.484 109.443ZM127.657 113.531C126.305 114.639 124.656 115.41 122.673 115.822L123.283 118.759C125.686 118.26 127.791 117.299 129.558 115.852L127.657 113.531ZM121.9 112.101C123.38 111.794 124.55 110.964 125.31 109.66L122.719 108.149C122.395 108.705 121.952 109.027 121.29 109.164L121.9 112.101ZM125.309 109.663C126.119 108.28 126.221 106.644 125.864 104.925L122.927 105.535C123.188 106.794 123.036 107.607 122.72 108.147L125.309 109.663ZM125.864 104.925C125.508 103.211 124.764 101.749 123.456 100.826L121.725 103.276C122.206 103.615 122.664 104.273 122.927 105.535L125.864 104.925ZM123.479 100.842C122.272 99.9558 120.883 99.648 119.418 99.9523L120.028 102.89C120.652 102.76 121.175 102.872 121.703 103.26L123.479 100.842ZM119.418 99.9523C117.953 100.257 116.802 101.092 116.047 102.385L118.639 103.897C118.969 103.33 119.404 103.019 120.028 102.89L119.418 99.9523ZM116.047 102.385C115.254 103.746 115.171 105.371 115.525 107.073L118.462 106.463C118.197 105.188 118.348 104.395 118.639 103.897L116.047 102.385ZM115.525 107.073C115.879 108.781 116.582 110.252 117.817 111.195L119.637 108.81C119.19 108.469 118.736 107.783 118.462 106.463L115.525 107.073ZM117.817 111.195C119.017 112.111 120.42 112.409 121.9 112.101L121.29 109.164C120.63 109.301 120.12 109.179 119.637 108.81L117.817 111.195ZM134.232 96.9775L135.665 97.4222L135.665 97.4222L134.232 96.9775ZM137.335 92.2477L136.37 91.0991L136.363 91.1055L137.335 92.2477ZM150.376 90.5195L149.69 91.8536L149.701 91.8592L150.376 90.5195ZM155.384 96.1387L155.689 97.6073L157.48 97.2352L156.764 95.5515L155.384 96.1387ZM147.237 97.8306L145.936 98.5773L146.478 99.5204L147.542 99.2993L147.237 97.8306ZM141.99 97.94L140.616 97.3388L140.612 97.3477L141.99 97.94ZM143.446 104.95L142.401 106.027L142.413 106.038L142.425 106.049L143.446 104.95ZM148.303 102.961L147.998 101.492L146.915 101.717L146.81 102.819L148.303 102.961ZM156.449 101.269L157.949 101.261L157.939 99.4277L156.144 99.8005L156.449 101.269ZM154.094 108.418L155.254 109.368L155.254 109.368L154.094 108.418ZM141.443 112.026L141.006 113.461L141.015 113.463L141.443 112.026ZM136.713 108.923L137.85 107.944L137.85 107.944L136.713 108.923ZM135.527 102.918C135.098 100.853 135.165 99.0332 135.665 97.4222L132.8 96.5328C132.125 98.7065 132.075 101.051 132.59 103.528L135.527 102.918ZM135.665 97.4222C136.17 95.7959 137.047 94.463 138.307 93.3899L136.363 91.1055C134.661 92.5542 133.47 94.3744 132.8 96.5328L135.665 97.4222ZM138.3 93.3961C139.595 92.3085 141.197 91.5477 143.152 91.1417L142.542 88.2044C140.162 88.6986 138.09 89.6542 136.37 91.0992L138.3 93.3961ZM143.152 91.1417C145.659 90.6209 147.812 90.8875 149.69 91.8535L151.062 89.1856C148.489 87.8623 145.622 87.5646 142.542 88.2044L143.152 91.1417ZM149.701 91.8592C151.559 92.7947 153.003 94.3733 154.003 96.7258L156.764 95.5515C155.529 92.6488 153.635 90.4813 151.051 89.1799L149.701 91.8592ZM155.078 94.67L146.932 96.362L147.542 99.2993L155.689 97.6073L155.078 94.67ZM148.538 97.0839C148.05 96.2339 147.398 95.5177 146.532 95.0874C145.65 94.6494 144.694 94.58 143.743 94.7773L144.354 97.7146C144.761 97.63 145.015 97.6837 145.196 97.7739C145.393 97.8718 145.656 98.0889 145.936 98.5773L148.538 97.0839ZM143.743 94.7773C142.286 95.08 141.211 95.9793 140.616 97.3388L143.364 98.5412C143.582 98.0433 143.879 97.8133 144.354 97.7146L143.743 94.7773ZM140.612 97.3477C140.051 98.6528 140.075 100.228 140.423 101.901L143.36 101.291C143.068 99.8835 143.158 99.0215 143.368 98.5323L140.612 97.3477ZM140.423 101.901C140.771 103.58 141.378 105.034 142.401 106.027L144.491 103.874C144.081 103.476 143.651 102.694 143.36 101.291L140.423 101.901ZM142.425 106.049C143.512 107.059 144.857 107.456 146.314 107.153L145.704 104.216C145.229 104.315 144.865 104.222 144.467 103.852L142.425 106.049ZM146.314 107.153C147.27 106.955 148.129 106.512 148.767 105.755C149.397 105.008 149.703 104.082 149.796 103.103L146.81 102.819C146.757 103.368 146.609 103.661 146.473 103.822C146.346 103.972 146.132 104.127 145.704 104.216L146.314 107.153ZM148.608 104.43L156.754 102.738L156.144 99.8005L147.998 101.492L148.608 104.43ZM154.949 101.277C154.963 103.806 154.269 105.836 152.933 107.467L155.254 109.368C157.09 107.126 157.966 104.391 157.949 101.261L154.949 101.277ZM152.933 107.467C151.595 109.101 149.726 110.203 147.219 110.724L147.829 113.661C150.909 113.021 153.42 111.607 155.254 109.368L152.933 107.467ZM147.219 110.724C145.264 111.13 143.491 111.07 141.871 110.588L141.015 113.463C143.168 114.104 145.45 114.155 147.829 113.661L147.219 110.724ZM141.88 110.591C140.296 110.108 138.961 109.235 137.85 107.944L135.576 109.901C137.05 111.614 138.868 112.809 141.006 113.46L141.88 110.591ZM137.85 107.944C136.752 106.668 135.962 105.013 135.527 102.918L132.59 103.528C133.109 106.029 134.09 108.174 135.576 109.901L137.85 107.944ZM165.467 107.036L165.049 108.476L165.057 108.479L165.467 107.036ZM160.581 103.965L161.695 102.961L161.695 102.961L160.581 103.965ZM158.1 92.0203L156.683 91.5262L156.681 91.5343L156.678 91.5424L158.1 92.0203ZM161.398 87.2497L160.448 86.0892L160.441 86.0951L161.398 87.2497ZM173.187 84.8013L172.768 86.2417L172.777 86.2443L173.187 84.8013ZM178.113 87.8636L176.999 88.8682L177.004 88.8745L177.01 88.8808L178.113 87.8636ZM180.594 99.8087L179.174 99.3241L179.172 99.3308L180.594 99.8087ZM177.295 104.579L176.344 103.419L177.295 104.579ZM172.702 98.7923L171.408 98.0342L171.406 98.0365L172.702 98.7923ZM171.278 91.9385L170.391 93.1477L170.402 93.1558L170.413 93.1636L171.278 91.9385ZM167.415 99.8904L166.505 101.083L166.505 101.083L167.415 99.8904ZM171.361 105.71C169.377 106.121 167.558 106.07 165.877 105.593L165.057 108.479C167.254 109.102 169.567 109.146 171.971 108.647L171.361 105.71ZM165.886 105.595C164.243 105.118 162.854 104.246 161.695 102.961L159.467 104.97C160.997 106.666 162.866 107.842 165.049 108.476L165.886 105.595ZM161.695 102.961C160.556 101.698 159.749 100.059 159.316 97.9773L156.379 98.5874C156.901 101.101 157.916 103.25 159.467 104.97L161.695 102.961ZM159.316 97.9773C158.89 95.9252 158.979 94.1121 159.521 92.4981L156.678 91.5424C155.941 93.7347 155.862 96.0964 156.379 98.5874L159.316 97.9773ZM159.516 92.5143C160.093 90.8595 161.036 89.4991 162.356 88.4043L160.441 86.0951C158.694 87.5439 157.438 89.3638 156.683 91.5262L159.516 92.5143ZM162.349 88.4102C163.701 87.3027 165.349 86.5313 167.333 86.1194L166.723 83.182C164.319 83.6812 162.215 84.6424 160.448 86.0892L162.349 88.4102ZM167.333 86.1194C169.316 85.7074 171.119 85.7623 172.768 86.2417L173.605 83.3609C171.429 82.7285 169.125 82.683 166.723 83.182L167.333 86.1194ZM172.777 86.2443C174.446 86.7181 175.844 87.5874 176.999 88.8682L179.226 86.859C177.692 85.1577 175.806 83.9855 173.597 83.3583L172.777 86.2443ZM177.01 88.8808C178.171 90.1385 178.983 91.759 179.408 93.8044L182.345 93.1943C181.826 90.6966 180.796 88.5599 179.215 86.8464L177.01 88.8808ZM179.408 93.8044C179.832 95.8492 179.736 97.6763 179.174 99.3241L182.013 100.293C182.771 98.0716 182.864 95.6925 182.345 93.1943L179.408 93.8044ZM179.172 99.3308C178.622 100.966 177.687 102.319 176.344 103.419L178.245 105.74C180.022 104.285 181.285 102.458 182.015 100.287L179.172 99.3308ZM176.344 103.419C174.992 104.526 173.344 105.298 171.361 105.71L171.971 108.647C174.374 108.148 176.478 107.187 178.245 105.74L176.344 103.419ZM170.588 101.989C172.067 101.682 173.237 100.852 173.998 99.548L171.406 98.0365C171.082 98.5923 170.639 98.9142 169.978 99.0517L170.588 101.989ZM173.996 99.5503C174.806 98.1675 174.908 96.5312 174.551 94.813L171.614 95.4231C171.875 96.6814 171.724 97.4946 171.408 98.0342L173.996 99.5503ZM174.551 94.813C174.195 93.0986 173.451 91.6371 172.144 90.7134L170.413 93.1636C170.893 93.5028 171.352 94.1611 171.614 95.4231L174.551 94.813ZM172.166 90.7293C170.959 89.8434 169.57 89.5357 168.105 89.84L168.715 92.7773C169.339 92.6477 169.862 92.7599 170.391 93.1477L172.166 90.7293ZM168.105 89.84C166.64 90.1442 165.489 90.9796 164.735 92.2728L167.326 93.7843C167.656 93.2181 168.092 92.9068 168.715 92.7773L168.105 89.84ZM164.735 92.2728C163.941 93.6333 163.858 95.2584 164.212 96.9605L167.149 96.3504C166.885 95.076 167.035 94.2831 167.326 93.7843L164.735 92.2728ZM164.212 96.9605C164.567 98.6689 165.269 100.14 166.505 101.083L168.325 98.698C167.877 98.3565 167.424 97.6707 167.149 96.3504L164.212 96.9605ZM166.505 101.083C167.705 101.999 169.107 102.296 170.588 101.989L169.978 99.0517C169.317 99.1889 168.808 99.0666 168.325 98.698L166.505 101.083ZM187.942 73.28L189.411 72.9749L189.106 71.5063L187.637 71.8113L187.942 73.28ZM193.961 102.261L194.266 103.73L195.735 103.425L195.43 101.956L193.961 102.261ZM186.285 103.856L184.817 104.161L185.122 105.629L186.59 105.324L186.285 103.856ZM180.266 74.8743L179.961 73.4057L178.492 73.7107L178.797 75.1793L180.266 74.8743ZM186.473 73.585L192.493 102.567L195.43 101.956L189.411 72.9749L186.473 73.585ZM193.656 100.793L185.98 102.387L186.59 105.324L194.266 103.73L193.656 100.793ZM187.754 103.551L181.734 74.5693L178.797 75.1793L184.817 104.161L187.754 103.551ZM180.571 76.343L188.247 74.7486L187.637 71.8113L179.961 73.4057L180.571 76.343ZM41.1371 177.594L39.6848 177.219L39.6824 177.228L39.6802 177.237L41.1371 177.594ZM43.6918 172.978L42.6459 171.902L42.637 171.911L43.6918 172.978ZM52.2887 170.702L51.8508 172.137L51.8508 172.137L52.2887 170.702ZM55.3387 172.601L54.2286 173.61L57.925 177.678L56.8073 172.296L55.3387 172.601ZM54.7042 169.547L54.3991 168.078L52.9305 168.383L53.2355 169.852L54.7042 169.547ZM62.3804 167.952L63.849 167.647L63.544 166.179L62.0753 166.484L62.3804 167.952ZM66.9437 189.923L67.2488 191.392L68.7174 191.087L68.4124 189.618L66.9437 189.923ZM59.2675 191.518L57.7989 191.823L58.1039 193.291L59.5726 192.986L59.2675 191.518ZM58.6331 188.463L60.1017 188.158L58.984 182.776L57.2131 187.98L58.6331 188.463ZM56.5526 191.428L55.5909 190.277L55.5852 190.282L55.5796 190.286L56.5526 191.428ZM47.7997 192.756L47.2568 194.154L47.2685 194.158L47.7997 192.756ZM43.6181 189.539L42.4185 190.439L42.4267 190.45L42.4352 190.461L43.6181 189.539ZM55.1154 177.428L54.2513 178.654L54.2617 178.661L54.2722 178.668L55.1154 177.428ZM49.4366 178.607L50.7046 179.409L50.7112 179.398L50.7176 179.388L49.4366 178.607ZM50.8276 185.304L49.9442 186.516L49.9538 186.523L49.9635 186.53L50.8276 185.304ZM56.5064 184.125L55.2389 183.323L55.2321 183.333L55.2255 183.344L56.5064 184.125ZM42.6281 183.494C42.1925 181.396 42.2002 179.558 42.5941 177.951L39.6802 177.237C39.1602 179.36 39.1829 181.658 39.6908 184.104L42.6281 183.494ZM42.5895 177.969C43.0135 176.327 43.7424 175.037 44.7466 174.044L42.637 171.911C41.2011 173.331 40.2268 175.12 39.6848 177.219L42.5895 177.969ZM44.7377 174.053C45.7735 173.046 47.012 172.39 48.4902 172.083L47.8801 169.146C45.8596 169.566 44.1026 170.486 42.646 171.902L44.7377 174.053ZM48.4902 172.083C49.8097 171.809 50.9163 171.851 51.8508 172.137L52.7265 169.267C51.2184 168.807 49.5893 168.791 47.8801 169.146L48.4902 172.083ZM51.8508 172.137C52.8293 172.435 53.6088 172.928 54.2286 173.61L56.4488 171.593C55.4445 170.488 54.1907 169.714 52.7265 169.267L51.8508 172.137ZM56.8073 172.296L56.1728 169.242L53.2355 169.852L53.87 172.906L56.8073 172.296ZM55.0092 171.015L62.6854 169.421L62.0753 166.484L54.3991 168.078L55.0092 171.015ZM60.9117 168.257L65.4751 190.228L68.4124 189.618L63.849 167.647L60.9117 168.257ZM66.6387 188.455L58.9625 190.049L59.5726 192.986L67.2488 191.392L66.6387 188.455ZM60.7362 191.213L60.1017 188.158L57.1644 188.768L57.7989 191.823L60.7362 191.213ZM57.2131 187.98C56.9195 188.842 56.3946 189.605 55.5909 190.277L57.5142 192.579C58.7065 191.583 59.5686 190.37 60.0531 188.946L57.2131 187.98ZM55.5796 190.286C54.8328 190.923 53.8459 191.398 52.5574 191.665L53.1674 194.603C54.8554 194.252 56.3286 193.59 57.5255 192.57L55.5796 190.286ZM52.5574 191.665C51.0792 191.972 49.6821 191.865 48.3308 191.353L47.2685 194.158C49.1689 194.878 51.147 195.022 53.1674 194.603L52.5574 191.665ZM48.3425 191.357C47.0258 190.846 45.844 189.954 44.801 188.616L42.4352 190.461C43.7682 192.171 45.3741 193.423 47.2568 194.154L48.3425 191.357ZM44.8178 188.638C43.8059 187.29 43.0636 185.591 42.6281 183.494L39.6908 184.104C40.1989 186.55 41.0957 188.677 42.4185 190.439L44.8178 188.638ZM58.4505 180.208C58.0994 178.517 57.3082 177.104 55.9587 176.187L54.2722 178.668C54.8255 179.044 55.2785 179.688 55.5131 180.818L58.4505 180.208ZM55.9796 176.202C54.71 175.307 53.2616 175.014 51.7384 175.331L52.3485 178.268C53.0707 178.118 53.6704 178.244 54.2513 178.654L55.9796 176.202ZM51.7384 175.331C50.1999 175.65 48.9696 176.491 48.1557 177.827L50.7176 179.388C51.0818 178.79 51.5894 178.426 52.3485 178.268L51.7384 175.331ZM48.1687 177.806C47.3069 179.169 47.1722 180.785 47.5236 182.477L50.461 181.867C50.2158 180.687 50.3774 179.926 50.7046 179.409L48.1687 177.806ZM47.5236 182.477C47.8725 184.157 48.6424 185.568 49.9442 186.516L51.711 184.092C51.1514 183.684 50.6978 183.007 50.461 181.867L47.5236 182.477ZM49.9635 186.53C51.2419 187.431 52.7052 187.713 54.2438 187.393L53.6337 184.456C52.8747 184.614 52.2639 184.481 51.6917 184.078L49.9635 186.53ZM54.2438 187.393C55.767 187.077 56.9791 186.232 57.7873 184.905L55.2255 183.344C54.8557 183.951 54.3559 184.306 53.6337 184.456L54.2438 187.393ZM57.7739 184.927C58.6502 183.542 58.8052 181.915 58.4505 180.208L55.5131 180.818C55.755 181.982 55.593 182.763 55.2389 183.323L57.7739 184.927ZM82.9228 179.782L84.3914 179.477L84.0864 178.008L82.6177 178.313L82.9228 179.782ZM84.2812 186.322L84.5863 187.791L86.0549 187.486L85.7499 186.017L84.2812 186.322ZM69.2945 173.175L70.7631 172.87L70.4581 171.402L68.9895 171.707L69.2945 173.175ZM66.5922 173.737L65.1235 174.042L65.4285 175.51L66.8972 175.205L66.5922 173.737ZM65.2663 167.353L64.9612 165.884L63.4926 166.189L63.7976 167.658L65.2663 167.353ZM67.9686 166.792L68.2736 168.26L69.7423 167.955L69.4372 166.487L67.9686 166.792ZM66.8623 161.465L66.5573 159.997L65.0886 160.302L65.3937 161.77L66.8623 161.465ZM74.5777 159.863L76.0463 159.558L75.7413 158.089L74.2726 158.394L74.5777 159.863ZM75.6839 165.189L74.2153 165.494L74.5203 166.963L75.989 166.658L75.6839 165.189ZM79.6787 164.359L81.1473 164.054L80.8423 162.586L79.3736 162.891L79.6787 164.359ZM81.0046 170.743L81.3096 172.212L82.7783 171.907L82.4732 170.438L81.0046 170.743ZM77.0098 171.573L76.7048 170.104L75.2361 170.409L75.5412 171.878L77.0098 171.573ZM79.1992 180.147L78.3764 181.401L78.4062 181.421L78.437 181.439L79.1992 180.147ZM81.4541 180.087L82.8126 186.627L85.7499 186.017L84.3914 179.477L81.4541 180.087ZM83.9762 184.854L80.6472 185.545L81.2573 188.482L84.5863 187.791L83.9762 184.854ZM80.6472 185.545C78.0634 186.082 76.2632 185.789 75.0208 184.982C73.7815 184.177 72.7978 182.666 72.268 180.116L69.3307 180.726C69.956 183.736 71.242 186.105 73.387 187.498C75.5289 188.889 78.2276 189.112 81.2573 188.482L80.6472 185.545ZM72.268 180.116L70.7631 172.87L67.8258 173.48L69.3307 180.726L72.268 180.116ZM68.9895 171.707L66.2871 172.268L66.8972 175.205L69.5995 174.644L68.9895 171.707ZM68.0608 173.432L66.7349 167.048L63.7976 167.658L65.1235 174.042L68.0608 173.432ZM65.5713 168.822L68.2736 168.26L67.6636 165.323L64.9612 165.884L65.5713 168.822ZM69.4372 166.487L68.331 161.16L65.3937 161.77L66.4999 167.097L69.4372 166.487ZM67.1674 162.934L74.8827 161.331L74.2726 158.394L66.5573 159.997L67.1674 162.934ZM73.109 160.168L74.2153 165.494L77.1526 164.884L76.0463 159.558L73.109 160.168ZM75.989 166.658L79.9837 165.828L79.3736 162.891L75.3789 163.72L75.989 166.658ZM78.21 164.664L79.5359 171.048L82.4732 170.438L81.1473 164.054L78.21 164.664ZM80.6995 169.275L76.7048 170.104L77.3149 173.042L81.3096 172.212L80.6995 169.275ZM75.5412 171.878L77.0704 179.241L80.0077 178.631L78.4785 171.268L75.5412 171.878ZM77.0704 179.241C77.2276 179.998 77.5716 180.873 78.3764 181.401L80.022 178.893C80.1112 178.951 80.1322 179.003 80.1147 178.971C80.0943 178.934 80.0495 178.832 80.0077 178.631L77.0704 179.241ZM78.437 181.439C79.2575 181.923 80.2087 181.878 80.9955 181.714L80.3854 178.777C80.1501 178.826 80.0035 178.831 79.9272 178.826C79.8541 178.821 79.885 178.81 79.9614 178.855L78.437 181.439ZM80.9955 181.714L83.2278 181.251L82.6177 178.313L80.3854 178.777L80.9955 181.714ZM84.2407 168.641L82.7883 168.266L82.786 168.275L82.7837 168.284L84.2407 168.641ZM86.7954 164.025L85.7495 162.95L85.7406 162.959L86.7954 164.025ZM95.3922 161.749L94.9543 163.184L94.9543 163.184L95.3922 161.749ZM98.4422 163.649L97.3321 164.658L101.029 168.725L99.9108 163.344L98.4422 163.649ZM97.8077 160.594L97.5027 159.125L96.034 159.43L96.3391 160.899L97.8077 160.594ZM105.484 159L106.953 158.695L106.648 157.226L105.179 157.531L105.484 159ZM110.047 180.971L110.352 182.439L111.821 182.134L111.516 180.666L110.047 180.971ZM102.371 182.565L100.902 182.87L101.207 184.339L102.676 184.034L102.371 182.565ZM101.737 179.51L103.205 179.205L102.088 173.824L100.317 179.027L101.737 179.51ZM99.6561 182.475L98.6944 181.324L98.6888 181.329L98.6831 181.334L99.6561 182.475ZM90.9032 183.803L90.3604 185.202L90.3721 185.206L90.9032 183.803ZM86.7217 180.586L85.522 181.487L85.5303 181.498L85.5387 181.509L86.7217 180.586ZM98.219 168.475L97.3549 169.701L97.3652 169.709L97.3757 169.716L98.219 168.475ZM92.5402 169.655L93.8081 170.456L93.8147 170.446L93.8211 170.435L92.5402 169.655ZM93.9312 176.352L93.0477 177.564L93.0573 177.571L93.067 177.578L93.9312 176.352ZM99.61 175.172L98.3425 174.37L98.3357 174.381L98.3291 174.392L99.61 175.172ZM85.7317 174.541C85.296 172.444 85.3038 170.606 85.6976 168.998L82.7837 168.284C82.2638 170.407 82.2864 172.706 82.7943 175.151L85.7317 174.541ZM85.693 169.016C86.1171 167.374 86.8459 166.085 87.8501 165.092L85.7406 162.959C84.3046 164.379 83.3303 166.167 82.7883 168.266L85.693 169.016ZM87.8412 165.1C88.877 164.093 90.1155 163.438 91.5937 163.131L90.9836 160.193C88.9632 160.613 87.2061 161.533 85.7495 162.95L87.8412 165.1ZM91.5937 163.131C92.9133 162.857 94.0198 162.899 94.9543 163.184L95.8301 160.315C94.3219 159.854 92.6928 159.838 90.9836 160.193L91.5937 163.131ZM94.9543 163.184C95.9328 163.483 96.7123 163.976 97.3321 164.658L99.5523 162.64C98.548 161.535 97.2942 160.762 95.8301 160.315L94.9543 163.184ZM99.9108 163.344L99.2764 160.289L96.3391 160.899L96.9735 163.954L99.9108 163.344ZM98.1127 162.063L105.789 160.468L105.179 157.531L97.5027 159.125L98.1127 162.063ZM104.015 159.305L108.579 181.276L111.516 180.666L106.953 158.695L104.015 159.305ZM109.742 179.502L102.066 181.097L102.676 184.034L110.352 182.439L109.742 179.502ZM103.84 182.26L103.205 179.205L100.268 179.815L100.902 182.87L103.84 182.26ZM100.317 179.027C100.023 179.89 99.4982 180.653 98.6944 181.324L100.618 183.627C101.81 182.631 102.672 181.417 103.157 179.994L100.317 179.027ZM98.6831 181.334C97.9363 181.97 96.9495 182.445 95.6609 182.713L96.271 185.65C97.9589 185.3 99.4321 184.637 100.629 183.617L98.6831 181.334ZM95.6609 182.713C94.1827 183.02 92.7857 182.912 91.4343 182.4L90.3721 185.206C92.2724 185.925 94.2505 186.07 96.271 185.65L95.6609 182.713ZM91.446 182.405C90.1294 181.894 88.9475 181.001 87.9046 179.664L85.5387 181.509C86.8718 183.218 88.4776 184.471 90.3604 185.201L91.446 182.405ZM87.9213 179.686C86.9094 178.338 86.1672 176.638 85.7317 174.541L82.7943 175.151C83.3024 177.598 84.1993 179.725 85.522 181.487L87.9213 179.686ZM101.554 171.255C101.203 169.565 100.412 168.152 99.0622 167.235L97.3757 169.716C97.929 170.092 98.3821 170.736 98.6167 171.865L101.554 171.255ZM99.0831 167.249C97.8135 166.354 96.3652 166.062 94.842 166.378L95.452 169.315C96.1742 169.165 96.7739 169.292 97.3549 169.701L99.0831 167.249ZM94.842 166.378C93.3034 166.698 92.0731 167.538 91.2593 168.874L93.8211 170.435C94.1854 169.837 94.693 169.473 95.452 169.315L94.842 166.378ZM91.2722 168.853C90.4104 170.217 90.2758 171.833 90.6272 173.524L93.5645 172.914C93.3194 171.734 93.481 170.974 93.8081 170.456L91.2722 168.853ZM90.6272 173.524C90.976 175.204 91.746 176.615 93.0477 177.564L94.8146 175.139C94.2549 174.732 93.8013 174.055 93.5645 172.914L90.6272 173.524ZM93.067 177.578C94.3454 178.479 95.8088 178.76 97.3473 178.441L96.7373 175.503C95.9782 175.661 95.3675 175.529 94.7953 175.126L93.067 177.578ZM97.3473 178.441C98.8706 178.124 100.083 177.279 100.891 175.953L98.3291 174.392C97.9592 174.999 97.4595 175.353 96.7373 175.503L97.3473 178.441ZM100.877 175.974C101.754 174.59 101.909 172.963 101.554 171.255L98.6167 171.865C98.8585 173.029 98.6965 173.811 98.3425 174.37L100.877 175.974ZM110.86 163.112L109.408 162.737L109.405 162.746L109.403 162.755L110.86 163.112ZM113.454 158.488L112.408 157.413L112.408 157.413L113.454 158.488ZM121.894 156.245L121.456 157.68L121.476 157.686L121.497 157.691L121.894 156.245ZM125.014 158.089L123.923 159.119L127.561 162.973L126.483 157.784L125.014 158.089ZM122.932 148.063L122.627 146.594L121.158 146.899L121.463 148.368L122.932 148.063ZM130.647 146.461L132.116 146.155L131.811 144.687L130.342 144.992L130.647 146.461ZM136.667 175.442L136.972 176.911L138.44 176.606L138.135 175.137L136.667 175.442ZM128.951 177.044L127.483 177.35L127.788 178.818L129.256 178.513L128.951 177.044ZM128.317 173.99L129.785 173.685L128.668 168.303L126.897 173.506L128.317 173.99ZM126.275 176.947L125.303 175.805L126.275 176.947ZM117.523 178.274L116.98 179.673L116.991 179.677L117.523 178.274ZM113.341 175.057L112.141 175.958L112.15 175.969L112.158 175.98L113.341 175.057ZM124.838 162.946L123.974 164.172L123.985 164.18L123.995 164.187L124.838 162.946ZM119.16 164.126L120.428 164.927L120.434 164.917L120.44 164.906L119.16 164.126ZM120.551 170.823L119.667 172.035L119.677 172.042L119.686 172.049L120.551 170.823ZM126.229 169.643L124.962 168.841L124.955 168.852L124.948 168.863L126.229 169.643ZM112.351 169.012C111.915 166.915 111.923 165.077 112.317 163.469L109.403 162.755C108.883 164.878 108.906 167.177 109.414 169.623L112.351 169.012ZM112.312 163.487C112.735 161.853 113.472 160.563 114.5 159.564L112.408 157.413C110.943 158.838 109.952 160.631 109.408 162.737L112.312 163.487ZM114.5 159.564C115.536 158.556 116.774 157.901 118.252 157.594L117.642 154.656C115.622 155.076 113.865 155.996 112.408 157.413L114.5 159.564ZM118.252 157.594C119.448 157.346 120.505 157.389 121.456 157.68L122.332 154.81C120.84 154.355 119.267 154.319 117.642 154.656L118.252 157.594ZM121.497 157.691C122.489 157.964 123.284 158.441 123.923 159.119L126.105 157.06C125.068 155.96 123.783 155.208 122.291 154.799L121.497 157.691ZM126.483 157.784L124.401 147.758L121.463 148.368L123.546 158.394L126.483 157.784ZM123.237 149.532L130.952 147.929L130.342 144.992L122.627 146.594L123.237 149.532ZM129.179 146.766L135.198 175.747L138.135 175.137L132.116 146.155L129.179 146.766ZM136.362 173.973L128.646 175.576L129.256 178.513L136.972 176.911L136.362 173.973ZM130.42 176.739L129.785 173.685L126.848 174.295L127.483 177.35L130.42 176.739ZM126.897 173.506C126.6 174.379 126.081 175.141 125.303 175.805L127.248 178.088C128.414 177.095 129.256 175.887 129.737 174.473L126.897 173.506ZM125.303 175.805C124.556 176.441 123.569 176.916 122.28 177.184L122.89 180.121C124.578 179.771 126.052 179.108 127.248 178.088L125.303 175.805ZM122.28 177.184C120.802 177.491 119.405 177.383 118.054 176.871L116.991 179.677C118.892 180.397 120.87 180.541 122.89 180.121L122.28 177.184ZM118.065 176.876C116.749 176.365 115.567 175.473 114.524 174.135L112.158 175.98C113.491 177.689 115.097 178.942 116.98 179.673L118.065 176.876ZM114.541 174.157C113.529 172.809 112.787 171.109 112.351 169.012L109.414 169.623C109.922 172.069 110.819 174.196 112.141 175.958L114.541 174.157ZM128.173 165.726C127.822 164.036 127.031 162.623 125.682 161.706L123.995 164.187C124.548 164.563 125.001 165.207 125.236 166.336L128.173 165.726ZM125.703 161.72C124.433 160.825 122.985 160.533 121.461 160.849L122.071 163.787C122.794 163.637 123.393 163.763 123.974 164.172L125.703 161.72ZM121.461 160.849C119.923 161.169 118.693 162.01 117.879 163.345L120.44 164.906C120.805 164.309 121.312 163.944 122.071 163.787L121.461 160.849ZM117.892 163.324C117.03 164.688 116.895 166.304 117.247 167.996L120.184 167.386C119.939 166.205 120.1 165.445 120.428 164.927L117.892 163.324ZM117.247 167.996C117.595 169.675 118.365 171.086 119.667 172.035L121.434 169.611C120.874 169.203 120.421 168.526 120.184 167.386L117.247 167.996ZM119.686 172.049C120.965 172.95 122.428 173.231 123.967 172.912L123.357 169.974C122.598 170.132 121.987 170 121.415 169.597L119.686 172.049ZM123.967 172.912C125.49 172.595 126.702 171.75 127.51 170.424L124.948 168.863C124.579 169.47 124.079 169.824 123.357 169.974L123.967 172.912ZM127.497 170.445C128.373 169.061 128.528 167.434 128.173 165.726L125.236 166.336C125.478 167.501 125.316 168.282 124.962 168.841L127.497 170.445ZM145.121 172.542L144.703 173.983L144.711 173.985L145.121 172.542ZM140.235 169.472L141.349 168.467L141.349 168.467L140.235 169.472ZM137.754 157.527L136.337 157.033L136.334 157.041L136.332 157.049L137.754 157.527ZM141.052 152.756L140.102 151.596L140.095 151.601L141.052 152.756ZM152.841 150.308L152.422 151.748L152.431 151.751L152.841 150.308ZM157.767 153.37L156.653 154.375L156.658 154.381L156.664 154.387L157.767 153.37ZM160.247 165.315L158.828 164.83L158.826 164.837L160.247 165.315ZM156.949 170.086L155.998 168.925L156.949 170.086ZM152.356 164.299L151.062 163.541L151.06 163.543L152.356 164.299ZM150.932 157.445L150.045 158.654L150.056 158.662L150.067 158.67L150.932 157.445ZM147.069 165.397L146.159 166.589L146.159 166.589L147.069 165.397ZM151.015 171.216C149.031 171.628 147.212 171.577 145.531 171.099L144.711 173.985C146.908 174.609 149.221 174.652 151.625 174.153L151.015 171.216ZM145.54 171.102C143.897 170.624 142.508 169.753 141.349 168.467L139.121 170.476C140.651 172.173 142.519 173.348 144.703 173.983L145.54 171.102ZM141.349 168.467C140.21 167.205 139.403 165.565 138.97 163.484L136.033 164.094C136.555 166.607 137.57 168.756 139.121 170.476L141.349 168.467ZM138.97 163.484C138.544 161.432 138.633 159.618 139.175 158.004L136.332 157.049C135.595 159.241 135.516 161.603 136.033 164.094L138.97 163.484ZM139.17 158.021C139.747 156.366 140.69 155.005 142.01 153.911L140.095 151.601C138.348 153.05 137.092 154.87 136.337 157.033L139.17 158.021ZM142.003 153.917C143.355 152.809 145.003 152.038 146.987 151.626L146.376 148.688C143.973 149.188 141.869 150.149 140.102 151.596L142.003 153.917ZM146.987 151.626C148.97 151.214 150.772 151.269 152.422 151.748L153.259 148.867C151.083 148.235 148.779 148.189 146.376 148.688L146.987 151.626ZM152.431 151.751C154.1 152.224 155.498 153.094 156.653 154.375L158.88 152.365C157.346 150.664 155.46 149.492 153.25 148.865L152.431 151.751ZM156.664 154.387C157.825 155.645 158.637 157.265 159.062 159.311L161.999 158.701C161.48 156.203 160.45 154.066 158.869 152.353L156.664 154.387ZM159.062 159.311C159.486 161.356 159.39 163.183 158.828 164.83L161.667 165.8C162.425 163.578 162.518 161.199 161.999 158.701L159.062 159.311ZM158.826 164.837C158.276 166.472 157.341 167.826 155.998 168.925L157.899 171.246C159.676 169.791 160.939 167.965 161.669 165.793L158.826 164.837ZM155.998 168.925C154.646 170.033 152.998 170.804 151.015 171.216L151.625 174.153C154.028 173.654 156.132 172.693 157.899 171.246L155.998 168.925ZM150.242 167.495C151.721 167.188 152.891 166.358 153.652 165.054L151.06 163.543C150.736 164.099 150.293 164.421 149.632 164.558L150.242 167.495ZM153.65 165.057C154.46 163.674 154.562 162.038 154.205 160.319L151.268 160.929C151.529 162.188 151.378 163.001 151.062 163.541L153.65 165.057ZM154.205 160.319C153.849 158.605 153.105 157.143 151.798 156.22L150.067 158.67C150.547 159.009 151.006 159.667 151.268 160.929L154.205 160.319ZM151.82 156.236C150.613 155.35 149.224 155.042 147.759 155.346L148.369 158.284C148.993 158.154 149.516 158.266 150.045 158.654L151.82 156.236ZM147.759 155.346C146.294 155.651 145.143 156.486 144.389 157.779L146.98 159.291C147.31 158.724 147.746 158.413 148.369 158.284L147.759 155.346ZM144.389 157.779C143.595 159.14 143.512 160.765 143.866 162.467L146.803 161.857C146.539 160.582 146.689 159.789 146.98 159.291L144.389 157.779ZM143.866 162.467C144.221 164.175 144.923 165.646 146.159 166.589L147.979 164.204C147.531 163.863 147.078 163.177 146.803 161.857L143.866 162.467ZM146.159 166.589C147.359 167.505 148.761 167.803 150.242 167.495L149.632 164.558C148.971 164.695 148.462 164.573 147.979 164.204L146.159 166.589Z" fill="white"/>
<path d="M179.99 242.667C186.067 260.258 84.3618 254.821 84.3618 254.821C49.1809 253.222 6.00428 244.906 8.56291 229.874C8.56291 212.387 41.3537 198.211 81.8032 198.211C122.253 198.211 179.99 225.18 179.99 242.667Z" fill="#954733"/>
<path d="M3 6.63531L53.5326 12.3922H121.336H183.386C189.133 12.3922 194.873 11.9827 200.562 11.1669L232.162 6.63531V234.032L225.313 239.7C223.708 241.029 221.885 242.068 219.924 242.773L214.418 244.752C210.577 246.132 206.637 247.216 202.63 247.995L185.621 251.303L160.674 255.14L117.664 256.1L81.6773 255.14L50.8204 251.303L35.9421 248.744L29.1259 246.686C22.4166 244.661 16.0922 241.53 10.4133 237.423L5.72485 234.032L3 6.63531Z" fill="#FAFF00"/>
<path d="M75.283 207.662V221H72.034V213.001L69.051 221H66.429L63.427 212.982V221H60.178V207.662H64.016L67.759 216.896L71.464 207.662H75.283ZM79.2534 209.296C78.6834 209.296 78.2147 209.131 77.8474 208.802C77.4927 208.46 77.3154 208.042 77.3154 207.548C77.3154 207.041 77.4927 206.623 77.8474 206.294C78.2147 205.952 78.6834 205.781 79.2534 205.781C79.8107 205.781 80.2667 205.952 80.6214 206.294C80.9887 206.623 81.1724 207.041 81.1724 207.548C81.1724 208.042 80.9887 208.46 80.6214 208.802C80.2667 209.131 79.8107 209.296 79.2534 209.296ZM80.8684 210.398V221H77.6194V210.398H80.8684ZM86.4719 206.94V221H83.2229V206.94H86.4719ZM95.3434 210.284C96.5594 210.284 97.5348 210.689 98.2694 211.5C99.0041 212.298 99.3714 213.4 99.3714 214.806V221H96.1414V215.243C96.1414 214.534 95.9578 213.983 95.5904 213.59C95.2231 213.197 94.7291 213.001 94.1084 213.001C93.4878 213.001 92.9938 213.197 92.6264 213.59C92.2591 213.983 92.0754 214.534 92.0754 215.243V221H88.8264V206.94H92.0754V211.823C92.4048 211.354 92.8544 210.981 93.4244 210.702C93.9944 210.423 94.6341 210.284 95.3434 210.284ZM106.455 221.152C105.417 221.152 104.479 220.93 103.643 220.487C102.82 220.044 102.168 219.41 101.686 218.587C101.218 217.764 100.983 216.801 100.983 215.699C100.983 214.61 101.224 213.653 101.705 212.83C102.187 211.994 102.845 211.354 103.681 210.911C104.517 210.468 105.455 210.246 106.493 210.246C107.532 210.246 108.469 210.468 109.305 210.911C110.141 211.354 110.8 211.994 111.281 212.83C111.763 213.653 112.003 214.61 112.003 215.699C112.003 216.788 111.756 217.751 111.262 218.587C110.781 219.41 110.116 220.044 109.267 220.487C108.431 220.93 107.494 221.152 106.455 221.152ZM106.455 218.34C107.076 218.34 107.602 218.112 108.032 217.656C108.476 217.2 108.697 216.548 108.697 215.699C108.697 214.85 108.482 214.198 108.051 213.742C107.633 213.286 107.114 213.058 106.493 213.058C105.86 213.058 105.334 213.286 104.916 213.742C104.498 214.185 104.289 214.838 104.289 215.699C104.289 216.548 104.492 217.2 104.897 217.656C105.315 218.112 105.835 218.34 106.455 218.34ZM130.274 207.662L125.543 221H121.477L116.746 207.662H120.204L123.51 217.732L126.835 207.662H130.274ZM141.626 215.528C141.626 215.832 141.607 216.149 141.569 216.478H134.216C134.267 217.137 134.476 217.643 134.843 217.998C135.223 218.34 135.685 218.511 136.23 218.511C137.041 218.511 137.604 218.169 137.921 217.485H141.379C141.202 218.182 140.879 218.809 140.41 219.366C139.954 219.923 139.378 220.36 138.681 220.677C137.984 220.994 137.205 221.152 136.344 221.152C135.305 221.152 134.381 220.93 133.57 220.487C132.759 220.044 132.126 219.41 131.67 218.587C131.214 217.764 130.986 216.801 130.986 215.699C130.986 214.597 131.208 213.634 131.651 212.811C132.107 211.988 132.74 211.354 133.551 210.911C134.362 210.468 135.293 210.246 136.344 210.246C137.37 210.246 138.282 210.461 139.08 210.892C139.878 211.323 140.499 211.937 140.942 212.735C141.398 213.533 141.626 214.464 141.626 215.528ZM138.301 214.673C138.301 214.116 138.111 213.672 137.731 213.343C137.351 213.014 136.876 212.849 136.306 212.849C135.761 212.849 135.299 213.007 134.919 213.324C134.552 213.641 134.324 214.09 134.235 214.673H138.301ZM146.589 212.165C146.969 211.582 147.444 211.126 148.014 210.797C148.584 210.455 149.217 210.284 149.914 210.284V213.723H149.021C148.21 213.723 147.602 213.9 147.197 214.255C146.792 214.597 146.589 215.205 146.589 216.079V221H143.34V210.398H146.589V212.165ZM150.821 215.68C150.821 214.591 151.024 213.634 151.429 212.811C151.847 211.988 152.411 211.354 153.12 210.911C153.829 210.468 154.621 210.246 155.495 210.246C156.192 210.246 156.825 210.392 157.395 210.683C157.978 210.974 158.434 211.367 158.763 211.861V206.94H162.012V221H158.763V219.48C158.459 219.987 158.022 220.392 157.452 220.696C156.895 221 156.242 221.152 155.495 221.152C154.621 221.152 153.829 220.93 153.12 220.487C152.411 220.031 151.847 219.391 151.429 218.568C151.024 217.732 150.821 216.769 150.821 215.68ZM158.763 215.699C158.763 214.888 158.535 214.249 158.079 213.78C157.636 213.311 157.091 213.077 156.445 213.077C155.799 213.077 155.248 213.311 154.792 213.78C154.349 214.236 154.127 214.869 154.127 215.68C154.127 216.491 154.349 217.137 154.792 217.618C155.248 218.087 155.799 218.321 156.445 218.321C157.091 218.321 157.636 218.087 158.079 217.618C158.535 217.149 158.763 216.51 158.763 215.699ZM174.357 215.528C174.357 215.832 174.338 216.149 174.3 216.478H166.947C166.997 217.137 167.206 217.643 167.574 217.998C167.954 218.34 168.416 218.511 168.961 218.511C169.771 218.511 170.335 218.169 170.652 217.485H174.11C173.932 218.182 173.609 218.809 173.141 219.366C172.685 219.923 172.108 220.36 171.412 220.677C170.715 220.994 169.936 221.152 169.075 221.152C168.036 221.152 167.111 220.93 166.301 220.487C165.49 220.044 164.857 219.41 164.401 218.587C163.945 217.764 163.717 216.801 163.717 215.699C163.717 214.597 163.938 213.634 164.382 212.811C164.838 211.988 165.471 211.354 166.282 210.911C167.092 210.468 168.023 210.246 169.075 210.246C170.101 210.246 171.013 210.461 171.811 210.892C172.609 211.323 173.229 211.937 173.673 212.735C174.129 213.533 174.357 214.464 174.357 215.528ZM171.032 214.673C171.032 214.116 170.842 213.672 170.462 213.343C170.082 213.014 169.607 212.849 169.037 212.849C168.492 212.849 168.03 213.007 167.65 213.324C167.282 213.641 167.054 214.09 166.966 214.673H171.032Z" fill="#2CB809"/>
<path d="M117.5 18.5C149.679 18.5 178.816 17.5484 199.914 16.0091C210.461 15.2396 219.011 14.3224 224.93 13.3013C227.886 12.7914 230.208 12.2519 231.801 11.684C232.594 11.4011 233.237 11.1009 233.69 10.7751C234.127 10.4611 234.5 10.041 234.5 9.5C234.5 8.95899 234.127 8.53888 233.69 8.22486C233.237 7.89909 232.594 7.59885 231.801 7.31599C230.208 6.74805 227.886 6.20858 224.93 5.69869C219.011 4.67761 210.461 3.76041 199.914 2.99092C178.816 1.45159 149.679 0.5 117.5 0.5C85.3213 0.5 56.1836 1.45159 35.0857 2.99092C24.5391 3.76041 15.9895 4.67761 10.0702 5.69869C7.11427 6.20858 4.79181 6.74805 3.19894 7.31599C2.40563 7.59885 1.76318 7.89909 1.30974 8.22486C0.872655 8.53888 0.5 8.95899 0.5 9.5C0.5 10.041 0.872655 10.4611 1.30974 10.7751C1.76318 11.1009 2.40563 11.4011 3.19894 11.684C4.79181 12.2519 7.11427 12.7914 10.0702 13.3013C15.9895 14.3224 24.5391 15.2396 35.0857 16.0091C56.1836 17.5484 85.3213 18.5 117.5 18.5Z" fill="#C4C4C4" stroke="#656565"/>
</svg>
