<svg width="228" height="307" viewBox="0 0 228 307" fill="none" xmlns="http://www.w3.org/2000/svg">
<rect width="228" height="306.98" rx="5" fill="#00B7D9"/>
<circle cx="114.745" cy="114.745" r="96.8627" fill="#C4C4C4"/>
<path d="M186.275 171.373C186.275 171.373 161.552 207.137 118.389 207.137C75.2259 207.137 40.2353 171.373 40.2353 171.373L118.389 171.373L186.275 171.373Z" fill="#B5682B"/>
<path d="M70.4424 178.02V179.15H67.5324V180.94H69.7624V182.05H67.5324V185H66.1324V178.02H70.4424ZM76.5851 182.11C76.5851 182.31 76.5718 182.49 76.5451 182.65H72.4951C72.5285 183.05 72.6685 183.363 72.9151 183.59C73.1618 183.817 73.4651 183.93 73.8251 183.93C74.3451 183.93 74.7151 183.707 74.9351 183.26H76.4451C76.2851 183.793 75.9785 184.233 75.5251 184.58C75.0718 184.92 74.5151 185.09 73.8551 185.09C73.3218 185.09 72.8418 184.973 72.4151 184.74C71.9951 184.5 71.6651 184.163 71.4251 183.73C71.1918 183.297 71.0751 182.797 71.0751 182.23C71.0751 181.657 71.1918 181.153 71.4251 180.72C71.6585 180.287 71.9851 179.953 72.4051 179.72C72.8251 179.487 73.3085 179.37 73.8551 179.37C74.3818 179.37 74.8518 179.483 75.2651 179.71C75.6851 179.937 76.0085 180.26 76.2351 180.68C76.4685 181.093 76.5851 181.57 76.5851 182.11ZM75.1351 181.71C75.1285 181.35 74.9985 181.063 74.7451 180.85C74.4918 180.63 74.1818 180.52 73.8151 180.52C73.4685 180.52 73.1751 180.627 72.9351 180.84C72.7018 181.047 72.5585 181.337 72.5051 181.71H75.1351ZM79.007 180.32C79.187 180.027 79.4203 179.797 79.707 179.63C80.0003 179.463 80.3337 179.38 80.707 179.38V180.85H80.337C79.897 180.85 79.5637 180.953 79.337 181.16C79.117 181.367 79.007 181.727 79.007 182.24V185H77.607V179.46H79.007V180.32ZM88.53 179.38C89.21 179.38 89.7566 179.59 90.17 180.01C90.59 180.423 90.8 181.003 90.8 181.75V185H89.4V181.94C89.4 181.507 89.29 181.177 89.07 180.95C88.85 180.717 88.55 180.6 88.17 180.6C87.79 180.6 87.4866 180.717 87.26 180.95C87.04 181.177 86.93 181.507 86.93 181.94V185H85.53V181.94C85.53 181.507 85.42 181.177 85.2 180.95C84.98 180.717 84.68 180.6 84.3 180.6C83.9133 180.6 83.6066 180.717 83.38 180.95C83.16 181.177 83.05 181.507 83.05 181.94V185H81.65V179.46H83.05V180.13C83.23 179.897 83.46 179.713 83.74 179.58C84.0266 179.447 84.34 179.38 84.68 179.38C85.1133 179.38 85.5 179.473 85.84 179.66C86.18 179.84 86.4433 180.1 86.63 180.44C86.81 180.12 87.07 179.863 87.41 179.67C87.7566 179.477 88.13 179.38 88.53 179.38ZM97.2785 182.11C97.2785 182.31 97.2651 182.49 97.2385 182.65H93.1885C93.2218 183.05 93.3618 183.363 93.6085 183.59C93.8551 183.817 94.1585 183.93 94.5185 183.93C95.0385 183.93 95.4085 183.707 95.6285 183.26H97.1385C96.9785 183.793 96.6718 184.233 96.2185 184.58C95.7651 184.92 95.2085 185.09 94.5485 185.09C94.0151 185.09 93.5351 184.973 93.1085 184.74C92.6885 184.5 92.3585 184.163 92.1185 183.73C91.8851 183.297 91.7685 182.797 91.7685 182.23C91.7685 181.657 91.8851 181.153 92.1185 180.72C92.3518 180.287 92.6785 179.953 93.0985 179.72C93.5185 179.487 94.0018 179.37 94.5485 179.37C95.0751 179.37 95.5451 179.483 95.9585 179.71C96.3785 179.937 96.7018 180.26 96.9285 180.68C97.1618 181.093 97.2785 181.57 97.2785 182.11ZM95.8285 181.71C95.8218 181.35 95.6918 181.063 95.4385 180.85C95.1851 180.63 94.8751 180.52 94.5085 180.52C94.1618 180.52 93.8685 180.627 93.6285 180.84C93.3951 181.047 93.2518 181.337 93.1985 181.71H95.8285ZM101.37 179.38C102.03 179.38 102.564 179.59 102.97 180.01C103.377 180.423 103.58 181.003 103.58 181.75V185H102.18V181.94C102.18 181.5 102.07 181.163 101.85 180.93C101.63 180.69 101.33 180.57 100.95 180.57C100.564 180.57 100.257 180.69 100.03 180.93C99.8104 181.163 99.7004 181.5 99.7004 181.94V185H98.3004V179.46H99.7004V180.15C99.887 179.91 100.124 179.723 100.41 179.59C100.704 179.45 101.024 179.38 101.37 179.38ZM106.542 180.61V183.29C106.542 183.477 106.585 183.613 106.672 183.7C106.765 183.78 106.918 183.82 107.132 183.82H107.782V185H106.902C105.722 185 105.132 184.427 105.132 183.28V180.61H104.472V179.46H105.132V178.09H106.542V179.46H107.782V180.61H106.542ZM111.249 185.09C110.715 185.09 110.235 184.973 109.809 184.74C109.382 184.5 109.045 184.163 108.799 183.73C108.559 183.297 108.439 182.797 108.439 182.23C108.439 181.663 108.562 181.163 108.809 180.73C109.062 180.297 109.405 179.963 109.839 179.73C110.272 179.49 110.755 179.37 111.289 179.37C111.822 179.37 112.305 179.49 112.739 179.73C113.172 179.963 113.512 180.297 113.759 180.73C114.012 181.163 114.139 181.663 114.139 182.23C114.139 182.797 114.009 183.297 113.749 183.73C113.495 184.163 113.149 184.5 112.709 184.74C112.275 184.973 111.789 185.09 111.249 185.09ZM111.249 183.87C111.502 183.87 111.739 183.81 111.959 183.69C112.185 183.563 112.365 183.377 112.499 183.13C112.632 182.883 112.699 182.583 112.699 182.23C112.699 181.703 112.559 181.3 112.279 181.02C112.005 180.733 111.669 180.59 111.269 180.59C110.869 180.59 110.532 180.733 110.259 181.02C109.992 181.3 109.859 181.703 109.859 182.23C109.859 182.757 109.989 183.163 110.249 183.45C110.515 183.73 110.849 183.87 111.249 183.87ZM121.508 181.42C121.902 181.493 122.225 181.69 122.478 182.01C122.732 182.33 122.858 182.697 122.858 183.11C122.858 183.483 122.765 183.813 122.578 184.1C122.398 184.38 122.135 184.6 121.788 184.76C121.442 184.92 121.032 185 120.558 185H117.548V178.02H120.428C120.902 178.02 121.308 178.097 121.648 178.25C121.995 178.403 122.255 178.617 122.428 178.89C122.608 179.163 122.698 179.473 122.698 179.82C122.698 180.227 122.588 180.567 122.368 180.84C122.155 181.113 121.868 181.307 121.508 181.42ZM118.948 180.9H120.228C120.562 180.9 120.818 180.827 120.998 180.68C121.178 180.527 121.268 180.31 121.268 180.03C121.268 179.75 121.178 179.533 120.998 179.38C120.818 179.227 120.562 179.15 120.228 179.15H118.948V180.9ZM120.358 183.86C120.698 183.86 120.962 183.78 121.148 183.62C121.342 183.46 121.438 183.233 121.438 182.94C121.438 182.64 121.338 182.407 121.138 182.24C120.938 182.067 120.668 181.98 120.328 181.98H118.948V183.86H120.358ZM124.684 178.8C124.438 178.8 124.231 178.723 124.064 178.57C123.904 178.41 123.824 178.213 123.824 177.98C123.824 177.747 123.904 177.553 124.064 177.4C124.231 177.24 124.438 177.16 124.684 177.16C124.931 177.16 125.134 177.24 125.294 177.4C125.461 177.553 125.544 177.747 125.544 177.98C125.544 178.213 125.461 178.41 125.294 178.57C125.134 178.723 124.931 178.8 124.684 178.8ZM125.374 179.46V185H123.974V179.46H125.374ZM129.217 185.09C128.684 185.09 128.204 184.973 127.777 184.74C127.351 184.5 127.014 184.163 126.767 183.73C126.527 183.297 126.407 182.797 126.407 182.23C126.407 181.663 126.531 181.163 126.777 180.73C127.031 180.297 127.374 179.963 127.807 179.73C128.241 179.49 128.724 179.37 129.257 179.37C129.791 179.37 130.274 179.49 130.707 179.73C131.141 179.963 131.481 180.297 131.727 180.73C131.981 181.163 132.107 181.663 132.107 182.23C132.107 182.797 131.977 183.297 131.717 183.73C131.464 184.163 131.117 184.5 130.677 184.74C130.244 184.973 129.757 185.09 129.217 185.09ZM129.217 183.87C129.471 183.87 129.707 183.81 129.927 183.69C130.154 183.563 130.334 183.377 130.467 183.13C130.601 182.883 130.667 182.583 130.667 182.23C130.667 181.703 130.527 181.3 130.247 181.02C129.974 180.733 129.637 180.59 129.237 180.59C128.837 180.59 128.501 180.733 128.227 181.02C127.961 181.3 127.827 181.703 127.827 182.23C127.827 182.757 127.957 183.163 128.217 183.45C128.484 183.73 128.817 183.87 129.217 183.87ZM134.534 177.6V185H133.134V177.6H134.534ZM138.378 185.09C137.844 185.09 137.364 184.973 136.938 184.74C136.511 184.5 136.174 184.163 135.928 183.73C135.688 183.297 135.568 182.797 135.568 182.23C135.568 181.663 135.691 181.163 135.938 180.73C136.191 180.297 136.534 179.963 136.968 179.73C137.401 179.49 137.884 179.37 138.418 179.37C138.951 179.37 139.434 179.49 139.868 179.73C140.301 179.963 140.641 180.297 140.888 180.73C141.141 181.163 141.268 181.663 141.268 182.23C141.268 182.797 141.138 183.297 140.878 183.73C140.624 184.163 140.278 184.5 139.838 184.74C139.404 184.973 138.918 185.09 138.378 185.09ZM138.378 183.87C138.631 183.87 138.868 183.81 139.088 183.69C139.314 183.563 139.494 183.377 139.628 183.13C139.761 182.883 139.828 182.583 139.828 182.23C139.828 181.703 139.688 181.3 139.408 181.02C139.134 180.733 138.798 180.59 138.398 180.59C137.998 180.59 137.661 180.733 137.388 181.02C137.121 181.3 136.988 181.703 136.988 182.23C136.988 182.757 137.118 183.163 137.378 183.45C137.644 183.73 137.978 183.87 138.378 183.87ZM139.568 177.95L137.268 179V178L139.568 176.81V177.95ZM144.464 179.37C144.878 179.37 145.241 179.453 145.554 179.62C145.868 179.78 146.114 179.99 146.294 180.25V179.46H147.704V185.04C147.704 185.553 147.601 186.01 147.394 186.41C147.188 186.817 146.878 187.137 146.464 187.37C146.051 187.61 145.551 187.73 144.964 187.73C144.178 187.73 143.531 187.547 143.024 187.18C142.524 186.813 142.241 186.313 142.174 185.68H143.564C143.638 185.933 143.794 186.133 144.034 186.28C144.281 186.433 144.578 186.51 144.924 186.51C145.331 186.51 145.661 186.387 145.914 186.14C146.168 185.9 146.294 185.533 146.294 185.04V184.18C146.114 184.44 145.864 184.657 145.544 184.83C145.231 185.003 144.871 185.09 144.464 185.09C143.998 185.09 143.571 184.97 143.184 184.73C142.798 184.49 142.491 184.153 142.264 183.72C142.044 183.28 141.934 182.777 141.934 182.21C141.934 181.65 142.044 181.153 142.264 180.72C142.491 180.287 142.794 179.953 143.174 179.72C143.561 179.487 143.991 179.37 144.464 179.37ZM146.294 182.23C146.294 181.89 146.228 181.6 146.094 181.36C145.961 181.113 145.781 180.927 145.554 180.8C145.328 180.667 145.084 180.6 144.824 180.6C144.564 180.6 144.324 180.663 144.104 180.79C143.884 180.917 143.704 181.103 143.564 181.35C143.431 181.59 143.364 181.877 143.364 182.21C143.364 182.543 143.431 182.837 143.564 183.09C143.704 183.337 143.884 183.527 144.104 183.66C144.331 183.793 144.571 183.86 144.824 183.86C145.084 183.86 145.328 183.797 145.554 183.67C145.781 183.537 145.961 183.35 146.094 183.11C146.228 182.863 146.294 182.57 146.294 182.23ZM149.782 178.8C149.535 178.8 149.329 178.723 149.162 178.57C149.002 178.41 148.922 178.213 148.922 177.98C148.922 177.747 149.002 177.553 149.162 177.4C149.329 177.24 149.535 177.16 149.782 177.16C150.029 177.16 150.232 177.24 150.392 177.4C150.559 177.553 150.642 177.747 150.642 177.98C150.642 178.213 150.559 178.41 150.392 178.57C150.232 178.723 150.029 178.8 149.782 178.8ZM150.472 179.46V185H149.072V179.46H150.472ZM151.495 182.23C151.495 181.657 151.612 181.157 151.845 180.73C152.078 180.297 152.402 179.963 152.815 179.73C153.228 179.49 153.702 179.37 154.235 179.37C154.922 179.37 155.488 179.543 155.935 179.89C156.388 180.23 156.692 180.71 156.845 181.33H155.335C155.255 181.09 155.118 180.903 154.925 180.77C154.738 180.63 154.505 180.56 154.225 180.56C153.825 180.56 153.508 180.707 153.275 181C153.042 181.287 152.925 181.697 152.925 182.23C152.925 182.757 153.042 183.167 153.275 183.46C153.508 183.747 153.825 183.89 154.225 183.89C154.792 183.89 155.162 183.637 155.335 183.13H156.845C156.692 183.73 156.388 184.207 155.935 184.56C155.482 184.913 154.915 185.09 154.235 185.09C153.702 185.09 153.228 184.973 152.815 184.74C152.402 184.5 152.078 184.167 151.845 183.74C151.612 183.307 151.495 182.803 151.495 182.23ZM160.331 185.09C159.797 185.09 159.317 184.973 158.891 184.74C158.464 184.5 158.127 184.163 157.881 183.73C157.641 183.297 157.521 182.797 157.521 182.23C157.521 181.663 157.644 181.163 157.891 180.73C158.144 180.297 158.487 179.963 158.921 179.73C159.354 179.49 159.837 179.37 160.371 179.37C160.904 179.37 161.387 179.49 161.821 179.73C162.254 179.963 162.594 180.297 162.841 180.73C163.094 181.163 163.221 181.663 163.221 182.23C163.221 182.797 163.091 183.297 162.831 183.73C162.577 184.163 162.231 184.5 161.791 184.74C161.357 184.973 160.871 185.09 160.331 185.09ZM160.331 183.87C160.584 183.87 160.821 183.81 161.041 183.69C161.267 183.563 161.447 183.377 161.581 183.13C161.714 182.883 161.781 182.583 161.781 182.23C161.781 181.703 161.641 181.3 161.361 181.02C161.087 180.733 160.751 180.59 160.351 180.59C159.951 180.59 159.614 180.733 159.341 181.02C159.074 181.3 158.941 181.703 158.941 182.23C158.941 182.757 159.071 183.163 159.331 183.45C159.597 183.73 159.931 183.87 160.331 183.87ZM85.9678 196.049C85.6458 196.049 85.3565 195.993 85.0998 195.881C84.8478 195.764 84.6495 195.606 84.5048 195.405C84.3602 195.2 84.2855 194.964 84.2808 194.698H84.9598C84.9832 194.927 85.0765 195.12 85.2398 195.279C85.4078 195.433 85.6505 195.51 85.9678 195.51C86.2712 195.51 86.5092 195.435 86.6818 195.286C86.8592 195.132 86.9478 194.936 86.9478 194.698C86.9478 194.511 86.8965 194.36 86.7938 194.243C86.6912 194.126 86.5628 194.038 86.4088 193.977C86.2548 193.916 86.0472 193.851 85.7858 193.781C85.4638 193.697 85.2048 193.613 85.0088 193.529C84.8175 193.445 84.6518 193.314 84.5118 193.137C84.3765 192.955 84.3088 192.712 84.3088 192.409C84.3088 192.143 84.3765 191.907 84.5118 191.702C84.6472 191.497 84.8362 191.338 85.0788 191.226C85.3262 191.114 85.6085 191.058 85.9258 191.058C86.3832 191.058 86.7565 191.172 87.0458 191.401C87.3398 191.63 87.5055 191.933 87.5428 192.311H86.8428C86.8195 192.124 86.7215 191.961 86.5488 191.821C86.3762 191.676 86.1475 191.604 85.8628 191.604C85.5968 191.604 85.3798 191.674 85.2118 191.814C85.0438 191.949 84.9598 192.141 84.9598 192.388C84.9598 192.565 85.0088 192.71 85.1068 192.822C85.2095 192.934 85.3332 193.02 85.4778 193.081C85.6272 193.137 85.8348 193.202 86.1008 193.277C86.4228 193.366 86.6818 193.454 86.8778 193.543C87.0738 193.627 87.2418 193.76 87.3818 193.942C87.5218 194.119 87.5918 194.362 87.5918 194.67C87.5918 194.908 87.5288 195.132 87.4028 195.342C87.2768 195.552 87.0902 195.722 86.8428 195.853C86.5955 195.984 86.3038 196.049 85.9678 196.049ZM92.0292 193.935C92.0292 194.056 92.0222 194.185 92.0082 194.32H88.9422C88.9656 194.698 89.0939 194.994 89.3272 195.209C89.5652 195.419 89.8522 195.524 90.1882 195.524C90.4636 195.524 90.6922 195.461 90.8742 195.335C91.0609 195.204 91.1916 195.032 91.2662 194.817H91.9522C91.8496 195.186 91.6442 195.487 91.3362 195.72C91.0282 195.949 90.6456 196.063 90.1882 196.063C89.8242 196.063 89.4976 195.981 89.2082 195.818C88.9236 195.655 88.6996 195.424 88.5362 195.125C88.3729 194.822 88.2912 194.472 88.2912 194.075C88.2912 193.678 88.3706 193.331 88.5292 193.032C88.6879 192.733 88.9096 192.505 89.1942 192.346C89.4836 192.183 89.8149 192.101 90.1882 192.101C90.5522 192.101 90.8742 192.18 91.1542 192.339C91.4342 192.498 91.6489 192.717 91.7982 192.997C91.9522 193.272 92.0292 193.585 92.0292 193.935ZM91.3712 193.802C91.3712 193.559 91.3176 193.352 91.2102 193.179C91.1029 193.002 90.9559 192.869 90.7692 192.78C90.5872 192.687 90.3842 192.64 90.1602 192.64C89.8382 192.64 89.5629 192.743 89.3342 192.948C89.1102 193.153 88.9819 193.438 88.9492 193.802H91.3712ZM92.6321 194.075C92.6321 193.678 92.7114 193.333 92.8701 193.039C93.0287 192.74 93.2481 192.509 93.5281 192.346C93.8127 192.183 94.1371 192.101 94.5011 192.101C94.9724 192.101 95.3597 192.215 95.6631 192.444C95.9711 192.673 96.1741 192.99 96.2721 193.396H95.5861C95.5207 193.163 95.3924 192.978 95.2011 192.843C95.0144 192.708 94.7811 192.64 94.5011 192.64C94.1371 192.64 93.8431 192.766 93.6191 193.018C93.3951 193.265 93.2831 193.618 93.2831 194.075C93.2831 194.537 93.3951 194.894 93.6191 195.146C93.8431 195.398 94.1371 195.524 94.5011 195.524C94.7811 195.524 95.0144 195.459 95.2011 195.328C95.3877 195.197 95.5161 195.011 95.5861 194.768H96.2721C96.1694 195.16 95.9641 195.475 95.6561 195.713C95.3481 195.946 94.9631 196.063 94.5011 196.063C94.1371 196.063 93.8127 195.981 93.5281 195.818C93.2481 195.655 93.0287 195.424 92.8701 195.125C92.7114 194.826 92.6321 194.476 92.6321 194.075ZM98.795 196.063C98.4357 196.063 98.109 195.981 97.815 195.818C97.5257 195.655 97.297 195.424 97.129 195.125C96.9657 194.822 96.884 194.472 96.884 194.075C96.884 193.683 96.968 193.338 97.136 193.039C97.3087 192.736 97.542 192.505 97.836 192.346C98.13 192.183 98.459 192.101 98.823 192.101C99.187 192.101 99.516 192.183 99.81 192.346C100.104 192.505 100.335 192.733 100.503 193.032C100.676 193.331 100.762 193.678 100.762 194.075C100.762 194.472 100.673 194.822 100.496 195.125C100.323 195.424 100.088 195.655 99.789 195.818C99.4903 195.981 99.159 196.063 98.795 196.063ZM98.795 195.503C99.0237 195.503 99.2383 195.449 99.439 195.342C99.6397 195.235 99.8007 195.074 99.922 194.859C100.048 194.644 100.111 194.383 100.111 194.075C100.111 193.767 100.05 193.506 99.929 193.291C99.8077 193.076 99.649 192.918 99.453 192.815C99.257 192.708 99.0447 192.654 98.816 192.654C98.5827 192.654 98.368 192.708 98.172 192.815C97.9807 192.918 97.8267 193.076 97.71 193.291C97.5933 193.506 97.535 193.767 97.535 194.075C97.535 194.388 97.591 194.651 97.703 194.866C97.8197 195.081 97.9737 195.242 98.165 195.349C98.3563 195.452 98.5663 195.503 98.795 195.503ZM104.103 191.121V196H103.466V191.121H104.103ZM107.057 192.094C107.524 192.094 107.902 192.236 108.191 192.521C108.481 192.801 108.625 193.207 108.625 193.739V196H107.995V193.83C107.995 193.447 107.9 193.156 107.708 192.955C107.517 192.75 107.256 192.647 106.924 192.647C106.588 192.647 106.32 192.752 106.119 192.962C105.923 193.172 105.825 193.478 105.825 193.879V196H105.188V192.164H105.825V192.71C105.951 192.514 106.122 192.362 106.336 192.255C106.556 192.148 106.796 192.094 107.057 192.094ZM111.024 196.063C110.73 196.063 110.466 196.014 110.233 195.916C110 195.813 109.815 195.673 109.68 195.496C109.545 195.314 109.47 195.106 109.456 194.873H110.114C110.133 195.064 110.221 195.221 110.38 195.342C110.543 195.463 110.756 195.524 111.017 195.524C111.26 195.524 111.451 195.47 111.591 195.363C111.731 195.256 111.801 195.12 111.801 194.957C111.801 194.789 111.726 194.665 111.577 194.586C111.428 194.502 111.197 194.42 110.884 194.341C110.599 194.266 110.366 194.192 110.184 194.117C110.007 194.038 109.853 193.923 109.722 193.774C109.596 193.62 109.533 193.419 109.533 193.172C109.533 192.976 109.591 192.796 109.708 192.633C109.825 192.47 109.99 192.341 110.205 192.248C110.42 192.15 110.665 192.101 110.94 192.101C111.365 192.101 111.708 192.208 111.969 192.423C112.23 192.638 112.37 192.932 112.389 193.305H111.752C111.738 193.104 111.656 192.943 111.507 192.822C111.362 192.701 111.166 192.64 110.919 192.64C110.69 192.64 110.508 192.689 110.373 192.787C110.238 192.885 110.17 193.013 110.17 193.172C110.17 193.298 110.21 193.403 110.289 193.487C110.373 193.566 110.476 193.632 110.597 193.683C110.723 193.73 110.896 193.783 111.115 193.844C111.39 193.919 111.614 193.993 111.787 194.068C111.96 194.138 112.107 194.245 112.228 194.39C112.354 194.535 112.419 194.724 112.424 194.957C112.424 195.167 112.366 195.356 112.249 195.524C112.132 195.692 111.967 195.825 111.752 195.923C111.542 196.016 111.299 196.063 111.024 196.063ZM114.1 192.689V194.95C114.1 195.137 114.14 195.27 114.219 195.349C114.299 195.424 114.436 195.461 114.632 195.461H115.101V196H114.527C114.173 196 113.907 195.918 113.729 195.755C113.552 195.592 113.463 195.323 113.463 194.95V192.689H112.966V192.164H113.463V191.198H114.1V192.164H115.101V192.689H114.1ZM115.635 194.068C115.635 193.676 115.714 193.333 115.873 193.039C116.032 192.74 116.249 192.509 116.524 192.346C116.804 192.183 117.114 192.101 117.455 192.101C117.791 192.101 118.083 192.173 118.33 192.318C118.577 192.463 118.762 192.645 118.883 192.864V192.164H119.527V196H118.883V195.286C118.757 195.51 118.568 195.697 118.316 195.846C118.069 195.991 117.779 196.063 117.448 196.063C117.107 196.063 116.799 195.979 116.524 195.811C116.249 195.643 116.032 195.407 115.873 195.104C115.714 194.801 115.635 194.455 115.635 194.068ZM118.883 194.075C118.883 193.786 118.825 193.534 118.708 193.319C118.591 193.104 118.433 192.941 118.232 192.829C118.036 192.712 117.819 192.654 117.581 192.654C117.343 192.654 117.126 192.71 116.93 192.822C116.734 192.934 116.578 193.097 116.461 193.312C116.344 193.527 116.286 193.779 116.286 194.068C116.286 194.362 116.344 194.619 116.461 194.838C116.578 195.053 116.734 195.218 116.93 195.335C117.126 195.447 117.343 195.503 117.581 195.503C117.819 195.503 118.036 195.447 118.232 195.335C118.433 195.218 118.591 195.053 118.708 194.838C118.825 194.619 118.883 194.364 118.883 194.075ZM122.472 192.094C122.939 192.094 123.317 192.236 123.606 192.521C123.896 192.801 124.04 193.207 124.04 193.739V196H123.41V193.83C123.41 193.447 123.315 193.156 123.123 192.955C122.932 192.75 122.671 192.647 122.339 192.647C122.003 192.647 121.735 192.752 121.534 192.962C121.338 193.172 121.24 193.478 121.24 193.879V196H120.603V192.164H121.24V192.71C121.366 192.514 121.537 192.362 121.751 192.255C121.971 192.148 122.211 192.094 122.472 192.094ZM125.858 192.689V194.95C125.858 195.137 125.898 195.27 125.977 195.349C126.056 195.424 126.194 195.461 126.39 195.461H126.859V196H126.285C125.93 196 125.664 195.918 125.487 195.755C125.31 195.592 125.221 195.323 125.221 194.95V192.689H124.724V192.164H125.221V191.198H125.858V192.164H126.859V192.689H125.858ZM127.393 194.068C127.393 193.676 127.472 193.333 127.631 193.039C127.789 192.74 128.006 192.509 128.282 192.346C128.562 192.183 128.872 192.101 129.213 192.101C129.549 192.101 129.84 192.173 130.088 192.318C130.335 192.463 130.519 192.645 130.641 192.864V192.164H131.285V196H130.641V195.286C130.515 195.51 130.326 195.697 130.074 195.846C129.826 195.991 129.537 196.063 129.206 196.063C128.865 196.063 128.557 195.979 128.282 195.811C128.006 195.643 127.789 195.407 127.631 195.104C127.472 194.801 127.393 194.455 127.393 194.068ZM130.641 194.075C130.641 193.786 130.582 193.534 130.466 193.319C130.349 193.104 130.19 192.941 129.99 192.829C129.794 192.712 129.577 192.654 129.339 192.654C129.101 192.654 128.884 192.71 128.688 192.822C128.492 192.934 128.335 193.097 128.219 193.312C128.102 193.527 128.044 193.779 128.044 194.068C128.044 194.362 128.102 194.619 128.219 194.838C128.335 195.053 128.492 195.218 128.688 195.335C128.884 195.447 129.101 195.503 129.339 195.503C129.577 195.503 129.794 195.447 129.99 195.335C130.19 195.218 130.349 195.053 130.466 194.838C130.582 194.619 130.641 194.364 130.641 194.075ZM129.465 191.226L128.492 191.821V191.317L129.465 190.736L130.431 191.317V191.821L129.465 191.226ZM134.23 192.094C134.697 192.094 135.075 192.236 135.364 192.521C135.654 192.801 135.798 193.207 135.798 193.739V196H135.168V193.83C135.168 193.447 135.073 193.156 134.881 192.955C134.69 192.75 134.429 192.647 134.097 192.647C133.761 192.647 133.493 192.752 133.292 192.962C133.096 193.172 132.998 193.478 132.998 193.879V196H132.361V192.164H132.998V192.71C133.124 192.514 133.295 192.362 133.509 192.255C133.729 192.148 133.969 192.094 134.23 192.094ZM140.339 193.935C140.339 194.056 140.332 194.185 140.318 194.32H137.252C137.275 194.698 137.403 194.994 137.637 195.209C137.875 195.419 138.162 195.524 138.498 195.524C138.773 195.524 139.002 195.461 139.184 195.335C139.37 195.204 139.501 195.032 139.576 194.817H140.262C140.159 195.186 139.954 195.487 139.646 195.72C139.338 195.949 138.955 196.063 138.498 196.063C138.134 196.063 137.807 195.981 137.518 195.818C137.233 195.655 137.009 195.424 136.846 195.125C136.682 194.822 136.601 194.472 136.601 194.075C136.601 193.678 136.68 193.331 136.839 193.032C136.997 192.733 137.219 192.505 137.504 192.346C137.793 192.183 138.124 192.101 138.498 192.101C138.862 192.101 139.184 192.18 139.464 192.339C139.744 192.498 139.958 192.717 140.108 192.997C140.262 193.272 140.339 193.585 140.339 193.935ZM139.681 193.802C139.681 193.559 139.627 193.352 139.52 193.179C139.412 193.002 139.265 192.869 139.079 192.78C138.897 192.687 138.694 192.64 138.47 192.64C138.148 192.64 137.872 192.743 137.644 192.948C137.42 193.153 137.291 193.438 137.259 193.802H139.681ZM142.853 196.063C142.493 196.063 142.167 195.981 141.873 195.818C141.583 195.655 141.355 195.424 141.187 195.125C141.023 194.822 140.942 194.472 140.942 194.075C140.942 193.683 141.026 193.338 141.194 193.039C141.366 192.736 141.6 192.505 141.894 192.346C142.188 192.183 142.517 192.101 142.881 192.101C143.245 192.101 143.574 192.183 143.868 192.346C144.162 192.505 144.393 192.733 144.561 193.032C144.733 193.331 144.82 193.678 144.82 194.075C144.82 194.472 144.731 194.822 144.554 195.125C144.381 195.424 144.145 195.655 143.847 195.818C143.548 195.981 143.217 196.063 142.853 196.063ZM142.853 195.503C143.081 195.503 143.296 195.449 143.497 195.342C143.697 195.235 143.858 195.074 143.98 194.859C144.106 194.644 144.169 194.383 144.169 194.075C144.169 193.767 144.108 193.506 143.987 193.291C143.865 193.076 143.707 192.918 143.511 192.815C143.315 192.708 143.102 192.654 142.874 192.654C142.64 192.654 142.426 192.708 142.23 192.815C142.038 192.918 141.884 193.076 141.768 193.291C141.651 193.506 141.593 193.767 141.593 194.075C141.593 194.388 141.649 194.651 141.761 194.866C141.877 195.081 142.031 195.242 142.223 195.349C142.414 195.452 142.624 195.503 142.853 195.503Z" fill="white"/>
</svg>
