<svg width="159" height="85" viewBox="0 0 159 85" fill="none" xmlns="http://www.w3.org/2000/svg">
<g filter="url(#filter0_i_1_7)">
<rect x="45.267" width="59.8085" height="59.8085" rx="25" transform="rotate(49.1887 45.267 0)" fill="url(#paint0_linear_1_7)"/>
</g>
<path d="M49.9803 43.8981C51.2667 43.8981 52.3988 43.1946 52.982 42.1308L59.1226 30.9947C59.7572 29.8622 58.9339 28.4552 57.6303 28.4552H32.2446L30.6322 25.0234H25.0234V28.4552H28.4539L34.6288 41.4787L32.3132 45.6655C31.0611 47.9648 32.7077 50.7617 35.3149 50.7617H55.8979V47.3299H35.3149L37.2017 43.8981H49.9803ZM33.8741 31.8869H54.7144L49.9803 40.4664H37.9392L33.8741 31.8869ZM35.3149 52.4776C33.4281 52.4776 31.9015 54.0219 31.9015 55.9094C31.9015 57.7968 33.4281 59.3411 35.3149 59.3411C37.2017 59.3411 38.7454 57.7968 38.7454 55.9094C38.7454 54.0219 37.2017 52.4776 35.3149 52.4776ZM52.4674 52.4776C50.5806 52.4776 49.054 54.0219 49.054 55.9094C49.054 57.7968 50.5806 59.3411 52.4674 59.3411C54.3542 59.3411 55.8979 57.7968 55.8979 55.9094C55.8979 54.0219 54.3542 52.4776 52.4674 52.4776Z" fill="white"/>
<path d="M120.578 38.242C117.542 38.242 116.024 36.768 116.024 33.82V29.684H115.1C114.235 29.684 113.802 29.2733 113.802 28.452C113.802 27.616 114.235 27.198 115.1 27.198H116.024V25.526C116.024 24.3967 116.581 23.832 117.696 23.832C118.796 23.832 119.346 24.3967 119.346 25.526V27.198H121.436C122.287 27.198 122.712 27.616 122.712 28.452C122.712 29.2733 122.287 29.684 121.436 29.684H119.346V33.688C119.346 34.304 119.485 34.766 119.764 35.074C120.057 35.382 120.519 35.536 121.15 35.536C121.37 35.536 121.575 35.514 121.766 35.47C121.957 35.426 122.133 35.3967 122.294 35.382C122.499 35.3673 122.668 35.4333 122.8 35.58C122.932 35.7267 122.998 36.0273 122.998 36.482C122.998 36.8487 122.939 37.164 122.822 37.428C122.705 37.6773 122.499 37.8607 122.206 37.978C122.015 38.0513 121.751 38.11 121.414 38.154C121.091 38.2127 120.813 38.242 120.578 38.242ZM129.255 38.242C128.096 38.242 127.084 38.0147 126.219 37.56C125.368 37.0907 124.708 36.438 124.239 35.602C123.77 34.7513 123.535 33.7467 123.535 32.588C123.535 31.444 123.77 30.454 124.239 29.618C124.708 28.7673 125.368 28.1147 126.219 27.66C127.084 27.2053 128.096 26.978 129.255 26.978C130.414 26.978 131.418 27.2053 132.269 27.66C133.134 28.1147 133.802 28.7673 134.271 29.618C134.755 30.454 134.997 31.444 134.997 32.588C134.997 33.7467 134.755 34.7513 134.271 35.602C133.802 36.438 133.134 37.0907 132.269 37.56C131.418 38.0147 130.414 38.242 129.255 38.242ZM129.255 35.756C129.959 35.756 130.531 35.4993 130.971 34.986C131.426 34.4727 131.653 33.6733 131.653 32.588C131.653 31.5173 131.426 30.7327 130.971 30.234C130.531 29.7207 129.959 29.464 129.255 29.464C128.551 29.464 127.979 29.7207 127.539 30.234C127.099 30.7327 126.879 31.5173 126.879 32.588C126.879 33.6733 127.099 34.4727 127.539 34.986C127.979 35.4993 128.551 35.756 129.255 35.756ZM138.734 38.198C137.59 38.198 137.018 37.6333 137.018 36.504V28.694C137.018 27.5793 137.561 27.022 138.646 27.022C139.732 27.022 140.274 27.5793 140.274 28.694V29.09C140.802 27.7847 141.895 27.0807 143.552 26.978C143.919 26.9487 144.198 27.044 144.388 27.264C144.594 27.4693 144.704 27.814 144.718 28.298C144.748 28.7527 144.652 29.112 144.432 29.376C144.227 29.64 143.875 29.8013 143.376 29.86L142.87 29.904C141.228 30.0653 140.406 30.9013 140.406 32.412V36.504C140.406 37.6333 139.849 38.198 138.734 38.198ZM151.501 38.242C150.225 38.242 149.125 38.0147 148.201 37.56C147.292 37.0907 146.588 36.438 146.089 35.602C145.605 34.7513 145.363 33.754 145.363 32.61C145.363 31.4953 145.598 30.52 146.067 29.684C146.551 28.8333 147.204 28.1733 148.025 27.704C148.861 27.22 149.822 26.978 150.907 26.978C152.477 26.978 153.723 27.4767 154.647 28.474C155.571 29.4567 156.033 30.7913 156.033 32.478C156.033 33.0353 155.689 33.314 154.999 33.314H148.531C148.649 34.1647 148.957 34.788 149.455 35.184C149.969 35.5653 150.673 35.756 151.567 35.756C151.919 35.756 152.315 35.7193 152.755 35.646C153.21 35.558 153.643 35.4113 154.053 35.206C154.479 35.0007 154.838 34.964 155.131 35.096C155.425 35.2133 155.623 35.4187 155.725 35.712C155.843 36.0053 155.843 36.3133 155.725 36.636C155.623 36.944 155.381 37.2007 154.999 37.406C154.486 37.6847 153.914 37.89 153.283 38.022C152.667 38.1687 152.073 38.242 151.501 38.242ZM151.039 29.178C150.335 29.178 149.763 29.3907 149.323 29.816C148.898 30.2413 148.634 30.8353 148.531 31.598H153.283C153.195 29.9847 152.447 29.178 151.039 29.178ZM120.578 59.242C117.542 59.242 116.024 57.768 116.024 54.82V50.684H115.1C114.235 50.684 113.802 50.2733 113.802 49.452C113.802 48.616 114.235 48.198 115.1 48.198H116.024V46.526C116.024 45.3967 116.581 44.832 117.696 44.832C118.796 44.832 119.346 45.3967 119.346 46.526V48.198H121.436C122.287 48.198 122.712 48.616 122.712 49.452C122.712 50.2733 122.287 50.684 121.436 50.684H119.346V54.688C119.346 55.304 119.485 55.766 119.764 56.074C120.057 56.382 120.519 56.536 121.15 56.536C121.37 56.536 121.575 56.514 121.766 56.47C121.957 56.426 122.133 56.3967 122.294 56.382C122.499 56.3673 122.668 56.4333 122.8 56.58C122.932 56.7267 122.998 57.0273 122.998 57.482C122.998 57.8487 122.939 58.164 122.822 58.428C122.705 58.6773 122.499 58.8607 122.206 58.978C122.015 59.0513 121.751 59.11 121.414 59.154C121.091 59.2127 120.813 59.242 120.578 59.242ZM129.255 59.242C128.096 59.242 127.084 59.0147 126.219 58.56C125.368 58.0907 124.708 57.438 124.239 56.602C123.77 55.7513 123.535 54.7467 123.535 53.588C123.535 52.444 123.77 51.454 124.239 50.618C124.708 49.7673 125.368 49.1147 126.219 48.66C127.084 48.2053 128.096 47.978 129.255 47.978C130.414 47.978 131.418 48.2053 132.269 48.66C133.134 49.1147 133.802 49.7673 134.271 50.618C134.755 51.454 134.997 52.444 134.997 53.588C134.997 54.7467 134.755 55.7513 134.271 56.602C133.802 57.438 133.134 58.0907 132.269 58.56C131.418 59.0147 130.414 59.242 129.255 59.242ZM129.255 56.756C129.959 56.756 130.531 56.4993 130.971 55.986C131.426 55.4727 131.653 54.6733 131.653 53.588C131.653 52.5173 131.426 51.7327 130.971 51.234C130.531 50.7207 129.959 50.464 129.255 50.464C128.551 50.464 127.979 50.7207 127.539 51.234C127.099 51.7327 126.879 52.5173 126.879 53.588C126.879 54.6733 127.099 55.4727 127.539 55.986C127.979 56.4993 128.551 56.756 129.255 56.756ZM142.276 59.242C141.103 59.242 140.076 59.0147 139.196 58.56C138.331 58.0907 137.664 57.4307 137.194 56.58C136.725 55.7293 136.49 54.7247 136.49 53.566C136.49 52.4073 136.725 51.41 137.194 50.574C137.664 49.738 138.331 49.1 139.196 48.66C140.076 48.2053 141.103 47.978 142.276 47.978C142.731 47.978 143.215 48.0367 143.728 48.154C144.256 48.2567 144.762 48.44 145.246 48.704C145.613 48.88 145.84 49.1293 145.928 49.452C146.016 49.76 145.994 50.068 145.862 50.376C145.745 50.684 145.547 50.9113 145.268 51.058C145.004 51.19 144.689 51.1607 144.322 50.97C143.736 50.662 143.164 50.508 142.606 50.508C141.741 50.508 141.066 50.7793 140.582 51.322C140.113 51.85 139.878 52.6053 139.878 53.588C139.878 54.556 140.113 55.3187 140.582 55.876C141.066 56.4187 141.741 56.69 142.606 56.69C142.87 56.69 143.149 56.6607 143.442 56.602C143.736 56.5287 144.029 56.4113 144.322 56.25C144.689 56.0593 145.004 56.0373 145.268 56.184C145.547 56.3307 145.738 56.558 145.84 56.866C145.943 57.1593 145.95 57.4673 145.862 57.79C145.774 58.1127 145.554 58.362 145.202 58.538C144.704 58.7873 144.205 58.9633 143.706 59.066C143.208 59.1833 142.731 59.242 142.276 59.242ZM149.196 59.198C148.081 59.198 147.524 58.6333 147.524 57.504V44.986C147.524 43.8567 148.081 43.292 149.196 43.292C150.296 43.292 150.846 43.8567 150.846 44.986V52.664H150.89L154.08 49.122C154.403 48.7553 154.696 48.484 154.96 48.308C155.224 48.1173 155.591 48.022 156.06 48.022C156.515 48.022 156.867 48.1393 157.116 48.374C157.365 48.594 157.49 48.88 157.49 49.232C157.49 49.5693 157.343 49.8993 157.05 50.222L154.234 53.368L157.424 57.042C157.703 57.394 157.82 57.7387 157.776 58.076C157.747 58.3987 157.6 58.67 157.336 58.89C157.072 59.0953 156.735 59.198 156.324 59.198C155.811 59.198 155.407 59.1027 155.114 58.912C154.835 58.7213 154.535 58.428 154.212 58.032L150.89 54.336H150.846V57.504C150.846 58.6333 150.296 59.198 149.196 59.198Z" fill="white"/>
<path d="M96.796 60.572C94.5773 60.572 92.3587 60.3293 90.14 59.844C87.9213 59.3587 85.9973 58.648 84.368 57.712C83.3973 57.192 82.7907 56.4987 82.548 55.632C82.3053 54.7307 82.3573 53.864 82.704 53.032C83.0507 52.2 83.6053 51.6107 84.368 51.264C85.1307 50.9173 86.0493 51.004 87.124 51.524C88.5107 52.3213 90.0533 52.9107 91.752 53.292C93.4507 53.6733 95.132 53.864 96.796 53.864C99.292 53.864 101.077 53.4827 102.152 52.72C103.261 51.9227 103.816 50.9347 103.816 49.756C103.816 48.7507 103.435 47.9533 102.672 47.364C101.909 46.7747 100.575 46.272 98.668 45.856L92.792 44.608C86.24 43.2213 82.964 39.824 82.964 34.416C82.964 32.0933 83.588 30.0653 84.836 28.332C86.084 26.564 87.8173 25.1947 90.036 24.224C92.2893 23.2533 94.8893 22.768 97.836 22.768C99.7773 22.768 101.684 23.0107 103.556 23.496C105.428 23.9467 107.075 24.6227 108.496 25.524C109.363 26.044 109.9 26.72 110.108 27.552C110.316 28.384 110.247 29.1813 109.9 29.944C109.588 30.7067 109.033 31.244 108.236 31.556C107.473 31.868 106.52 31.7467 105.376 31.192C104.232 30.6027 103.019 30.1693 101.736 29.892C100.453 29.6147 99.136 29.476 97.784 29.476C95.6 29.476 93.9013 29.9093 92.688 30.776C91.5093 31.608 90.92 32.7 90.92 34.052C90.92 35.0573 91.284 35.872 92.012 36.496C92.74 37.12 94.0053 37.6227 95.808 38.004L101.684 39.252C108.409 40.708 111.772 44.0013 111.772 49.132C111.772 51.42 111.148 53.4307 109.9 55.164C108.687 56.8627 106.953 58.1973 104.7 59.168C102.481 60.104 99.8467 60.572 96.796 60.572Z" fill="#0085FF"/>
<defs>
<filter id="filter0_i_1_7" x="10.2605" y="10.2605" width="63.835" height="67.835" filterUnits="userSpaceOnUse" color-interpolation-filters="sRGB">
<feFlood flood-opacity="0" result="BackgroundImageFix"/>
<feBlend mode="normal" in="SourceGraphic" in2="BackgroundImageFix" result="shape"/>
<feColorMatrix in="SourceAlpha" type="matrix" values="0 0 0 0 0 0 0 0 0 0 0 0 0 0 0 0 0 0 127 0" result="hardAlpha"/>
<feOffset dy="10"/>
<feGaussianBlur stdDeviation="2"/>
<feComposite in2="hardAlpha" operator="arithmetic" k2="-1" k3="1"/>
<feColorMatrix type="matrix" values="0 0 0 0 0 0 0 0 0 0 0 0 0 0 0 0 0 0 0.25 0"/>
<feBlend mode="normal" in2="shape" result="effect1_innerShadow_1_7"/>
</filter>
<linearGradient id="paint0_linear_1_7" x1="46.087" y1="117.194" x2="105.12" y2="6.16751" gradientUnits="userSpaceOnUse">
<stop stop-color="#020C23"/>
<stop offset="0.579443" stop-color="#0085FF"/>
<stop offset="1" stop-color="#091126"/>
</linearGradient>
</defs>
</svg>
