<svg viewBox="0 0 214 118" fill="none" xmlns="http://www.w3.org/2000/svg">
        <g filter="url(#filter0_i_1_7)">
        <rect x="63.3146" width="83.6537" height="83.6537" rx="25" transform="rotate(49.1887 63.3146 0)" fill="url(#paint0_linear_1_7)"/>
        </g>
        <path d="M67.1803 60.8C68.5298 60.8 69.7173 60.062 70.3291 58.946L76.7707 47.264C77.4365 46.076 76.5728 44.6 75.2053 44.6H48.5752L46.8838 41H41V44.6H44.5987L51.0763 58.262L48.6472 62.654C47.3336 65.066 49.061 68 51.796 68H73.388V64.4H51.796L53.7753 60.8H67.1803ZM50.2846 48.2H72.1464L67.1803 57.2H54.549L50.2846 48.2ZM51.796 69.8C49.8167 69.8 48.2153 71.42 48.2153 73.4C48.2153 75.38 49.8167 77 51.796 77C53.7753 77 55.3947 75.38 55.3947 73.4C55.3947 71.42 53.7753 69.8 51.796 69.8ZM69.7893 69.8C67.81 69.8 66.2086 71.42 66.2086 73.4C66.2086 75.38 67.81 77 69.7893 77C71.7686 77 73.388 75.38 73.388 73.4C73.388 71.42 71.7686 69.8 69.7893 69.8Z" fill="white"/>
        <path d="M165.372 57.308C161.508 57.308 159.576 55.432 159.576 51.68V46.416H158.4C157.299 46.416 156.748 45.8933 156.748 44.848C156.748 43.784 157.299 43.252 158.4 43.252H159.576V41.124C159.576 39.6867 160.285 38.968 161.704 38.968C163.104 38.968 163.804 39.6867 163.804 41.124V43.252H166.464C167.547 43.252 168.088 43.784 168.088 44.848C168.088 45.8933 167.547 46.416 166.464 46.416H163.804V51.512C163.804 52.296 163.981 52.884 164.336 53.276C164.709 53.668 165.297 53.864 166.1 53.864C166.38 53.864 166.641 53.836 166.884 53.78C167.127 53.724 167.351 53.6867 167.556 53.668C167.817 53.6493 168.032 53.7333 168.2 53.92C168.368 54.1067 168.452 54.4893 168.452 55.068C168.452 55.5347 168.377 55.936 168.228 56.272C168.079 56.5893 167.817 56.8227 167.444 56.972C167.201 57.0653 166.865 57.14 166.436 57.196C166.025 57.2707 165.671 57.308 165.372 57.308ZM176.416 57.308C174.941 57.308 173.653 57.0187 172.552 56.44C171.469 55.8427 170.629 55.012 170.032 53.948C169.434 52.8653 169.136 51.5867 169.136 50.112C169.136 48.656 169.434 47.396 170.032 46.332C170.629 45.2493 171.469 44.4187 172.552 43.84C173.653 43.2613 174.941 42.972 176.416 42.972C177.89 42.972 179.169 43.2613 180.252 43.84C181.353 44.4187 182.202 45.2493 182.8 46.332C183.416 47.396 183.724 48.656 183.724 50.112C183.724 51.5867 183.416 52.8653 182.8 53.948C182.202 55.012 181.353 55.8427 180.252 56.44C179.169 57.0187 177.89 57.308 176.416 57.308ZM176.416 54.144C177.312 54.144 178.04 53.8173 178.6 53.164C179.178 52.5107 179.468 51.4933 179.468 50.112C179.468 48.7493 179.178 47.7507 178.6 47.116C178.04 46.4627 177.312 46.136 176.416 46.136C175.52 46.136 174.792 46.4627 174.232 47.116C173.672 47.7507 173.392 48.7493 173.392 50.112C173.392 51.4933 173.672 52.5107 174.232 53.164C174.792 53.8173 175.52 54.144 176.416 54.144ZM188.48 57.252C187.024 57.252 186.296 56.5333 186.296 55.096V45.156C186.296 43.7373 186.987 43.028 188.368 43.028C189.749 43.028 190.44 43.7373 190.44 45.156V45.66C191.112 43.9987 192.503 43.1027 194.612 42.972C195.079 42.9347 195.433 43.056 195.676 43.336C195.937 43.5973 196.077 44.036 196.096 44.652C196.133 45.2307 196.012 45.688 195.732 46.024C195.471 46.36 195.023 46.5653 194.388 46.64L193.744 46.696C191.653 46.9013 190.608 47.9653 190.608 49.888V55.096C190.608 56.5333 189.899 57.252 188.48 57.252ZM204.729 57.308C203.105 57.308 201.705 57.0187 200.529 56.44C199.372 55.8427 198.476 55.012 197.841 53.948C197.225 52.8653 196.917 51.596 196.917 50.14C196.917 48.7213 197.216 47.48 197.813 46.416C198.429 45.3333 199.26 44.4933 200.305 43.896C201.369 43.28 202.592 42.972 203.973 42.972C205.97 42.972 207.557 43.6067 208.733 44.876C209.909 46.1267 210.497 47.8253 210.497 49.972C210.497 50.6813 210.058 51.036 209.181 51.036H200.949C201.098 52.1187 201.49 52.912 202.125 53.416C202.778 53.9013 203.674 54.144 204.813 54.144C205.261 54.144 205.765 54.0973 206.325 54.004C206.904 53.892 207.454 53.7053 207.977 53.444C208.518 53.1827 208.976 53.136 209.349 53.304C209.722 53.4533 209.974 53.7147 210.105 54.088C210.254 54.4613 210.254 54.8533 210.105 55.264C209.974 55.656 209.666 55.9827 209.181 56.244C208.528 56.5987 207.8 56.86 206.997 57.028C206.213 57.2147 205.457 57.308 204.729 57.308ZM204.141 45.772C203.245 45.772 202.517 46.0427 201.957 46.584C201.416 47.1253 201.08 47.8813 200.949 48.852H206.997C206.885 46.7987 205.933 45.772 204.141 45.772ZM165.372 82.308C161.508 82.308 159.576 80.432 159.576 76.68V71.416H158.4C157.299 71.416 156.748 70.8933 156.748 69.848C156.748 68.784 157.299 68.252 158.4 68.252H159.576V66.124C159.576 64.6867 160.285 63.968 161.704 63.968C163.104 63.968 163.804 64.6867 163.804 66.124V68.252H166.464C167.547 68.252 168.088 68.784 168.088 69.848C168.088 70.8933 167.547 71.416 166.464 71.416H163.804V76.512C163.804 77.296 163.981 77.884 164.336 78.276C164.709 78.668 165.297 78.864 166.1 78.864C166.38 78.864 166.641 78.836 166.884 78.78C167.127 78.724 167.351 78.6867 167.556 78.668C167.817 78.6493 168.032 78.7333 168.2 78.92C168.368 79.1067 168.452 79.4893 168.452 80.068C168.452 80.5347 168.377 80.936 168.228 81.272C168.079 81.5893 167.817 81.8227 167.444 81.972C167.201 82.0653 166.865 82.14 166.436 82.196C166.025 82.2707 165.671 82.308 165.372 82.308ZM176.416 82.308C174.941 82.308 173.653 82.0187 172.552 81.44C171.469 80.8427 170.629 80.012 170.032 78.948C169.434 77.8653 169.136 76.5867 169.136 75.112C169.136 73.656 169.434 72.396 170.032 71.332C170.629 70.2493 171.469 69.4187 172.552 68.84C173.653 68.2613 174.941 67.972 176.416 67.972C177.89 67.972 179.169 68.2613 180.252 68.84C181.353 69.4187 182.202 70.2493 182.8 71.332C183.416 72.396 183.724 73.656 183.724 75.112C183.724 76.5867 183.416 77.8653 182.8 78.948C182.202 80.012 181.353 80.8427 180.252 81.44C179.169 82.0187 177.89 82.308 176.416 82.308ZM176.416 79.144C177.312 79.144 178.04 78.8173 178.6 78.164C179.178 77.5107 179.468 76.4933 179.468 75.112C179.468 73.7493 179.178 72.7507 178.6 72.116C178.04 71.4627 177.312 71.136 176.416 71.136C175.52 71.136 174.792 71.4627 174.232 72.116C173.672 72.7507 173.392 73.7493 173.392 75.112C173.392 76.4933 173.672 77.5107 174.232 78.164C174.792 78.8173 175.52 79.144 176.416 79.144ZM192.988 82.308C191.495 82.308 190.188 82.0187 189.068 81.44C187.967 80.8427 187.117 80.0027 186.52 78.92C185.923 77.8373 185.624 76.5587 185.624 75.084C185.624 73.6093 185.923 72.34 186.52 71.276C187.117 70.212 187.967 69.4 189.068 68.84C190.188 68.2613 191.495 67.972 192.988 67.972C193.567 67.972 194.183 68.0467 194.836 68.196C195.508 68.3267 196.152 68.56 196.768 68.896C197.235 69.12 197.524 69.4373 197.636 69.848C197.748 70.24 197.72 70.632 197.552 71.024C197.403 71.416 197.151 71.7053 196.796 71.892C196.46 72.06 196.059 72.0227 195.592 71.78C194.845 71.388 194.117 71.192 193.408 71.192C192.307 71.192 191.448 71.5373 190.832 72.228C190.235 72.9 189.936 73.8613 189.936 75.112C189.936 76.344 190.235 77.3147 190.832 78.024C191.448 78.7147 192.307 79.06 193.408 79.06C193.744 79.06 194.099 79.0227 194.472 78.948C194.845 78.8547 195.219 78.7053 195.592 78.5C196.059 78.2573 196.46 78.2293 196.796 78.416C197.151 78.6027 197.393 78.892 197.524 79.284C197.655 79.6573 197.664 80.0493 197.552 80.46C197.44 80.8707 197.16 81.188 196.712 81.412C196.077 81.7293 195.443 81.9533 194.808 82.084C194.173 82.2333 193.567 82.308 192.988 82.308ZM201.795 82.252C200.376 82.252 199.667 81.5333 199.667 80.096V64.164C199.667 62.7267 200.376 62.008 201.795 62.008C203.195 62.008 203.895 62.7267 203.895 64.164V73.936H203.951L208.011 69.428C208.422 68.9613 208.795 68.616 209.131 68.392C209.467 68.1493 209.934 68.028 210.531 68.028C211.11 68.028 211.558 68.1773 211.875 68.476C212.192 68.756 212.351 69.12 212.351 69.568C212.351 69.9973 212.164 70.4173 211.791 70.828L208.207 74.832L212.267 79.508C212.622 79.956 212.771 80.3947 212.715 80.824C212.678 81.2347 212.491 81.58 212.155 81.86C211.819 82.1213 211.39 82.252 210.867 82.252C210.214 82.252 209.7 82.1307 209.327 81.888C208.972 81.6453 208.59 81.272 208.179 80.768L203.951 76.064H203.895V80.096C203.895 81.5333 203.195 82.252 201.795 82.252Z" fill="white"/>
        <path d="M134.026 82.682C131.381 82.682 128.735 82.3927 126.09 81.814C123.445 81.2353 121.151 80.388 119.208 79.272C118.051 78.652 117.327 77.8253 117.038 76.792C116.749 75.7173 116.811 74.684 117.224 73.692C117.637 72.7 118.299 71.9973 119.208 71.584C120.117 71.1707 121.213 71.274 122.494 71.894C124.147 72.8447 125.987 73.5473 128.012 74.002C130.037 74.4567 132.042 74.684 134.026 74.684C137.002 74.684 139.131 74.2293 140.412 73.32C141.735 72.3693 142.396 71.1913 142.396 69.786C142.396 68.5873 141.941 67.6367 141.032 66.934C140.123 66.2313 138.531 65.632 136.258 65.136L129.252 63.648C121.44 61.9947 117.534 57.944 117.534 51.496C117.534 48.7267 118.278 46.3087 119.766 44.242C121.254 42.134 123.321 40.5013 125.966 39.344C128.653 38.1867 131.753 37.608 135.266 37.608C137.581 37.608 139.854 37.8973 142.086 38.476C144.318 39.0133 146.281 39.8193 147.976 40.894C149.009 41.514 149.65 42.32 149.898 43.312C150.146 44.304 150.063 45.2547 149.65 46.164C149.278 47.0733 148.617 47.714 147.666 48.086C146.757 48.458 145.62 48.3133 144.256 47.652C142.892 46.9493 141.445 46.4327 139.916 46.102C138.387 45.7713 136.816 45.606 135.204 45.606C132.6 45.606 130.575 46.1227 129.128 47.156C127.723 48.148 127.02 49.45 127.02 51.062C127.02 52.2607 127.454 53.232 128.322 53.976C129.19 54.72 130.699 55.3193 132.848 55.774L139.854 57.262C147.873 58.998 151.882 62.9247 151.882 69.042C151.882 71.77 151.138 74.1673 149.65 76.234C148.203 78.2593 146.137 79.8507 143.45 81.008C140.805 82.124 137.663 82.682 134.026 82.682Z" fill="#0085FF"/>
        <defs>
        <filter id="filter0_i_1_7" x="10.2605" y="10.2605" width="97.4672" height="101.467" filterUnits="userSpaceOnUse" color-interpolation-filters="sRGB">
        <feFlood flood-opacity="0" result="BackgroundImageFix"/>
        <feBlend mode="normal" in="SourceGraphic" in2="BackgroundImageFix" result="shape"/>
        <feColorMatrix in="SourceAlpha" type="matrix" values="0 0 0 0 0 0 0 0 0 0 0 0 0 0 0 0 0 0 127 0" result="hardAlpha"/>
        <feOffset dy="10"/>
        <feGaussianBlur stdDeviation="2"/>
        <feComposite in2="hardAlpha" operator="arithmetic" k2="-1" k3="1"/>
        <feColorMatrix type="matrix" values="0 0 0 0 0 0 0 0 0 0 0 0 0 0 0 0 0 0 0.25 0"/>
        <feBlend mode="normal" in2="shape" result="effect1_innerShadow_1_7"/>
        </filter>
        <linearGradient id="paint0_linear_1_7" x1="64.4615" y1="163.918" x2="147.031" y2="8.62645" gradientUnits="userSpaceOnUse">
        <stop stop-color="#020C23"/>
        <stop offset="0.579443" stop-color="#0085FF"/>
        <stop offset="1" stop-color="#091126"/>
        </linearGradient>
        </defs>
        </svg> 