<svg width="218" height="405" viewBox="0 0 218 405" fill="none" xmlns="http://www.w3.org/2000/svg">
<path d="M0.497548 250.5L0.497553 134.514C0.497553 131.515 0.85264 128.526 1.55541 125.61L5.61595 108.763C8.81712 95.4814 15.408 83.2568 24.745 73.2832L32.4999 64.9996L32.4999 45.9996L26.4999 45.9996C20.977 45.9996 16.4999 41.5224 16.4999 35.9996L16.4999 26.7499C16.4999 12.8047 27.8047 1.49986 41.7499 1.49985L177.5 1.49982C192.964 1.49982 205.5 14.0358 205.5 29.4998L205.5 35.9996C205.5 41.5224 201.023 45.9996 195.5 45.9996L189.5 45.9996L189.5 50.5366C189.5 59.84 192.983 68.8064 199.263 75.6705C206.917 84.0373 211.936 94.4749 213.691 105.678L217.042 127.077C217.347 129.022 217.5 130.988 217.5 132.957L217.5 344.358C217.5 356.567 212.428 368.226 203.496 376.549L184.157 394.569C177.308 400.951 168.295 404.5 158.933 404.5L55.3695 404.5C45.2359 404.5 35.5459 400.344 28.5615 393.002L12.6178 376.241C4.83682 368.061 0.497543 357.204 0.497544 345.915L0.497548 250.5Z" fill="#FFF5B3"/>
<path d="M183 0.5H38.4999C25.7973 0.5 15.4999 10.7975 15.4999 23.5V35C15.4999 41.3513 20.6486 46.5 26.9999 46.5H194C200.351 46.5 205.5 41.3513 205.5 35V23C205.5 10.5736 195.426 0.5 183 0.5Z" fill="#214C83" stroke="#214C83"/>
<rect x="0.999878" y="175" width="215" height="159" fill="#ECE2D9"/>
<path d="M77.5999 290.04V304H74.7999V294.92L71.0599 304H68.9399L65.1799 294.92V304H62.3799V290.04H65.5599L69.9999 300.42L74.4399 290.04H77.5999ZM79.6482 298.42C79.6482 297.3 79.8682 296.307 80.3082 295.44C80.7615 294.573 81.3682 293.907 82.1282 293.44C82.9015 292.973 83.7615 292.74 84.7082 292.74C85.5348 292.74 86.2548 292.907 86.8682 293.24C87.4948 293.573 87.9948 293.993 88.3682 294.5V292.92H91.1882V304H88.3682V302.38C88.0082 302.9 87.5082 303.333 86.8682 303.68C86.2415 304.013 85.5148 304.18 84.6882 304.18C83.7548 304.18 82.9015 303.94 82.1282 303.46C81.3682 302.98 80.7615 302.307 80.3082 301.44C79.8682 300.56 79.6482 299.553 79.6482 298.42ZM88.3682 298.46C88.3682 297.78 88.2348 297.2 87.9682 296.72C87.7015 296.227 87.3415 295.853 86.8882 295.6C86.4348 295.333 85.9482 295.2 85.4282 295.2C84.9082 295.2 84.4282 295.327 83.9882 295.58C83.5482 295.833 83.1882 296.207 82.9082 296.7C82.6415 297.18 82.5082 297.753 82.5082 298.42C82.5082 299.087 82.6415 299.673 82.9082 300.18C83.1882 300.673 83.5482 301.053 83.9882 301.32C84.4415 301.587 84.9215 301.72 85.4282 301.72C85.9482 301.72 86.4348 301.593 86.8882 301.34C87.3415 301.073 87.7015 300.7 87.9682 300.22C88.2348 299.727 88.3682 299.14 88.3682 298.46ZM95.3428 291.6C94.8495 291.6 94.4362 291.447 94.1028 291.14C93.7828 290.82 93.6228 290.427 93.6228 289.96C93.6228 289.493 93.7828 289.107 94.1028 288.8C94.4362 288.48 94.8495 288.32 95.3428 288.32C95.8362 288.32 96.2428 288.48 96.5628 288.8C96.8962 289.107 97.0628 289.493 97.0628 289.96C97.0628 290.427 96.8962 290.82 96.5628 291.14C96.2428 291.447 95.8362 291.6 95.3428 291.6ZM96.7228 292.92V304H93.9228V292.92H96.7228ZM104.409 304.18C103.343 304.18 102.383 303.947 101.529 303.48C100.676 303 100.003 302.327 99.5093 301.46C99.0293 300.593 98.7893 299.593 98.7893 298.46C98.7893 297.327 99.0359 296.327 99.5293 295.46C100.036 294.593 100.723 293.927 101.589 293.46C102.456 292.98 103.423 292.74 104.489 292.74C105.556 292.74 106.523 292.98 107.389 293.46C108.256 293.927 108.936 294.593 109.429 295.46C109.936 296.327 110.189 297.327 110.189 298.46C110.189 299.593 109.929 300.593 109.409 301.46C108.903 302.327 108.209 303 107.329 303.48C106.463 303.947 105.489 304.18 104.409 304.18ZM104.409 301.74C104.916 301.74 105.389 301.62 105.829 301.38C106.283 301.127 106.643 300.753 106.909 300.26C107.176 299.767 107.309 299.167 107.309 298.46C107.309 297.407 107.029 296.6 106.469 296.04C105.923 295.467 105.249 295.18 104.449 295.18C103.649 295.18 102.976 295.467 102.429 296.04C101.896 296.6 101.629 297.407 101.629 298.46C101.629 299.513 101.889 300.327 102.409 300.9C102.943 301.46 103.609 301.74 104.409 301.74ZM118.383 292.76C119.703 292.76 120.77 293.18 121.583 294.02C122.396 294.847 122.803 296.007 122.803 297.5V304H120.003V297.88C120.003 297 119.783 296.327 119.343 295.86C118.903 295.38 118.303 295.14 117.543 295.14C116.77 295.14 116.156 295.38 115.703 295.86C115.263 296.327 115.043 297 115.043 297.88V304H112.243V292.92H115.043V294.3C115.416 293.82 115.89 293.447 116.463 293.18C117.05 292.9 117.69 292.76 118.383 292.76ZM135.766 298.22C135.766 298.62 135.739 298.98 135.686 299.3H127.586C127.652 300.1 127.932 300.727 128.426 301.18C128.919 301.633 129.526 301.86 130.246 301.86C131.286 301.86 132.026 301.413 132.466 300.52H135.486C135.166 301.587 134.552 302.467 133.646 303.16C132.739 303.84 131.626 304.18 130.306 304.18C129.239 304.18 128.279 303.947 127.426 303.48C126.586 303 125.926 302.327 125.446 301.46C124.979 300.593 124.746 299.593 124.746 298.46C124.746 297.313 124.979 296.307 125.446 295.44C125.912 294.573 126.566 293.907 127.406 293.44C128.246 292.973 129.212 292.74 130.306 292.74C131.359 292.74 132.299 292.967 133.126 293.42C133.966 293.873 134.612 294.52 135.066 295.36C135.532 296.187 135.766 297.14 135.766 298.22ZM132.866 297.42C132.852 296.7 132.592 296.127 132.086 295.7C131.579 295.26 130.959 295.04 130.226 295.04C129.532 295.04 128.946 295.253 128.466 295.68C127.999 296.093 127.712 296.673 127.606 297.42H132.866ZM142.05 304.18C141.143 304.18 140.33 304.02 139.61 303.7C138.89 303.367 138.316 302.92 137.89 302.36C137.476 301.8 137.25 301.18 137.21 300.5H140.03C140.083 300.927 140.29 301.28 140.65 301.56C141.023 301.84 141.483 301.98 142.03 301.98C142.563 301.98 142.976 301.873 143.27 301.66C143.576 301.447 143.73 301.173 143.73 300.84C143.73 300.48 143.543 300.213 143.17 300.04C142.81 299.853 142.23 299.653 141.43 299.44C140.603 299.24 139.923 299.033 139.39 298.82C138.87 298.607 138.416 298.28 138.03 297.84C137.656 297.4 137.47 296.807 137.47 296.06C137.47 295.447 137.643 294.887 137.99 294.38C138.35 293.873 138.856 293.473 139.51 293.18C140.176 292.887 140.956 292.74 141.85 292.74C143.17 292.74 144.223 293.073 145.01 293.74C145.796 294.393 146.23 295.28 146.31 296.4H143.63C143.59 295.96 143.403 295.613 143.07 295.36C142.75 295.093 142.316 294.96 141.77 294.96C141.263 294.96 140.87 295.053 140.59 295.24C140.323 295.427 140.19 295.687 140.19 296.02C140.19 296.393 140.376 296.68 140.75 296.88C141.123 297.067 141.703 297.26 142.49 297.46C143.29 297.66 143.95 297.867 144.47 298.08C144.99 298.293 145.436 298.627 145.81 299.08C146.196 299.52 146.396 300.107 146.41 300.84C146.41 301.48 146.23 302.053 145.87 302.56C145.523 303.067 145.016 303.467 144.35 303.76C143.696 304.04 142.93 304.18 142.05 304.18ZM159.008 298.22C159.008 298.62 158.981 298.98 158.928 299.3H150.828C150.895 300.1 151.175 300.727 151.668 301.18C152.161 301.633 152.768 301.86 153.488 301.86C154.528 301.86 155.268 301.413 155.708 300.52H158.728C158.408 301.587 157.795 302.467 156.888 303.16C155.981 303.84 154.868 304.18 153.548 304.18C152.481 304.18 151.521 303.947 150.668 303.48C149.828 303 149.168 302.327 148.688 301.46C148.221 300.593 147.988 299.593 147.988 298.46C147.988 297.313 148.221 296.307 148.688 295.44C149.155 294.573 149.808 293.907 150.648 293.44C151.488 292.973 152.455 292.74 153.548 292.74C154.601 292.74 155.541 292.967 156.368 293.42C157.208 293.873 157.855 294.52 158.308 295.36C158.775 296.187 159.008 297.14 159.008 298.22ZM156.108 297.42C156.095 296.7 155.835 296.127 155.328 295.7C154.821 295.26 154.201 295.04 153.468 295.04C152.775 295.04 152.188 295.253 151.708 295.68C151.241 296.093 150.955 296.673 150.848 297.42H156.108Z" fill="#091126"/>
</svg>
