<svg width="190" height="411" viewBox="0 0 190 411" fill="none" xmlns="http://www.w3.org/2000/svg">
<path d="M8.90543 367.823L8.90543 71.75L181.094 71.75L181.094 367.604C181.094 370.021 179.643 372.202 177.414 373.137L118.115 398.004C99.6392 405.752 78.7288 405.212 60.6774 396.521L12.3026 373.229C10.2258 372.229 8.90543 370.128 8.90543 367.823Z" fill="#543519" stroke="black"/>
<rect y="0.5" width="190" height="71.25" rx="5" fill="#FFD938"/>
<rect x="9" y="107" width="172" height="217" fill="url(#paint0_linear_33_39)"/>
<path d="M32.455 230.005H28.285L27.595 232H25.39L29.155 221.515H31.6L35.365 232H33.145L32.455 230.005ZM31.885 228.325L30.37 223.945L28.855 228.325H31.885ZM47.0923 223.57C48.1123 223.57 48.9323 223.885 49.5523 224.515C50.1823 225.135 50.4973 226.005 50.4973 227.125V232H48.3973V227.41C48.3973 226.76 48.2323 226.265 47.9023 225.925C47.5723 225.575 47.1223 225.4 46.5523 225.4C45.9823 225.4 45.5273 225.575 45.1873 225.925C44.8573 226.265 44.6923 226.76 44.6923 227.41V232H42.5923V227.41C42.5923 226.76 42.4273 226.265 42.0973 225.925C41.7673 225.575 41.3173 225.4 40.7473 225.4C40.1673 225.4 39.7073 225.575 39.3673 225.925C39.0373 226.265 38.8723 226.76 38.8723 227.41V232H36.7723V223.69H38.8723V224.695C39.1423 224.345 39.4873 224.07 39.9073 223.87C40.3373 223.67 40.8073 223.57 41.3173 223.57C41.9673 223.57 42.5473 223.71 43.0573 223.99C43.5673 224.26 43.9623 224.65 44.2423 225.16C44.5123 224.68 44.9023 224.295 45.4123 224.005C45.9323 223.715 46.4923 223.57 47.0923 223.57ZM51.9501 227.815C51.9501 226.975 52.1151 226.23 52.4451 225.58C52.7851 224.93 53.2401 224.43 53.8101 224.08C54.3901 223.73 55.0351 223.555 55.7451 223.555C56.3651 223.555 56.9051 223.68 57.3651 223.93C57.8351 224.18 58.2101 224.495 58.4901 224.875V223.69H60.6051V232H58.4901V230.785C58.2201 231.175 57.8451 231.5 57.3651 231.76C56.8951 232.01 56.3501 232.135 55.7301 232.135C55.0301 232.135 54.3901 231.955 53.8101 231.595C53.2401 231.235 52.7851 230.73 52.4451 230.08C52.1151 229.42 51.9501 228.665 51.9501 227.815ZM58.4901 227.845C58.4901 227.335 58.3901 226.9 58.1901 226.54C57.9901 226.17 57.7201 225.89 57.3801 225.7C57.0401 225.5 56.6751 225.4 56.2851 225.4C55.8951 225.4 55.5351 225.495 55.2051 225.685C54.8751 225.875 54.6051 226.155 54.3951 226.525C54.1951 226.885 54.0951 227.315 54.0951 227.815C54.0951 228.315 54.1951 228.755 54.3951 229.135C54.6051 229.505 54.8751 229.79 55.2051 229.99C55.5451 230.19 55.9051 230.29 56.2851 230.29C56.6751 230.29 57.0401 230.195 57.3801 230.005C57.7201 229.805 57.9901 229.525 58.1901 229.165C58.3901 228.795 58.4901 228.355 58.4901 227.845ZM62.1161 227.845C62.1161 226.985 62.2911 226.235 62.6411 225.595C62.9911 224.945 63.4761 224.445 64.0961 224.095C64.7161 223.735 65.4261 223.555 66.2261 223.555C67.2561 223.555 68.1061 223.815 68.7761 224.335C69.4561 224.845 69.9111 225.565 70.1411 226.495H67.8761C67.7561 226.135 67.5511 225.855 67.2611 225.655C66.9811 225.445 66.6311 225.34 66.2111 225.34C65.6111 225.34 65.1361 225.56 64.7861 226C64.4361 226.43 64.2611 227.045 64.2611 227.845C64.2611 228.635 64.4361 229.25 64.7861 229.69C65.1361 230.12 65.6111 230.335 66.2111 230.335C67.0611 230.335 67.6161 229.955 67.8761 229.195H70.1411C69.9111 230.095 69.4561 230.81 68.7761 231.34C68.0961 231.87 67.2461 232.135 66.2261 232.135C65.4261 232.135 64.7161 231.96 64.0961 231.61C63.4761 231.25 62.9911 230.75 62.6411 230.11C62.2911 229.46 62.1161 228.705 62.1161 227.845ZM72.7445 222.7C72.3745 222.7 72.0645 222.585 71.8145 222.355C71.5745 222.115 71.4545 221.82 71.4545 221.47C71.4545 221.12 71.5745 220.83 71.8145 220.6C72.0645 220.36 72.3745 220.24 72.7445 220.24C73.1145 220.24 73.4195 220.36 73.6595 220.6C73.9095 220.83 74.0345 221.12 74.0345 221.47C74.0345 221.82 73.9095 222.115 73.6595 222.355C73.4195 222.585 73.1145 222.7 72.7445 222.7ZM73.7795 223.69V232H71.6795V223.69H73.7795ZM75.3143 227.815C75.3143 226.975 75.4793 226.23 75.8093 225.58C76.1493 224.93 76.6043 224.43 77.1743 224.08C77.7543 223.73 78.3993 223.555 79.1093 223.555C79.7293 223.555 80.2693 223.68 80.7293 223.93C81.1993 224.18 81.5743 224.495 81.8543 224.875V223.69H83.9693V232H81.8543V230.785C81.5843 231.175 81.2093 231.5 80.7293 231.76C80.2593 232.01 79.7143 232.135 79.0943 232.135C78.3943 232.135 77.7543 231.955 77.1743 231.595C76.6043 231.235 76.1493 230.73 75.8093 230.08C75.4793 229.42 75.3143 228.665 75.3143 227.815ZM81.8543 227.845C81.8543 227.335 81.7543 226.9 81.5543 226.54C81.3543 226.17 81.0843 225.89 80.7443 225.7C80.4043 225.5 80.0393 225.4 79.6493 225.4C79.2593 225.4 78.8993 225.495 78.5693 225.685C78.2393 225.875 77.9693 226.155 77.7593 226.525C77.5593 226.885 77.4593 227.315 77.4593 227.815C77.4593 228.315 77.5593 228.755 77.7593 229.135C77.9693 229.505 78.2393 229.79 78.5693 229.99C78.9093 230.19 79.2693 230.29 79.6493 230.29C80.0393 230.29 80.4043 230.195 80.7443 230.005C81.0843 229.805 81.3543 229.525 81.5543 229.165C81.7543 228.795 81.8543 228.355 81.8543 227.845ZM90.6254 223.57C91.6154 223.57 92.4154 223.885 93.0254 224.515C93.6354 225.135 93.9404 226.005 93.9404 227.125V232H91.8404V227.41C91.8404 226.75 91.6754 226.245 91.3454 225.895C91.0154 225.535 90.5654 225.355 89.9954 225.355C89.4154 225.355 88.9554 225.535 88.6154 225.895C88.2854 226.245 88.1204 226.75 88.1204 227.41V232H86.0204V223.69H88.1204V224.725C88.4004 224.365 88.7554 224.085 89.1854 223.885C89.6254 223.675 90.1054 223.57 90.6254 223.57ZM98.3823 225.415V229.435C98.3823 229.715 98.4473 229.92 98.5773 230.05C98.7173 230.17 98.9473 230.23 99.2673 230.23H100.242V232H98.9223C97.1523 232 96.2673 231.14 96.2673 229.42V225.415H95.2773V223.69H96.2673V221.635H98.3823V223.69H100.242V225.415H98.3823ZM109.478 227.665C109.478 227.965 109.458 228.235 109.418 228.475H103.343C103.393 229.075 103.603 229.545 103.973 229.885C104.343 230.225 104.798 230.395 105.338 230.395C106.118 230.395 106.673 230.06 107.003 229.39H109.268C109.028 230.19 108.568 230.85 107.888 231.37C107.208 231.88 106.373 232.135 105.383 232.135C104.583 232.135 103.863 231.96 103.223 231.61C102.593 231.25 102.098 230.745 101.738 230.095C101.388 229.445 101.213 228.695 101.213 227.845C101.213 226.985 101.388 226.23 101.738 225.58C102.088 224.93 102.578 224.43 103.208 224.08C103.838 223.73 104.563 223.555 105.383 223.555C106.173 223.555 106.878 223.725 107.498 224.065C108.128 224.405 108.613 224.89 108.953 225.52C109.303 226.14 109.478 226.855 109.478 227.665ZM107.303 227.065C107.293 226.525 107.098 226.095 106.718 225.775C106.338 225.445 105.873 225.28 105.323 225.28C104.803 225.28 104.363 225.44 104.003 225.76C103.653 226.07 103.438 226.505 103.358 227.065H107.303ZM25.72 250.89C25.72 250.05 25.89 249.315 26.23 248.685C26.57 248.045 27.035 247.555 27.625 247.215C28.225 246.865 28.9 246.69 29.65 246.69C30.37 246.69 31.02 246.865 31.6 247.215C32.18 247.565 32.605 248.02 32.875 248.58V243.9H33.925V255H32.875V253.17C32.625 253.74 32.215 254.21 31.645 254.58C31.075 254.94 30.405 255.12 29.635 255.12C28.885 255.12 28.21 254.945 27.61 254.595C27.02 254.245 26.555 253.75 26.215 253.11C25.885 252.47 25.72 251.73 25.72 250.89ZM32.875 250.905C32.875 250.245 32.74 249.665 32.47 249.165C32.2 248.665 31.83 248.28 31.36 248.01C30.9 247.74 30.39 247.605 29.83 247.605C29.25 247.605 28.73 247.735 28.27 247.995C27.81 248.255 27.445 248.635 27.175 249.135C26.915 249.625 26.785 250.21 26.785 250.89C26.785 251.56 26.915 252.15 27.175 252.66C27.445 253.16 27.81 253.545 28.27 253.815C28.73 254.075 29.25 254.205 29.83 254.205C30.39 254.205 30.9 254.07 31.36 253.8C31.83 253.53 32.2 253.145 32.47 252.645C32.74 252.145 32.875 251.565 32.875 250.905ZM43.7321 250.485C43.7321 250.845 43.7221 251.12 43.7021 251.31H36.9071C36.9371 251.93 37.0871 252.46 37.3571 252.9C37.6271 253.34 37.9821 253.675 38.4221 253.905C38.8621 254.125 39.3421 254.235 39.8621 254.235C40.5421 254.235 41.1121 254.07 41.5721 253.74C42.0421 253.41 42.3521 252.965 42.5021 252.405H43.6121C43.4121 253.205 42.9821 253.86 42.3221 254.37C41.6721 254.87 40.8521 255.12 39.8621 255.12C39.0921 255.12 38.4021 254.95 37.7921 254.61C37.1821 254.26 36.7021 253.77 36.3521 253.14C36.0121 252.5 35.8421 251.755 35.8421 250.905C35.8421 250.055 36.0121 249.31 36.3521 248.67C36.6921 248.03 37.1671 247.54 37.7771 247.2C38.3871 246.86 39.0821 246.69 39.8621 246.69C40.6421 246.69 41.3221 246.86 41.9021 247.2C42.4921 247.54 42.9421 248 43.2521 248.58C43.5721 249.15 43.7321 249.785 43.7321 250.485ZM42.6671 250.455C42.6771 249.845 42.5521 249.325 42.2921 248.895C42.0421 248.465 41.6971 248.14 41.2571 247.92C40.8171 247.7 40.3371 247.59 39.8171 247.59C39.0371 247.59 38.3721 247.84 37.8221 248.34C37.2721 248.84 36.9671 249.545 36.9071 250.455H42.6671ZM48.9946 249.765C48.9946 248.745 49.2246 247.83 49.6846 247.02C50.1446 246.2 50.7696 245.56 51.5596 245.1C52.3596 244.64 53.2446 244.41 54.2146 244.41C55.3546 244.41 56.3496 244.685 57.1996 245.235C58.0496 245.785 58.6696 246.565 59.0596 247.575H57.4246C57.1346 246.945 56.7146 246.46 56.1646 246.12C55.6246 245.78 54.9746 245.61 54.2146 245.61C53.4846 245.61 52.8296 245.78 52.2496 246.12C51.6696 246.46 51.2146 246.945 50.8846 247.575C50.5546 248.195 50.3896 248.925 50.3896 249.765C50.3896 250.595 50.5546 251.325 50.8846 251.955C51.2146 252.575 51.6696 253.055 52.2496 253.395C52.8296 253.735 53.4846 253.905 54.2146 253.905C54.9746 253.905 55.6246 253.74 56.1646 253.41C56.7146 253.07 57.1346 252.585 57.4246 251.955H59.0596C58.6696 252.955 58.0496 253.73 57.1996 254.28C56.3496 254.82 55.3546 255.09 54.2146 255.09C53.2446 255.09 52.3596 254.865 51.5596 254.415C50.7696 253.955 50.1446 253.32 49.6846 252.51C49.2246 251.7 48.9946 250.785 48.9946 249.765ZM60.5815 250.86C60.5815 250.02 60.7515 249.285 61.0915 248.655C61.4315 248.015 61.8965 247.52 62.4865 247.17C63.0865 246.82 63.7515 246.645 64.4815 246.645C65.2015 246.645 65.8265 246.8 66.3565 247.11C66.8865 247.42 67.2815 247.81 67.5415 248.28V246.78H68.9215V255H67.5415V253.47C67.2715 253.95 66.8665 254.35 66.3265 254.67C65.7965 254.98 65.1765 255.135 64.4665 255.135C63.7365 255.135 63.0765 254.955 62.4865 254.595C61.8965 254.235 61.4315 253.73 61.0915 253.08C60.7515 252.43 60.5815 251.69 60.5815 250.86ZM67.5415 250.875C67.5415 250.255 67.4165 249.715 67.1665 249.255C66.9165 248.795 66.5765 248.445 66.1465 248.205C65.7265 247.955 65.2615 247.83 64.7515 247.83C64.2415 247.83 63.7765 247.95 63.3565 248.19C62.9365 248.43 62.6015 248.78 62.3515 249.24C62.1015 249.7 61.9765 250.24 61.9765 250.86C61.9765 251.49 62.1015 252.04 62.3515 252.51C62.6015 252.97 62.9365 253.325 63.3565 253.575C63.7765 253.815 64.2415 253.935 64.7515 253.935C65.2615 253.935 65.7265 253.815 66.1465 253.575C66.5765 253.325 66.9165 252.97 67.1665 252.51C67.4165 252.04 67.5415 251.495 67.5415 250.875ZM72.5932 248.115C72.8332 247.645 73.1732 247.28 73.6132 247.02C74.0632 246.76 74.6082 246.63 75.2482 246.63V248.04H74.8882C73.3582 248.04 72.5932 248.87 72.5932 250.53V255H71.2282V246.78H72.5932V248.115ZM80.8289 246.63C81.8289 246.63 82.6389 246.935 83.2589 247.545C83.8789 248.145 84.1889 249.015 84.1889 250.155V255H82.8389V250.35C82.8389 249.53 82.6339 248.905 82.2239 248.475C81.8139 248.035 81.2539 247.815 80.5439 247.815C79.8239 247.815 79.2489 248.04 78.8189 248.49C78.3989 248.94 78.1889 249.595 78.1889 250.455V255H76.8239V246.78H78.1889V247.95C78.4589 247.53 78.8239 247.205 79.2839 246.975C79.7539 246.745 80.2689 246.63 80.8289 246.63ZM93.9187 250.575C93.9187 250.835 93.9037 251.11 93.8737 251.4H87.3037C87.3537 252.21 87.6287 252.845 88.1287 253.305C88.6387 253.755 89.2537 253.98 89.9737 253.98C90.5637 253.98 91.0537 253.845 91.4437 253.575C91.8437 253.295 92.1237 252.925 92.2837 252.465H93.7537C93.5337 253.255 93.0937 253.9 92.4337 254.4C91.7737 254.89 90.9537 255.135 89.9737 255.135C89.1937 255.135 88.4937 254.96 87.8737 254.61C87.2637 254.26 86.7837 253.765 86.4337 253.125C86.0837 252.475 85.9087 251.725 85.9087 250.875C85.9087 250.025 86.0787 249.28 86.4187 248.64C86.7587 248 87.2337 247.51 87.8437 247.17C88.4637 246.82 89.1737 246.645 89.9737 246.645C90.7537 246.645 91.4437 246.815 92.0437 247.155C92.6437 247.495 93.1037 247.965 93.4237 248.565C93.7537 249.155 93.9187 249.825 93.9187 250.575ZM92.5087 250.29C92.5087 249.77 92.3937 249.325 92.1637 248.955C91.9337 248.575 91.6187 248.29 91.2187 248.1C90.8287 247.9 90.3937 247.8 89.9137 247.8C89.2237 247.8 88.6337 248.02 88.1437 248.46C87.6637 248.9 87.3887 249.51 87.3187 250.29H92.5087Z" fill="white"/>
<defs>
<linearGradient id="paint0_linear_33_39" x1="9" y1="124.261" x2="119.19" y2="341.112" gradientUnits="userSpaceOnUse">
<stop stop-color="#FFCB00"/>
<stop offset="0.307292" stop-color="#8E7204"/>
<stop offset="0.854167" stop-color="#392F08"/>
<stop offset="1" stop-color="#FFD938"/>
</linearGradient>
</defs>
</svg>
