<svg width="277" height="386" viewBox="0 0 277 386" fill="none" xmlns="http://www.w3.org/2000/svg">
<rect x="12.0435" y="12.0436" width="258.935" height="361.304" fill="#82A270"/>
<rect width="277" height="12.0435" fill="#725C33"/>
<rect y="373.348" width="277" height="12.0435" fill="#725C33"/>
<path d="M12.0435 12.0436H270.978V108.391H141.511H12.0435V12.0436Z" fill="#FFCB00"/>
<path d="M116.416 275.279H110.916L110.08 277.809H105.548L111.202 262.299H116.174L121.806 277.809H117.252L116.416 275.279ZM115.338 271.979L113.666 266.963L112.016 271.979H115.338ZM127.303 274.223H132.561V277.809H122.551V274.399L127.457 269.053H122.595V265.467H132.385V268.877L127.303 274.223ZM146.154 271.495C146.154 271.833 146.132 272.17 146.088 272.507H137.926C137.97 273.182 138.153 273.688 138.476 274.025C138.813 274.348 139.238 274.509 139.752 274.509C140.47 274.509 140.984 274.187 141.292 273.541H145.89C145.699 274.392 145.325 275.155 144.768 275.829C144.225 276.489 143.536 277.01 142.7 277.391C141.864 277.773 140.94 277.963 139.928 277.963C138.71 277.963 137.625 277.707 136.672 277.193C135.733 276.68 134.992 275.947 134.45 274.993C133.922 274.04 133.658 272.918 133.658 271.627C133.658 270.337 133.922 269.222 134.45 268.283C134.978 267.33 135.711 266.597 136.65 266.083C137.603 265.57 138.696 265.313 139.928 265.313C141.145 265.313 142.223 265.563 143.162 266.061C144.1 266.56 144.834 267.279 145.362 268.217C145.89 269.141 146.154 270.234 146.154 271.495ZM141.754 270.417C141.754 269.889 141.578 269.479 141.226 269.185C140.874 268.877 140.434 268.723 139.906 268.723C139.378 268.723 138.945 268.87 138.608 269.163C138.27 269.442 138.05 269.86 137.948 270.417H141.754ZM150.096 264.323C149.333 264.323 148.717 264.118 148.248 263.707C147.793 263.282 147.566 262.754 147.566 262.123C147.566 261.478 147.793 260.943 148.248 260.517C148.717 260.092 149.333 259.879 150.096 259.879C150.844 259.879 151.445 260.092 151.9 260.517C152.369 260.943 152.604 261.478 152.604 262.123C152.604 262.754 152.369 263.282 151.9 263.707C151.445 264.118 150.844 264.323 150.096 264.323ZM152.23 265.467V277.809H147.918V265.467H152.23ZM161.968 274.135V277.809H160.098C156.944 277.809 155.368 276.247 155.368 273.123V269.053H153.85V265.467H155.368V262.475H159.702V265.467H161.946V269.053H159.702V273.189C159.702 273.527 159.775 273.769 159.922 273.915C160.083 274.062 160.347 274.135 160.714 274.135H161.968ZM175.738 271.495C175.738 271.833 175.716 272.17 175.672 272.507H167.51C167.554 273.182 167.737 273.688 168.06 274.025C168.397 274.348 168.822 274.509 169.336 274.509C170.054 274.509 170.568 274.187 170.876 273.541H175.474C175.283 274.392 174.909 275.155 174.352 275.829C173.809 276.489 173.12 277.01 172.284 277.391C171.448 277.773 170.524 277.963 169.512 277.963C168.294 277.963 167.209 277.707 166.256 277.193C165.317 276.68 164.576 275.947 164.034 274.993C163.506 274.04 163.242 272.918 163.242 271.627C163.242 270.337 163.506 269.222 164.034 268.283C164.562 267.33 165.295 266.597 166.234 266.083C167.187 265.57 168.28 265.313 169.512 265.313C170.729 265.313 171.807 265.563 172.746 266.061C173.684 266.56 174.418 267.279 174.946 268.217C175.474 269.141 175.738 270.234 175.738 271.495ZM171.338 270.417C171.338 269.889 171.162 269.479 170.81 269.185C170.458 268.877 170.018 268.723 169.49 268.723C168.962 268.723 168.529 268.87 168.192 269.163C167.854 269.442 167.634 269.86 167.532 270.417H171.338ZM94.9427 304.627C94.9427 303.351 95.17 302.237 95.6247 301.283C96.094 300.33 96.732 299.597 97.5387 299.083C98.3453 298.57 99.24 298.313 100.223 298.313C101.015 298.313 101.719 298.482 102.335 298.819C102.965 299.142 103.457 299.589 103.809 300.161V294.529H108.143V310.809H103.809V309.093C103.471 309.665 102.995 310.12 102.379 310.457C101.763 310.795 101.037 310.963 100.201 310.963C99.218 310.963 98.3233 310.707 97.5167 310.193C96.7247 309.68 96.094 308.947 95.6247 307.993C95.17 307.025 94.9427 305.903 94.9427 304.627ZM103.831 304.627C103.831 303.835 103.611 303.212 103.171 302.757C102.745 302.303 102.217 302.075 101.587 302.075C100.941 302.075 100.406 302.303 99.9807 302.757C99.5553 303.197 99.3427 303.821 99.3427 304.627C99.3427 305.419 99.5553 306.05 99.9807 306.519C100.406 306.974 100.941 307.201 101.587 307.201C102.217 307.201 102.745 306.974 103.171 306.519C103.611 306.065 103.831 305.434 103.831 304.627ZM122.392 304.495C122.392 304.833 122.37 305.17 122.326 305.507H114.164C114.208 306.182 114.391 306.688 114.714 307.025C115.051 307.348 115.476 307.509 115.99 307.509C116.708 307.509 117.222 307.187 117.53 306.541H122.128C121.937 307.392 121.563 308.155 121.006 308.829C120.463 309.489 119.774 310.01 118.938 310.391C118.102 310.773 117.178 310.963 116.166 310.963C114.948 310.963 113.863 310.707 112.91 310.193C111.971 309.68 111.23 308.947 110.688 307.993C110.16 307.04 109.896 305.918 109.896 304.627C109.896 303.337 110.16 302.222 110.688 301.283C111.216 300.33 111.949 299.597 112.888 299.083C113.841 298.57 114.934 298.313 116.166 298.313C117.383 298.313 118.461 298.563 119.4 299.061C120.338 299.56 121.072 300.279 121.6 301.217C122.128 302.141 122.392 303.234 122.392 304.495ZM117.992 303.417C117.992 302.889 117.816 302.479 117.464 302.185C117.112 301.877 116.672 301.723 116.144 301.723C115.616 301.723 115.183 301.87 114.846 302.163C114.508 302.442 114.288 302.86 114.186 303.417H117.992ZM135.803 310.963C134.351 310.963 133.017 310.626 131.799 309.951C130.582 309.262 129.614 308.316 128.895 307.113C128.191 305.896 127.839 304.525 127.839 302.999C127.839 301.474 128.191 300.11 128.895 298.907C129.614 297.69 130.582 296.744 131.799 296.069C133.017 295.395 134.351 295.057 135.803 295.057C137.27 295.057 138.605 295.395 139.807 296.069C141.025 296.744 141.985 297.69 142.689 298.907C143.393 300.11 143.745 301.474 143.745 302.999C143.745 304.525 143.393 305.896 142.689 307.113C141.985 308.316 141.025 309.262 139.807 309.951C138.59 310.626 137.255 310.963 135.803 310.963ZM135.803 306.959C136.903 306.959 137.769 306.6 138.399 305.881C139.045 305.163 139.367 304.202 139.367 302.999C139.367 301.767 139.045 300.799 138.399 300.095C137.769 299.377 136.903 299.017 135.803 299.017C134.689 299.017 133.816 299.377 133.185 300.095C132.555 300.799 132.239 301.767 132.239 302.999C132.239 304.217 132.555 305.185 133.185 305.903C133.816 306.607 134.689 306.959 135.803 306.959ZM149.996 294.529V310.809H145.684V294.529H149.996ZM154.629 297.323C153.867 297.323 153.251 297.118 152.781 296.707C152.327 296.282 152.099 295.754 152.099 295.123C152.099 294.478 152.327 293.943 152.781 293.517C153.251 293.092 153.867 292.879 154.629 292.879C155.377 292.879 155.979 293.092 156.433 293.517C156.903 293.943 157.137 294.478 157.137 295.123C157.137 295.754 156.903 296.282 156.433 296.707C155.979 297.118 155.377 297.323 154.629 297.323ZM156.763 298.467V310.809H152.451V298.467H156.763ZM165.137 306.739L167.447 298.467H172.045L167.799 310.809H162.431L158.185 298.467H162.783L165.137 306.739ZM172.802 304.627C172.802 303.351 173.029 302.237 173.484 301.283C173.953 300.33 174.584 299.597 175.376 299.083C176.183 298.57 177.077 298.313 178.06 298.313C178.911 298.313 179.644 298.482 180.26 298.819C180.876 299.157 181.353 299.611 181.69 300.183V298.467H186.002V310.809H181.69V309.093C181.353 309.665 180.869 310.12 180.238 310.457C179.622 310.795 178.896 310.963 178.06 310.963C177.077 310.963 176.183 310.707 175.376 310.193C174.584 309.68 173.953 308.947 173.484 307.993C173.029 307.025 172.802 305.903 172.802 304.627ZM181.69 304.627C181.69 303.835 181.47 303.212 181.03 302.757C180.605 302.303 180.077 302.075 179.446 302.075C178.801 302.075 178.265 302.303 177.84 302.757C177.415 303.197 177.202 303.821 177.202 304.627C177.202 305.419 177.415 306.05 177.84 306.519C178.265 306.974 178.801 307.201 179.446 307.201C180.077 307.201 180.605 306.974 181.03 306.519C181.47 306.065 181.69 305.434 181.69 304.627Z" fill="white"/>
</svg>
