<svg width="301" height="134" viewBox="0 0 301 134" fill="none" xmlns="http://www.w3.org/2000/svg">
<ellipse cx="150.5" cy="25" rx="150.5" ry="25" fill="#C4C4C4"/>
<ellipse cx="150.5" cy="102" rx="150.5" ry="25" fill="#C4C4C4"/>
<path d="M0 24.5V24.5C41.0567 39.7307 84.3287 48.1416 128.101 49.3995L149 50L189.085 48.9826C227.659 48.0036 265.672 39.5179 301 24V24V107V107C261.71 123.838 219.515 132.857 176.774 133.55L149 134H90.7071C68.1685 134 45.896 129.131 25.4135 119.726L17.139 115.926C10.7639 112.999 4.96042 108.96 0 104V104V24.5Z" fill="#5884F5"/>
<path d="M43 19.7059C43 16.0023 46.0023 13 49.7059 13H84.2941C87.9977 13 91 16.0023 91 19.7059V19.7059C91 23.4094 87.9977 26.4118 84.2941 26.4118H49.7059C46.0023 26.4118 43 23.4094 43 19.7059V19.7059Z" fill="#636363"/>
<path d="M67 19.7059C67 17.5617 68.7382 15.8235 70.8824 15.8235H82.8824C85.0265 15.8235 86.7647 17.5617 86.7647 19.7059V19.7059C86.7647 21.85 85.0265 23.5882 82.8824 23.5882H70.8824C68.7382 23.5882 67 21.85 67 19.7059V19.7059Z" fill="#C4C4C4"/>
</svg>
