<svg width="169" height="499" viewBox="0 0 169 499" fill="none" xmlns="http://www.w3.org/2000/svg">
<path d="M17.5 90.5L50.5 48L117.5 48L123 54L126 58L147.5 86.5L158 104.5L163.5 124L162 131L160 136V139L162 142.5V169.5V236L158.5 243.5L163.5 251.5L160 273.5L152.5 292.5L150 305V307.5L146 313V316L150.5 326.5L153 341L151.5 346L155.381 351.337C155.46 351.445 155.516 351.567 155.546 351.696L157.5 360L159 373.5L156.5 377L160.258 383.577C160.418 383.857 160.532 384.161 160.595 384.477L162 391.5L163.5 401.5L160.5 409L163.5 414V427.5L160.5 433L163.5 436.5V445.5L160.5 464.5L158 476L154.384 480.068C154.13 480.353 153.825 480.588 153.483 480.758L148 483.5L138.5 488.5L129.5 493.5L123.136 494.349C122.386 494.449 121.623 494.406 120.888 494.222L117.077 493.269C116.382 493.095 115.648 493.176 115.007 493.496L112 495L105.5 495.5L100.5 496.5H94.5L89.5944 493.378C89.2097 493.133 88.7529 493.027 88.2998 493.078L85.8945 493.345C84.9918 493.445 84.1501 493.85 83.5078 494.492L83.2574 494.743C82.1321 495.868 80.606 496.5 79.0147 496.5H69.1441C65.4202 496.5 61.7351 495.744 58.3122 494.277C57.1492 493.778 55.8387 493.748 54.6539 494.192L52.5 495L46.5 494.5L36 490.5L33 491L30 490.5L25 489L21 486L16.5 482L12.5 475.5L9 462.5L7 456.5V446L7.5 436.5L9.02823 433.444C9.32347 432.853 9.30829 432.155 8.98769 431.578L7.3262 428.587C7.11139 428.201 6.98474 427.771 6.95532 427.33L6.5 420.5L7 412L8.37225 410.353C9.0685 409.518 9.25804 408.371 8.86761 407.356L7.29903 403.277C7.10179 402.765 7.01231 402.217 7.03618 401.668L7.5 391L9.5 382L12.5 377L11 369.5L14 351.5L17.5 346V342.5L16.5 340L19.5 322L24 315L23 311.5L20.5 308.5L19 303.5L16.5 290.5L8 266.5L6.5 258L7.5 248L10 243.5L6.5 236V142.5L10.5 136.5L6.5 130.5V118L17.5 90.5Z" fill="url(#paint0_linear_19_16)"/>
<path d="M50.5 45V48M117.5 44.5V48M50.5 48L17.5 90.5L6.5 118V130.5L10.5 136.5L6.5 142.5V236L10 243.5L7.5 248L6.5 258L8 266.5L16.5 290.5L19 303.5L20.5 308.5L23 311.5L24 315L19.5 322L16.5 340L17.5 342.5V346L14 351.5L11 369.5L12.5 377L9.5 382L7.5 391L7.03618 401.668C7.01232 402.217 7.10179 402.765 7.29902 403.277L8.86762 407.356C9.25804 408.371 9.0685 409.518 8.37225 410.353L7 412L6.5 420.5L6.95532 427.33C6.98474 427.771 7.11139 428.201 7.3262 428.587L8.98769 431.578C9.3083 432.155 9.32347 432.853 9.02823 433.444L7.5 436.5L7 446V456.5L9 462.5L12.5 475.5L16.5 482L21 486L25 489L30 490.5L33 491L36 490.5L46.5 494.5L52.5 495L54.6539 494.192C55.8387 493.748 57.1492 493.778 58.3122 494.277V494.277C61.7351 495.744 65.4202 496.5 69.1441 496.5H79.0147C80.606 496.5 82.1321 495.868 83.2574 494.743L83.5078 494.492C84.1501 493.85 84.9918 493.445 85.8945 493.345L88.2998 493.078C88.7529 493.027 89.2097 493.133 89.5944 493.378L94.5 496.5H100.5L105.5 495.5L112 495L115.007 493.496C115.648 493.176 116.382 493.095 117.077 493.269L120.888 494.222C121.623 494.406 122.386 494.449 123.136 494.349L129.5 493.5L138.5 488.5L148 483.5L153.483 480.758C153.825 480.588 154.13 480.353 154.384 480.068L158 476L160.5 464.5L163.5 445.5V436.5L160.5 433L163.5 427.5V414L160.5 409L163.5 401.5L162 391.5L160.595 384.477C160.532 384.161 160.418 383.857 160.258 383.577L156.5 377L159 373.5L157.5 360L155.546 351.696C155.516 351.567 155.46 351.445 155.381 351.337L151.5 346L153 341L150.5 326.5L146 316V313L150 307.5V305L152.5 292.5L160 273.5L163.5 251.5L158.5 243.5L162 236V169.5V142.5L160 139V136L162 131L163.5 124L158 104.5L147.5 86.5L126 58L123 54L117.5 48M50.5 48L117.5 48" stroke="black" stroke-width="5"/>
<path d="M121.217 37.174L118.283 37.826C117.826 37.9277 117.5 38.3335 117.5 38.8022V48L50.5 48V39.6043C50.5 38.6669 49.8489 37.8553 48.9339 37.652L47.3171 37.2927C46.5211 37.1158 45.9122 36.4734 45.7782 35.6691L45.756 35.5357C45.6065 34.6391 46.1016 33.7594 46.9456 33.4218C47.4986 33.2006 47.7221 32.5369 47.4157 32.0262L46.5 30.5V8.29304C46.5 8.10282 46.5617 7.91774 46.6758 7.76557C48.4869 5.35074 51.1678 3.73667 54.1494 3.26589L59 2.5L111 2.5L111.979 2.56992C115.817 2.8441 119.367 4.70869 121.771 7.71366C121.919 7.89902 122 8.12932 122 8.3667V17V28.36C122 29.7603 121.619 31.1343 120.899 32.335C120.676 32.7073 120.784 33.1893 121.145 33.4302L122 34V36.1978C122 36.6665 121.674 37.0723 121.217 37.174Z" fill="#1760C9" stroke="black" stroke-width="5"/>
<rect x="2.5" y="137.5" width="164" height="100" rx="12.5" fill="white" stroke="black" stroke-width="5" stroke-linejoin="round"/>
<defs>
<linearGradient id="paint0_linear_19_16" x1="98" y1="439.5" x2="66.5" y2="-35.5" gradientUnits="userSpaceOnUse">
<stop stop-color="#D4F1F9"/>
<stop offset="0.505934" stop-color="#C9E2F6"/>
<stop offset="1" stop-color="#E0F1F9"/>
</linearGradient>
</defs>
</svg>
