<svg width="221" height="393" viewBox="0 0 221 393" fill="none" xmlns="http://www.w3.org/2000/svg">
<path d="M11.3073 0H208.918L220.675 31.5661H1L11.3073 0Z" fill="#D0D1D2"/>
<rect x="1" y="31.5662" width="219.03" height="360.434" fill="#F4F2F2" stroke="#D0D1D2"/>
<path d="M39.42 202.06V203.54H33.36V208.24H38.28V209.72H33.36V216H31.54V202.06H39.42ZM40.9381 210.48C40.9381 209.36 41.1648 208.38 41.6181 207.54C42.0715 206.687 42.6915 206.027 43.4781 205.56C44.2781 205.093 45.1648 204.86 46.1381 204.86C47.0981 204.86 47.9315 205.067 48.6381 205.48C49.3448 205.893 49.8715 206.413 50.2181 207.04V205.04H52.0581V216H50.2181V213.96C49.8581 214.6 49.3181 215.133 48.5981 215.56C47.8915 215.973 47.0648 216.18 46.1181 216.18C45.1448 216.18 44.2648 215.94 43.4781 215.46C42.6915 214.98 42.0715 214.307 41.6181 213.44C41.1648 212.573 40.9381 211.587 40.9381 210.48ZM50.2181 210.5C50.2181 209.673 50.0515 208.953 49.7181 208.34C49.3848 207.727 48.9315 207.26 48.3581 206.94C47.7981 206.607 47.1781 206.44 46.4981 206.44C45.8181 206.44 45.1981 206.6 44.6381 206.92C44.0781 207.24 43.6315 207.707 43.2981 208.32C42.9648 208.933 42.7981 209.653 42.7981 210.48C42.7981 211.32 42.9648 212.053 43.2981 212.68C43.6315 213.293 44.0781 213.767 44.6381 214.1C45.1981 214.42 45.8181 214.58 46.4981 214.58C47.1781 214.58 47.7981 214.42 48.3581 214.1C48.9315 213.767 49.3848 213.293 49.7181 212.68C50.0515 212.053 50.2181 211.327 50.2181 210.5ZM56.9538 206.82C57.2738 206.193 57.7271 205.707 58.3138 205.36C58.9138 205.013 59.6404 204.84 60.4938 204.84V206.72H60.0138C57.9738 206.72 56.9538 207.827 56.9538 210.04V216H55.1338V205.04H56.9538V206.82ZM63.5347 203.26C63.188 203.26 62.8947 203.14 62.6547 202.9C62.4147 202.66 62.2947 202.367 62.2947 202.02C62.2947 201.673 62.4147 201.38 62.6547 201.14C62.8947 200.9 63.188 200.78 63.5347 200.78C63.868 200.78 64.148 200.9 64.3747 201.14C64.6147 201.38 64.7347 201.673 64.7347 202.02C64.7347 202.367 64.6147 202.66 64.3747 202.9C64.148 203.14 63.868 203.26 63.5347 203.26ZM64.4147 205.04V216H62.5947V205.04H64.4147ZM72.8566 204.84C74.1899 204.84 75.2699 205.247 76.0966 206.06C76.9232 206.86 77.3366 208.02 77.3366 209.54V216H75.5366V209.8C75.5366 208.707 75.2632 207.873 74.7166 207.3C74.1699 206.713 73.4232 206.42 72.4766 206.42C71.5166 206.42 70.7499 206.72 70.1766 207.32C69.6166 207.92 69.3366 208.793 69.3366 209.94V216H67.5166V205.04H69.3366V206.6C69.6966 206.04 70.1832 205.607 70.7966 205.3C71.4232 204.993 72.1099 204.84 72.8566 204.84ZM85.7495 204.84C86.5762 204.84 87.3229 205.02 87.9895 205.38C88.6562 205.727 89.1762 206.253 89.5495 206.96C89.9362 207.667 90.1295 208.527 90.1295 209.54V216H88.3295V209.8C88.3295 208.707 88.0562 207.873 87.5095 207.3C86.9629 206.713 86.2162 206.42 85.2695 206.42C84.3095 206.42 83.5429 206.72 82.9695 207.32C82.4095 207.92 82.1295 208.793 82.1295 209.94V216H80.3095V201.2H82.1295V206.6C82.4895 206.04 82.9829 205.607 83.6095 205.3C84.2495 204.993 84.9629 204.84 85.7495 204.84ZM92.4225 210.48C92.4225 209.36 92.6492 208.38 93.1025 207.54C93.5558 206.687 94.1758 206.027 94.9625 205.56C95.7625 205.093 96.6492 204.86 97.6225 204.86C98.5825 204.86 99.4158 205.067 100.123 205.48C100.829 205.893 101.356 206.413 101.703 207.04V205.04H103.543V216H101.703V213.96C101.343 214.6 100.803 215.133 100.083 215.56C99.3758 215.973 98.5492 216.18 97.6025 216.18C96.6292 216.18 95.7492 215.94 94.9625 215.46C94.1758 214.98 93.5558 214.307 93.1025 213.44C92.6492 212.573 92.4225 211.587 92.4225 210.48ZM101.703 210.5C101.703 209.673 101.536 208.953 101.203 208.34C100.869 207.727 100.416 207.26 99.8425 206.94C99.2825 206.607 98.6625 206.44 97.9825 206.44C97.3025 206.44 96.6825 206.6 96.1225 206.92C95.5625 207.24 95.1158 207.707 94.7825 208.32C94.4492 208.933 94.2825 209.653 94.2825 210.48C94.2825 211.32 94.4492 212.053 94.7825 212.68C95.1158 213.293 95.5625 213.767 96.1225 214.1C96.6825 214.42 97.3025 214.58 97.9825 214.58C98.6625 214.58 99.2825 214.42 99.8425 214.1C100.416 213.767 100.869 213.293 101.203 212.68C101.536 212.053 101.703 211.327 101.703 210.5ZM111.27 210.48C111.27 209.36 111.497 208.38 111.95 207.54C112.403 206.687 113.023 206.027 113.81 205.56C114.61 205.093 115.503 204.86 116.49 204.86C117.343 204.86 118.137 205.06 118.87 205.46C119.603 205.847 120.163 206.36 120.55 207V201.2H122.39V216H120.55V213.94C120.19 214.593 119.657 215.133 118.95 215.56C118.243 215.973 117.417 216.18 116.47 216.18C115.497 216.18 114.61 215.94 113.81 215.46C113.023 214.98 112.403 214.307 111.95 213.44C111.497 212.573 111.27 211.587 111.27 210.48ZM120.55 210.5C120.55 209.673 120.383 208.953 120.05 208.34C119.717 207.727 119.263 207.26 118.69 206.94C118.13 206.607 117.51 206.44 116.83 206.44C116.15 206.44 115.53 206.6 114.97 206.92C114.41 207.24 113.963 207.707 113.63 208.32C113.297 208.933 113.13 209.653 113.13 210.48C113.13 211.32 113.297 212.053 113.63 212.68C113.963 213.293 114.41 213.767 114.97 214.1C115.53 214.42 116.15 214.58 116.83 214.58C117.51 214.58 118.13 214.42 118.69 214.1C119.263 213.767 119.717 213.293 120.05 212.68C120.383 212.053 120.55 211.327 120.55 210.5ZM135.466 210.1C135.466 210.447 135.446 210.813 135.406 211.2H126.646C126.712 212.28 127.079 213.127 127.746 213.74C128.426 214.34 129.246 214.64 130.206 214.64C130.992 214.64 131.646 214.46 132.166 214.1C132.699 213.727 133.072 213.233 133.286 212.62H135.246C134.952 213.673 134.366 214.533 133.486 215.2C132.606 215.853 131.512 216.18 130.206 216.18C129.166 216.18 128.232 215.947 127.406 215.48C126.592 215.013 125.952 214.353 125.486 213.5C125.019 212.633 124.786 211.633 124.786 210.5C124.786 209.367 125.012 208.373 125.466 207.52C125.919 206.667 126.552 206.013 127.366 205.56C128.192 205.093 129.139 204.86 130.206 204.86C131.246 204.86 132.166 205.087 132.966 205.54C133.766 205.993 134.379 206.62 134.806 207.42C135.246 208.207 135.466 209.1 135.466 210.1ZM133.586 209.72C133.586 209.027 133.432 208.433 133.126 207.94C132.819 207.433 132.399 207.053 131.866 206.8C131.346 206.533 130.766 206.4 130.126 206.4C129.206 206.4 128.419 206.693 127.766 207.28C127.126 207.867 126.759 208.68 126.666 209.72H133.586ZM151.78 202.06V203.54H147.98V216H146.16V203.54H142.34V202.06H151.78ZM155.84 206.82C156.16 206.193 156.614 205.707 157.2 205.36C157.8 205.013 158.527 204.84 159.38 204.84V206.72H158.9C156.86 206.72 155.84 207.827 155.84 210.04V216H154.02V205.04H155.84V206.82ZM162.421 203.26C162.075 203.26 161.781 203.14 161.541 202.9C161.301 202.66 161.181 202.367 161.181 202.02C161.181 201.673 161.301 201.38 161.541 201.14C161.781 200.9 162.075 200.78 162.421 200.78C162.755 200.78 163.035 200.9 163.261 201.14C163.501 201.38 163.621 201.673 163.621 202.02C163.621 202.367 163.501 202.66 163.261 202.9C163.035 203.14 162.755 203.26 162.421 203.26ZM163.301 205.04V216H161.481V205.04H163.301ZM170.923 204.86C171.87 204.86 172.697 205.067 173.403 205.48C174.123 205.893 174.657 206.413 175.003 207.04V205.04H176.843V216.24C176.843 217.24 176.63 218.127 176.203 218.9C175.777 219.687 175.163 220.3 174.363 220.74C173.577 221.18 172.657 221.4 171.603 221.4C170.163 221.4 168.963 221.06 168.003 220.38C167.043 219.7 166.477 218.773 166.303 217.6H168.103C168.303 218.267 168.717 218.8 169.343 219.2C169.97 219.613 170.723 219.82 171.603 219.82C172.603 219.82 173.417 219.507 174.043 218.88C174.683 218.253 175.003 217.373 175.003 216.24V213.94C174.643 214.58 174.11 215.113 173.403 215.54C172.697 215.967 171.87 216.18 170.923 216.18C169.95 216.18 169.063 215.94 168.263 215.46C167.477 214.98 166.857 214.307 166.403 213.44C165.95 212.573 165.723 211.587 165.723 210.48C165.723 209.36 165.95 208.38 166.403 207.54C166.857 206.687 167.477 206.027 168.263 205.56C169.063 205.093 169.95 204.86 170.923 204.86ZM175.003 210.5C175.003 209.673 174.837 208.953 174.503 208.34C174.17 207.727 173.717 207.26 173.143 206.94C172.583 206.607 171.963 206.44 171.283 206.44C170.603 206.44 169.983 206.6 169.423 206.92C168.863 207.24 168.417 207.707 168.083 208.32C167.75 208.933 167.583 209.653 167.583 210.48C167.583 211.32 167.75 212.053 168.083 212.68C168.417 213.293 168.863 213.767 169.423 214.1C169.983 214.42 170.603 214.58 171.283 214.58C171.963 214.58 172.583 214.42 173.143 214.1C173.717 213.767 174.17 213.293 174.503 212.68C174.837 212.053 175.003 211.327 175.003 210.5ZM184.699 216.18C183.672 216.18 182.739 215.947 181.899 215.48C181.072 215.013 180.419 214.353 179.939 213.5C179.472 212.633 179.239 211.633 179.239 210.5C179.239 209.38 179.479 208.393 179.959 207.54C180.452 206.673 181.119 206.013 181.959 205.56C182.799 205.093 183.739 204.86 184.779 204.86C185.819 204.86 186.759 205.093 187.599 205.56C188.439 206.013 189.099 206.667 189.579 207.52C190.072 208.373 190.319 209.367 190.319 210.5C190.319 211.633 190.066 212.633 189.559 213.5C189.066 214.353 188.392 215.013 187.539 215.48C186.686 215.947 185.739 216.18 184.699 216.18ZM184.699 214.58C185.352 214.58 185.966 214.427 186.539 214.12C187.112 213.813 187.572 213.353 187.919 212.74C188.279 212.127 188.459 211.38 188.459 210.5C188.459 209.62 188.286 208.873 187.939 208.26C187.592 207.647 187.139 207.193 186.579 206.9C186.019 206.593 185.412 206.44 184.759 206.44C184.092 206.44 183.479 206.593 182.919 206.9C182.372 207.193 181.932 207.647 181.599 208.26C181.266 208.873 181.099 209.62 181.099 210.5C181.099 211.393 181.259 212.147 181.579 212.76C181.912 213.373 182.352 213.833 182.899 214.14C183.446 214.433 184.046 214.58 184.699 214.58Z" fill="#78797C"/>
<path d="M88.6 164.55V167.375H83.95V182H80.45V167.375H75.8V164.55H88.6ZM92.9287 166.5C92.312 166.5 91.7954 166.308 91.3787 165.925C90.9787 165.525 90.7787 165.033 90.7787 164.45C90.7787 163.867 90.9787 163.383 91.3787 163C91.7954 162.6 92.312 162.4 92.9287 162.4C93.5454 162.4 94.0537 162.6 94.4537 163C94.8704 163.383 95.0787 163.867 95.0787 164.45C95.0787 165.033 94.8704 165.525 94.4537 165.925C94.0537 166.308 93.5454 166.5 92.9287 166.5ZM94.6537 168.15V182H91.1537V168.15H94.6537ZM101.612 170.15C102.062 169.517 102.678 168.992 103.462 168.575C104.262 168.142 105.17 167.925 106.187 167.925C107.37 167.925 108.437 168.217 109.387 168.8C110.353 169.383 111.112 170.217 111.662 171.3C112.228 172.367 112.512 173.608 112.512 175.025C112.512 176.442 112.228 177.7 111.662 178.8C111.112 179.883 110.353 180.725 109.387 181.325C108.437 181.925 107.37 182.225 106.187 182.225C105.17 182.225 104.27 182.017 103.487 181.6C102.72 181.183 102.095 180.658 101.612 180.025V188.6H98.1117V168.15H101.612V170.15ZM108.937 175.025C108.937 174.192 108.762 173.475 108.412 172.875C108.078 172.258 107.628 171.792 107.062 171.475C106.512 171.158 105.912 171 105.262 171C104.628 171 104.028 171.167 103.462 171.5C102.912 171.817 102.462 172.283 102.112 172.9C101.778 173.517 101.612 174.242 101.612 175.075C101.612 175.908 101.778 176.633 102.112 177.25C102.462 177.867 102.912 178.342 103.462 178.675C104.028 178.992 104.628 179.15 105.262 179.15C105.912 179.15 106.512 178.983 107.062 178.65C107.628 178.317 108.078 177.842 108.412 177.225C108.762 176.608 108.937 175.875 108.937 175.025ZM121.205 182.225C119.872 182.225 118.672 181.933 117.605 181.35C116.538 180.75 115.697 179.908 115.08 178.825C114.48 177.742 114.18 176.492 114.18 175.075C114.18 173.658 114.488 172.408 115.105 171.325C115.738 170.242 116.597 169.408 117.68 168.825C118.763 168.225 119.972 167.925 121.305 167.925C122.638 167.925 123.847 168.225 124.93 168.825C126.013 169.408 126.863 170.242 127.48 171.325C128.113 172.408 128.43 173.658 128.43 175.075C128.43 176.492 128.105 177.742 127.455 178.825C126.822 179.908 125.955 180.75 124.855 181.35C123.772 181.933 122.555 182.225 121.205 182.225ZM121.205 179.175C121.838 179.175 122.43 179.025 122.98 178.725C123.547 178.408 123.997 177.942 124.33 177.325C124.663 176.708 124.83 175.958 124.83 175.075C124.83 173.758 124.48 172.75 123.78 172.05C123.097 171.333 122.255 170.975 121.255 170.975C120.255 170.975 119.413 171.333 118.73 172.05C118.063 172.75 117.73 173.758 117.73 175.075C117.73 176.392 118.055 177.408 118.705 178.125C119.372 178.825 120.205 179.175 121.205 179.175ZM136.129 167V163.775H142.154V182H138.554V167H136.129Z" fill="#041E59"/>
</svg>
